%FSTAX25Y25*%
%MOIN*%
%SFA1B1*%

%IPPOS*%
%AMD39*
4,1,8,-0.027000,-0.034000,0.027000,-0.034000,0.044000,-0.017000,0.044000,0.017000,0.027000,0.034000,-0.027000,0.034000,-0.044000,0.017000,-0.044000,-0.017000,-0.027000,-0.034000,0.0*
%
%AMD42*
4,1,8,0.034000,-0.027000,0.034000,0.027000,0.017000,0.044000,-0.017000,0.044000,-0.034000,0.027000,-0.034000,-0.027000,-0.017000,-0.044000,0.017000,-0.044000,0.034000,-0.027000,0.0*
%
%ADD18R,0.074000X0.021000*%
%ADD19R,0.044000X0.057000*%
%ADD22R,0.041500X0.014000*%
%ADD23R,0.057000X0.044000*%
%ADD25R,0.022000X0.057500*%
%ADD27R,0.057500X0.022000*%
%ADD29R,0.055240X0.063120*%
%ADD30R,0.167840X0.167840*%
%ADD31R,0.063120X0.055240*%
%ADD32O,0.049280X0.013840*%
%ADD33R,0.070990X0.070990*%
%ADD34C,0.126110*%
%ADD35O,0.110990X0.059500*%
%ADD36O,0.118240X0.110360*%
%ADD37O,0.118240X0.102490*%
%ADD38C,0.113120*%
G04~CAMADD=39~4~0.0~0.0~880.0~680.0~0.0~170.0~0~0.0~0.0~0.0~0.0~0~0.0~0.0~0.0~0.0~0~0.0~0.0~0.0~180.0~880.0~680.0*
%ADD39D39*%
%ADD40R,0.165480X0.106420*%
%ADD41O,0.165480X0.106420*%
G04~CAMADD=42~4~0.0~0.0~880.0~680.0~0.0~170.0~0~0.0~0.0~0.0~0.0~0~0.0~0.0~0.0~0.0~0~0.0~0.0~0.0~270.0~680.0~880.0*
%ADD42D42*%
%ADD43O,0.106420X0.165480*%
%ADD44R,0.106420X0.165480*%
%ADD45O,0.110360X0.118240*%
%ADD46O,0.102490X0.118240*%
%ADD47R,0.074930X0.074930*%
%ADD48C,0.074930*%
%ADD49C,0.139000*%
%ADD50C,0.058000*%
%ADD51C,0.067060*%
%ADD52R,0.067060X0.067060*%
%ADD53R,0.067060X0.067060*%
%ADD54C,0.067060*%
%LNmulti-sensor_datalogger-1*%
%LPD*%
G54D18*
X028385Y0257D03*
Y0252D03*
Y0247D03*
Y0242D03*
Y0237D03*
Y0232D03*
Y0227D03*
Y0222D03*
X032115D03*
Y0227D03*
Y0232D03*
Y0237D03*
Y0242D03*
Y0247D03*
Y0252D03*
Y0257D03*
G54D19*
X030755Y02685D03*
X030045D03*
X027245Y0299D03*
X027955D03*
X010255Y0177D03*
X009545D03*
X014545Y0219D03*
X015255D03*
X019355Y00955D03*
X018645D03*
G54D22*
X0171925Y0247339D03*
Y024478D03*
Y024222D03*
Y0239661D03*
X0187075D03*
Y024222D03*
Y024478D03*
Y0247339D03*
G54D23*
X0119Y026205D03*
Y025495D03*
X0125Y030595D03*
Y031305D03*
X02645Y023945D03*
Y024655D03*
X0096Y030645D03*
Y031355D03*
G54D25*
X0148Y0259225D03*
X0143D03*
X0138D03*
X0133D03*
Y0237775D03*
X0138D03*
X0143D03*
X0148D03*
G54D27*
X0168225Y0105D03*
Y01D03*
Y0095D03*
Y009D03*
Y0085D03*
Y008D03*
Y0075D03*
Y007D03*
X0146775D03*
Y0075D03*
Y008D03*
Y0085D03*
Y009D03*
Y0095D03*
Y01D03*
Y0105D03*
G54D29*
X0344043Y0252D03*
X0336957D03*
X0327543Y00585D03*
X0320457D03*
X0344543Y0236D03*
X0337457D03*
X0279543Y02885D03*
X0272457D03*
X0233957Y0216D03*
X0241043D03*
X0249457D03*
X0256543D03*
X0140543Y02715D03*
X0133457D03*
X0102543Y0186D03*
X0095457D03*
X0186457Y0083D03*
X0193543D03*
G54D30*
X03215Y0323D03*
G54D31*
X00955Y0248043D03*
Y0240957D03*
X0105Y0248543D03*
Y0241457D03*
X0198Y0247543D03*
Y0240457D03*
X0105Y0306457D03*
Y0313543D03*
X01565Y0309957D03*
Y0317043D03*
G54D32*
X0250366Y0247437D03*
Y0245469D03*
Y02435D03*
Y0241532D03*
Y0239563D03*
X0233634D03*
Y0241532D03*
Y02435D03*
Y0245469D03*
Y0247437D03*
G54D33*
X014Y0295484D03*
Y0323043D03*
G54D34*
X01865Y03355D03*
X0186Y00265D03*
G54D35*
X0284Y03505D03*
Y03405D03*
Y03305D03*
Y03205D03*
G54D36*
X0365583Y0050941D03*
X0365484Y0070527D03*
G54D37*
X0365583Y0031236D03*
G54D38*
X03215Y0296996D03*
Y0349004D03*
G54D39*
X01065Y01285D03*
Y01185D03*
X03405Y01D03*
Y009D03*
Y0068D03*
Y0078D03*
X01845Y02865D03*
Y02765D03*
X01965Y02865D03*
Y02765D03*
G54D40*
X037261Y0097654D03*
X037211Y0142654D03*
G54D41*
X037261Y0117654D03*
X037211Y0162654D03*
G54D42*
X00375Y00435D03*
X00275D03*
X00475D03*
X00575D03*
X00675D03*
X00775D03*
G54D43*
X0096346Y003361D03*
X0248846Y003311D03*
X0204346Y003361D03*
X0141846D03*
G54D44*
X0116346Y003361D03*
X0268846Y003311D03*
X0224346Y003361D03*
X0161846D03*
G54D45*
X0295972Y0033984D03*
X0315559Y0034083D03*
G54D46*
X0335264Y0034083D03*
G54D47*
X0136Y03495D03*
G54D48*
X0126Y03495D03*
G54D49*
X0032Y02835D03*
Y03235D03*
X00315Y02165D03*
Y02565D03*
Y0149D03*
Y0189D03*
G54D50*
X0072Y0291D03*
X0082Y0296D03*
X0072Y0301D03*
X0082Y0306D03*
X0072Y0311D03*
X0082Y0316D03*
X00715Y0224D03*
X00815Y0229D03*
X00715Y0234D03*
X00815Y0239D03*
X00715Y0244D03*
X00815Y0249D03*
X00715Y01565D03*
X00815Y01615D03*
X00715Y01665D03*
X00815Y01715D03*
X00715Y01765D03*
X00815Y01815D03*
G54D51*
X0285Y0198D03*
X0275D03*
X0265D03*
X0255D03*
X0245D03*
X0235D03*
X0225D03*
X0215D03*
X0205D03*
X0195D03*
X0185D03*
X0175D03*
X0165D03*
X0285Y0128D03*
X0275D03*
X0265D03*
X0255D03*
X0245D03*
X0235D03*
X0225D03*
X0215D03*
X0205D03*
X0195D03*
X0185D03*
X0175D03*
X0165D03*
X0155Y0198D03*
G54D52*
X0155Y0128D03*
G54D53*
X0093Y01165D03*
G54D54*
X0093Y01065D03*
Y00965D03*
Y00865D03*
Y00765D03*
Y00665D03*
M02*