%FSTAX25Y25*%
%MOIN*%
%SFA1B1*%

%IPPOS*%
%AMD65*
4,1,8,-0.025000,-0.030000,0.025000,-0.030000,0.040000,-0.015000,0.040000,0.015000,0.025000,0.030000,-0.025000,0.030000,-0.040000,0.015000,-0.040000,-0.015000,-0.025000,-0.030000,0.0*
%
%AMD68*
4,1,8,0.030000,-0.025000,0.030000,0.025000,0.015000,0.040000,-0.015000,0.040000,-0.030000,0.025000,-0.030000,-0.025000,-0.015000,-0.040000,0.015000,-0.040000,0.030000,-0.025000,0.0*
%
%ADD18R,0.074000X0.021000*%
%ADD19R,0.044000X0.057000*%
%ADD20R,0.047240X0.055120*%
%ADD21R,0.159840X0.159840*%
%ADD22R,0.041500X0.014000*%
%ADD23R,0.057000X0.044000*%
%ADD24R,0.055120X0.047240*%
%ADD25R,0.022000X0.057500*%
%ADD26O,0.045280X0.009840*%
%ADD27R,0.057500X0.022000*%
%ADD28R,0.062990X0.062990*%
%ADD50C,0.058000*%
%ADD55C,0.047240*%
%ADD56C,0.013780*%
%ADD57C,0.015750*%
%ADD58C,0.009840*%
%ADD59C,0.019680*%
%ADD60C,0.118110*%
%ADD61O,0.102990X0.051500*%
%ADD62O,0.110240X0.102360*%
%ADD63O,0.110240X0.094490*%
%ADD64C,0.105120*%
G04~CAMADD=65~4~0.0~0.0~800.0~600.0~0.0~150.0~0~0.0~0.0~0.0~0.0~0~0.0~0.0~0.0~0.0~0~0.0~0.0~0.0~180.0~800.0~600.0*
%ADD65D65*%
%ADD66R,0.157480X0.098430*%
%ADD67O,0.157480X0.098430*%
G04~CAMADD=68~4~0.0~0.0~800.0~600.0~0.0~150.0~0~0.0~0.0~0.0~0.0~0~0.0~0.0~0.0~0.0~0~0.0~0.0~0.0~270.0~600.0~800.0*
%ADD68D68*%
%ADD69O,0.098430X0.157480*%
%ADD70R,0.098430X0.157480*%
%ADD71O,0.102360X0.110240*%
%ADD72O,0.094490X0.110240*%
%ADD73R,0.066930X0.066930*%
%ADD74C,0.066930*%
%ADD75C,0.131000*%
%ADD76C,0.059060*%
%ADD77R,0.059060X0.059060*%
%ADD78R,0.059060X0.059060*%
%ADD79C,0.059060*%
%ADD80C,0.050000*%
%LNmulti-sensor_datalogger-1*%
%LPD*%
G54D18*
X028385Y0257D03*
Y0252D03*
Y0247D03*
Y0242D03*
Y0237D03*
Y0232D03*
Y0227D03*
Y0222D03*
X032115D03*
Y0227D03*
Y0232D03*
Y0237D03*
Y0242D03*
Y0247D03*
Y0252D03*
Y0257D03*
G54D19*
X030755Y02685D03*
X030045D03*
X027245Y0299D03*
X027955D03*
X010255Y0177D03*
X009545D03*
X014545Y0219D03*
X015255D03*
X019355Y00955D03*
X018645D03*
G54D20*
X0344043Y0252D03*
X0336957D03*
X0327543Y00585D03*
X0320457D03*
X0344543Y0236D03*
X0337457D03*
X0279543Y02885D03*
X0272457D03*
X0233957Y0216D03*
X0241043D03*
X0249457D03*
X0256543D03*
X0140543Y02715D03*
X0133457D03*
X0102543Y0186D03*
X0095457D03*
X0186457Y0083D03*
X0193543D03*
G54D21*
X03215Y0323D03*
G54D22*
X0171925Y0247339D03*
Y024478D03*
Y024222D03*
Y0239661D03*
X0187075D03*
Y024222D03*
Y024478D03*
Y0247339D03*
G54D23*
X0119Y026205D03*
Y025495D03*
X0125Y030595D03*
Y031305D03*
X02645Y023945D03*
Y024655D03*
X0096Y030645D03*
Y031355D03*
G54D24*
X00955Y0248043D03*
Y0240957D03*
X0105Y0248543D03*
Y0241457D03*
X0198Y0247543D03*
Y0240457D03*
X0105Y0306457D03*
Y0313543D03*
X01565Y0309957D03*
Y0317043D03*
G54D25*
X0148Y0259225D03*
X0143D03*
X0138D03*
X0133D03*
Y0237775D03*
X0138D03*
X0143D03*
X0148D03*
G54D26*
X0250366Y0247437D03*
Y0245469D03*
Y02435D03*
Y0241532D03*
Y0239563D03*
X0233634D03*
Y0241532D03*
Y02435D03*
Y0245469D03*
Y0247437D03*
G54D27*
X0168225Y0105D03*
Y01D03*
Y0095D03*
Y009D03*
Y0085D03*
Y008D03*
Y0075D03*
Y007D03*
X0146775D03*
Y0075D03*
Y008D03*
Y0085D03*
Y009D03*
Y0095D03*
Y01D03*
Y0105D03*
G54D28*
X014Y0295484D03*
Y0323043D03*
G54D50*
X0072Y0291D03*
X0082Y0296D03*
X0072Y0301D03*
X0082Y0306D03*
X0072Y0311D03*
X0082Y0316D03*
X00715Y0224D03*
X00815Y0229D03*
X00715Y0234D03*
X00815Y0239D03*
X00715Y0244D03*
X00815Y0249D03*
X00715Y01565D03*
X00815Y01615D03*
X00715Y01665D03*
X00815Y01715D03*
X00715Y01765D03*
X00815Y01815D03*
G54D55*
X00175Y03325D02*
X00345Y03495D01*
X00175Y0062D02*
Y03325D01*
Y0062D02*
X0027Y00525D01*
Y00215D02*
X00435D01*
X0129Y03615D02*
X0136Y03545D01*
Y03495D02*
Y03545D01*
X00275Y03615D02*
X0129D01*
X00345Y03495D02*
X0126D01*
X00075Y0041D02*
X0027Y00215D01*
X00075Y0041D02*
Y03415D01*
X00275Y03615*
X0027Y0046D02*
Y00525D01*
G54D56*
X0182875Y0244625D02*
X01855D01*
X0181Y02465D02*
X0182875Y0244625D01*
X0181Y02505D02*
X0197059Y0266559D01*
X0181Y02465D02*
Y02505D01*
X0171925Y0239575D02*
X0179Y02325D01*
X0171925Y0239575D02*
Y0239661D01*
X0164Y0235D02*
Y02385D01*
X016772Y024222*
X0171925*
X0159748Y0233748D02*
Y0240748D01*
X0154Y0228D02*
X0159748Y0233748D01*
Y0240748D02*
X0166339Y0247339D01*
X0171925*
X0178Y02435D02*
X017928Y024222D01*
X0178Y02435D02*
Y02544D01*
X017928Y024222D02*
X0187075D01*
Y0247339D02*
X0197795D01*
G54D57*
X025325Y022625D02*
Y0229D01*
X02555Y023125*
Y0241*
X02495Y0231D02*
Y0239D01*
X0246Y02275D02*
X02495Y0231D01*
X0254968Y0241532D02*
X02555Y0241D01*
X024Y02175D02*
Y0219624D01*
X0234Y0225624D02*
X024Y0219624D01*
X0234Y0225624D02*
Y0238866D01*
X0246Y0222D02*
Y02275D01*
G54D58*
X0244Y02415D02*
X0246Y02435D01*
X0244Y0236D02*
Y02415D01*
X0246Y02435D02*
X02485D01*
X022D02*
X0233634D01*
X02245Y0247437D02*
X0233634D01*
X0225Y0238D02*
X0228532Y0241532D01*
X0225Y0233D02*
Y0238D01*
X0228532Y0241532D02*
X0233634D01*
X0261Y0252D02*
Y02609D01*
X0250366Y0245469D02*
X0254469D01*
X0261Y0252*
X0233634Y0238866D02*
Y0239563D01*
X0241Y0233D02*
X0244Y0236D01*
X0250366Y0241532D02*
X0254968D01*
G54D59*
X022348Y0247437D02*
X02245D01*
X0217Y0240957D02*
X022348Y0247437D01*
X0255Y0126511D02*
X0265511Y0116D01*
X0255Y0126511D02*
Y0128D01*
X01935Y02005D02*
Y02095D01*
Y02005D02*
X01955Y01985D01*
X0195Y0198D02*
X01955Y01985D01*
X0185Y02095D02*
X0203Y02275D01*
X0185Y0198D02*
Y02095D01*
X0205Y02595D02*
X0208Y02565D01*
Y0256D02*
Y02565D01*
Y0256D02*
X0208059Y0255941D01*
Y0201941D02*
Y0255941D01*
X0205Y0261D02*
X0206Y026D01*
X0195602Y0270102D02*
X01965Y0271D01*
X0195591Y0270102D02*
X0195602D01*
X0193989Y02685D02*
X0195591Y0270102D01*
X0197059Y0266559D02*
X0255941D01*
X02565Y0266*
X0208059Y0201941D02*
X02085Y02015D01*
X0205Y0198D02*
X02085Y02015D01*
X02185Y02735D02*
X02345D01*
X0203059Y0288941D02*
X02185Y02735D01*
X0203059Y0288941D02*
Y028906D01*
X0191119Y0301D02*
X0203059Y028906D01*
X0175Y0301D02*
X0191119D01*
X00475Y0033D02*
Y00435D01*
Y0033D02*
X00695Y0011D01*
X0093989*
X009404Y0010949*
X0219449*
X02355Y0027*
Y00425*
X0249Y0056*
Y0108*
X0265511Y0116D02*
X0333D01*
X02625Y0114D02*
X02985Y0078D01*
X02375Y0114D02*
X02625D01*
X0228543Y0105043D02*
X02375Y0114D01*
X00888Y00212D02*
Y00498D01*
X0122Y0083*
X013055Y0081528D02*
Y0086311D01*
X0125712Y0081701D02*
Y0088288D01*
X01005Y0056489D02*
X0125712Y0081701D01*
X01065Y0057478D02*
X013055Y0081528D01*
X01065Y0025057D02*
Y0057478D01*
X01005Y0047654D02*
Y0056489D01*
X0122Y0083D02*
Y009D01*
X0140659Y0108659*
X0125712Y0088288D02*
X0142423Y0105D01*
X0096346Y003361D02*
Y00435D01*
X01005Y0047654*
X01308Y00882D02*
X01426Y01D01*
X01308Y0086561D02*
Y00882D01*
X013055Y0086311D02*
X01308Y0086561D01*
X0078Y00555D02*
X009Y00675D01*
X00775Y0055D02*
X0078Y00555D01*
Y0121*
X00775Y00435D02*
Y0055D01*
X00875Y01305D02*
X00915D01*
X01035Y01185*
X01065*
X0078Y0121D02*
X00875Y01305D01*
X0140659Y0108659D02*
X0151941D01*
X0142423Y0105D02*
X0146775D01*
X01426Y01D02*
X0146775D01*
X01395Y009D02*
X0146775D01*
X0134093Y0084593D02*
X01395Y009D01*
X0134093Y0053097D02*
Y0084593D01*
X0153Y00447D02*
X01581Y00498D01*
X0153Y00291D02*
Y00447D01*
X01459Y0022D02*
X0153Y00291D01*
X01065Y0025057D02*
X0113521Y0018035D01*
X0116346Y0024154D02*
Y003361D01*
Y0024154D02*
X01185Y0022D01*
X01459*
X0168225Y0105D02*
Y0109775D01*
X0189Y0105D02*
X019355Y010045D01*
X0168225Y0105D02*
X0189D01*
X02082Y0176D02*
X0225Y01928D01*
X01408Y0176D02*
X02082D01*
X01293Y01875D02*
X01408Y0176D01*
X0344543Y0236D02*
X0345195D01*
X0228543Y0059478D02*
Y0105043D01*
X02275Y0058434D02*
X0228543Y0059478D01*
X02275Y0056D02*
Y0058434D01*
X0210989Y0064416D02*
Y0113989D01*
X02191Y00622D02*
Y01121D01*
X0225Y0108D02*
X0245Y0128D01*
X0225Y0060945D02*
Y0108D01*
X01935Y00525D02*
X0216555D01*
X0206614Y00679D02*
Y0116386D01*
X0200929Y0062215D02*
X0206614Y00679D01*
X0193543Y0078757D02*
X01962Y00761D01*
X0216555Y00525D02*
X0225Y0060945D01*
X01895Y0062215D02*
X0200929D01*
X0176715Y0075D02*
X01895Y0062215D01*
X02191Y01121D02*
X0235Y0128D01*
X0210989Y0113989D02*
X0225Y0128D01*
X0186457Y0075686D02*
X0191643Y00705D01*
X0176Y007D02*
X01935Y00525D01*
X0336957Y0252D02*
X03375Y0251457D01*
Y02445D02*
Y0251457D01*
Y02445D02*
X0338D01*
X0346Y024D02*
Y0250043D01*
X0344543Y0238543D02*
X0346Y024D01*
X0344543Y0236D02*
Y0238543D01*
X0344043Y0252D02*
X0346Y0250043D01*
X03165Y0247D02*
X032115D01*
X03148Y02487D02*
X03165Y0247D01*
X03148Y02487D02*
Y0290296D01*
X0272457Y0259D02*
Y02831D01*
Y0243457D02*
Y0259D01*
X0279457Y0252*
X028385*
X00845Y0323D02*
X0089Y03185D01*
Y03085D02*
Y03185D01*
Y03085D02*
X00915Y0306D01*
X0076Y0323D02*
X00845D01*
X0072Y0319D02*
X0076Y0323D01*
X0072Y0311D02*
Y0319D01*
X00685Y0301D02*
X0072D01*
X00645Y0297D02*
X00685Y0301D01*
X00645Y02815D02*
Y0297D01*
Y02815D02*
X009105Y025495D01*
X0094793Y0251407D02*
X00955Y02507D01*
X0089582Y0251407D02*
X0094793D01*
X0084289Y02567D02*
X0089582Y0251407D01*
X00777Y02567D02*
X0084289D01*
X009105Y025495D02*
X01184D01*
X0102Y0212D02*
X0105D01*
X0095457Y0205457D02*
X0102Y0212D01*
X0095457Y0186D02*
Y0205457D01*
X0102543Y0186D02*
X01085D01*
X009305Y0306D02*
X00935Y030645D01*
X0088Y02393D02*
X011455Y021275D01*
X0083Y02485D02*
X0088Y02435D01*
Y02393D02*
Y02435D01*
X01045Y0248043D02*
X0105Y0248543D01*
X00955Y0248043D02*
X01045D01*
X01595Y03165D02*
X0175Y0301D01*
X01585Y03165D02*
X01595D01*
X0129516Y0295484D02*
X014D01*
X0125Y03D02*
X0129516Y0295484D01*
X0125Y03D02*
Y030595D01*
X0181Y02685D02*
X0193989D01*
X01565Y0244D02*
X0181Y02685D01*
X01565Y0236D02*
Y0244D01*
X01564Y0316D02*
X01579Y03175D01*
X01435Y0316D02*
X01564D01*
X013345Y030595D02*
X01435Y0316D01*
X0156Y0298D02*
Y0308D01*
Y0298D02*
X01775Y02765D01*
X0136Y03495D02*
X014Y03455D01*
Y0323043D02*
Y03455D01*
X0136543Y0323043D02*
X014D01*
X012655Y031305D02*
X0136543Y0323043D01*
X0125Y031305D02*
X012655D01*
X01645Y0095D02*
X0168225D01*
X0153Y00835D02*
X01645Y0095D01*
X0162Y0085D02*
X0168225D01*
X01581Y00811D02*
X0162Y0085D01*
X01142Y02124D02*
Y0237557D01*
X0142Y0227D02*
X0189923D01*
X0138Y0223D02*
X0142Y0227D01*
X0189923D02*
X0196461Y0233539D01*
X0175Y0207066D02*
X0198977Y0231043D01*
X01515Y0231D02*
X01565Y0236D01*
X0141Y0231D02*
X01515D01*
X0138Y0234D02*
X0141Y0231D01*
X0217Y02155D02*
Y0234173D01*
Y0240957*
X0199145Y0231043D02*
X0203315Y0235213D01*
X0198977Y0231043D02*
X0199145D01*
X0196461Y0233539D02*
Y0239062D01*
X0197856Y0240457*
X0203315Y0235213D02*
Y02454D01*
X0105Y02819D02*
X0109Y02779D01*
X0105Y02819D02*
Y0306457D01*
X0116Y0307043D02*
X01225Y0313543D01*
X0124507D02*
X0125Y031305D01*
X0105Y0313543D02*
X0124507D01*
X0116Y026505D02*
Y0307043D01*
Y026505D02*
X0119Y026205D01*
X0138Y0204237D02*
Y0223D01*
Y0204237D02*
X01545Y0187737D01*
X03263Y0252D02*
X033Y02483D01*
Y02427D02*
X03367Y0236D01*
X02615Y0271D02*
Y0272D01*
X0250366Y0259866D02*
X02615Y0271D01*
X026255Y024755D02*
X02645D01*
X026325Y02382D02*
X0265Y023645D01*
X026325Y02382D02*
X02655Y024045D01*
X026945*
X0265Y0233D02*
Y023645D01*
X026945Y024045D02*
X0272457Y0243457D01*
X02674Y025045D02*
Y03048D01*
X02645Y024755D02*
X02674Y025045D01*
X03367Y0236D02*
X0337457D01*
X0250366Y0248636D02*
Y0259866D01*
X0197795Y0247339D02*
X0198Y0247543D01*
X0138Y0234D02*
Y0237775D01*
X0149775Y0236D02*
X01565D01*
X0148Y0237775D02*
X0149775Y0236D01*
X01965Y0271D02*
Y02765D01*
X030755Y02685D02*
Y02705D01*
X029495Y02831D02*
X030755Y02705D01*
X02845Y02831D02*
X029495D01*
X0333409Y0308905D02*
Y0337095D01*
X0344Y0251957D02*
Y02595D01*
X0288Y02866D02*
Y03205D01*
X0344Y0251957D02*
X0344043Y0252D01*
X0175Y0198D02*
Y0207066D01*
X0176439Y02765D02*
X01845D01*
X0176439D02*
X01775D01*
X01184Y02474D02*
Y025495D01*
X0119*
X014197Y024203D02*
X0143Y0241D01*
X01395Y02445D02*
X014197Y024203D01*
X027955Y030225D02*
Y0307973D01*
Y0299D02*
Y030225D01*
X01782Y0098D02*
X018645D01*
X01479Y00667D02*
Y007D01*
X0108357Y0248543D02*
X01208Y02361D01*
X0105Y0248543D02*
X0108357D01*
X0066Y02385D02*
X00715Y0244D01*
X0066Y0182D02*
Y02385D01*
Y0182D02*
X00715Y01765D01*
X014197Y024203D02*
X0176439Y02765D01*
X014197Y024203D02*
X0143Y0237775D01*
X0198Y0247543D02*
X0201172D01*
X0203315Y02454*
X0279543Y02885D02*
X02844D01*
Y03098*
X02762Y0318D02*
X02844Y03098D01*
X02762Y0318D02*
Y0328D01*
X0284Y03305*
X018645Y00955D02*
Y0098D01*
X015255Y021045D02*
Y0219D01*
Y021045D02*
X0165Y0198D01*
X0277023Y03505D02*
X0284D01*
X0272023Y03455D02*
X0277023Y03505D01*
X0272023Y03155D02*
Y03455D01*
Y03155D02*
X027955Y0307973D01*
X0146775Y0095D02*
X0154D01*
X0193543Y0078757D02*
Y0083D01*
X0148Y02537D02*
Y0259225D01*
X01345Y02537D02*
X0148D01*
X01293Y02485D02*
X01345Y02537D01*
X01293Y01875D02*
Y02485D01*
X0225Y01928D02*
Y0198D01*
X0215Y01917D02*
Y0198D01*
X0211037Y0187737D02*
X0215Y01917D01*
X01545Y0187737D02*
X0211037D01*
X0197856Y0240457D02*
X0198D01*
X0105Y0241457D02*
X01103D01*
X01142Y0237557*
X0153Y00537D02*
Y00835D01*
X0224346Y00255D02*
Y003361D01*
X0213338Y0014492D02*
X0224346Y00255D01*
X0095508Y0014492D02*
X0213338D01*
X00888Y00212D02*
X0095508Y0014492D01*
X0151941Y0108659D02*
X01606Y01D01*
X0168225*
X0161846Y003361D02*
Y0077446D01*
X01644Y008*
X0168225*
X0204346Y00255D02*
Y003361D01*
X0196882Y0018035D02*
X0204346Y00255D01*
X0113521Y0018035D02*
X0196882D01*
X0133Y01957D02*
Y0237775D01*
Y01957D02*
X01461Y01826D01*
X0272457Y02831D02*
Y02885D01*
Y02831D02*
X02845D01*
X0288Y02866*
X0284Y03205D02*
X0288D01*
X030045Y024795D02*
Y02685D01*
X02895Y0237D02*
X030045Y024795D01*
X028385Y0237D02*
X02895D01*
X03215Y0296996D02*
X0333409Y0308905D01*
X03215Y0349004D02*
X0333409Y0337095D01*
X0141846Y003361D02*
Y0045344D01*
X0134093Y0053097D02*
X0141846Y0045344D01*
X01429Y00617D02*
X01479Y00667D01*
X0146775Y007D02*
X01479D01*
X01401Y00543D02*
X01437D01*
X01378Y00566D02*
X01401Y00543D01*
X01378Y00566D02*
Y00808D01*
X0142Y0085*
X0146775*
X01581Y00498D02*
Y00811D01*
X0168225Y0075D02*
X0176715D01*
X0195Y0128D02*
X0206614Y0116386D01*
X0186457Y0075686D02*
Y0083D01*
X0168225Y007D02*
X0176D01*
X032115Y0252D02*
X03263D01*
X0148Y0236D02*
Y0237775D01*
X00955Y0238D02*
Y0240957D01*
Y0238D02*
X01017Y02318D01*
X01091*
X01176Y02466D02*
X01184Y02474D01*
X010455Y026205D02*
X0119D01*
X0168225Y009D02*
X0186457D01*
Y0083D02*
Y009D01*
X0119Y026205D02*
X0122D01*
X01253Y026535*
Y02755*
X01313Y02815*
X0134543*
X0140543Y02755*
Y02715D02*
Y02755D01*
X0125Y030595D02*
X013345D01*
X0277Y03048D02*
X027955Y030225D01*
X02674Y03048D02*
X0277D01*
X019355Y00955D02*
Y010045D01*
X014545Y020755D02*
Y0219D01*
Y020755D02*
X0155Y0198D01*
X0143Y0237775D02*
Y0241D01*
X0133Y02445D02*
X01395D01*
X0133Y0237775D02*
Y02445D01*
X014Y0295484D02*
X0140016Y02955D01*
X010255Y016955D02*
Y0177D01*
X00945Y01615D02*
X010255Y016955D01*
X00815Y01615D02*
X00945D01*
X0284Y03505D02*
X0294D01*
X03215Y0323*
X00815Y01615D02*
X0087Y0167D01*
Y02335*
X00815Y0239D02*
X0087Y02335D01*
X0327543Y0052057D02*
Y00585D01*
Y0052057D02*
X0335264Y0044336D01*
X00715Y0244D02*
Y02505D01*
X00777Y02567*
X00955Y0248043D02*
Y02507D01*
X03148Y0290296D02*
X03215Y0296996D01*
X027245Y0293707D02*
Y0299D01*
Y0293707D02*
X0272457Y02937D01*
Y02885D02*
Y02937D01*
X0095457Y0181407D02*
Y0186D01*
X009545Y01814D02*
X0095457Y0181407D01*
X009545Y0177D02*
Y01814D01*
X0146775Y007D02*
Y0075D01*
Y008*
X0099207Y0313543D02*
X0105D01*
X00992Y031355D02*
X0099207Y0313543D01*
X0096Y031355D02*
X00992D01*
X0140543Y0266543D02*
Y02715D01*
X0138Y0264D02*
X0140543Y0266543D01*
X0138Y0259225D02*
Y0264D01*
X032115Y0237D02*
Y0242D01*
Y0232D02*
Y0237D01*
Y0222D02*
Y0227D01*
Y0232*
X02895Y0237D02*
X032115D01*
X028385Y0232D02*
Y0237D01*
Y0227D02*
Y0232D01*
X0133457Y0265557D02*
Y02715D01*
X0133Y02651D02*
X0133457Y0265557D01*
X0133Y0259225D02*
Y02651D01*
X00915Y0306D02*
X009305D01*
X0099207Y0306457D02*
X0105D01*
X00992Y030645D02*
X0099207Y0306457D01*
X00935Y030645D02*
X00992D01*
X03315Y0252D02*
X0336957D01*
X03265Y0257D02*
X03315Y0252D01*
X032115Y0257D02*
X03265D01*
X0320457Y0048698D02*
Y00585D01*
X0315559Y00438D02*
X0320457Y0048698D01*
X0315559Y0034083D02*
Y00438D01*
X03405Y0078D02*
Y009D01*
X028385Y0222D02*
Y0227D01*
X0308Y0109D02*
X0342D01*
X033Y02427D02*
Y0244D01*
Y02483*
X0345195Y0236D02*
X03555Y0225695D01*
X0354Y0052319D02*
Y013D01*
X0241043Y0216D02*
X0249957D01*
X0259Y0244D02*
X026255Y024755D01*
X0217Y02155D02*
X0224Y02085D01*
X0227757Y02165D02*
X0231957D01*
X0224Y02085D02*
X02545D01*
X0259Y0213*
Y0244*
X01143Y0201D02*
X01208Y02075D01*
X0164Y0114D02*
X0168225Y0109775D01*
X01208Y02075D02*
Y02361D01*
X02645Y0104D02*
X031Y00585D01*
X0320457*
X02635Y0103D02*
X02645Y0104D01*
X0263Y0103D02*
X02635D01*
X01143Y01197D02*
Y0201D01*
Y01197D02*
X012Y0114D01*
X0164*
X01275Y01195D02*
X01705D01*
X01782Y01118*
X02985Y0078D02*
X03405D01*
X0333Y0116D02*
X03515Y01345D01*
Y0163*
X03495Y0165D02*
X03515Y0163D01*
X0359559Y0076953D02*
X0368984Y0067528D01*
X0345642Y00245D02*
X0369083Y0047941D01*
X0305457Y00245D02*
X0345642D01*
X0295972Y0033984D02*
X0305457Y00245D01*
X0335264Y0033583D02*
Y0034083D01*
Y0044336*
Y0033583D02*
X0354Y0052319D01*
X02575Y02185D02*
X02585Y02195D01*
X028135D02*
X028385Y0222D01*
X02585Y02195D02*
X028135D01*
X0275Y0198D02*
X0285Y0208D01*
X0255Y0198D02*
X02725Y02155D01*
X0358*
X0278543Y0211543D02*
X0352957D01*
X0265Y0198D02*
X0278543Y0211543D01*
X0285Y0208D02*
X0346D01*
X03475Y01965D02*
Y0197D01*
X0359559Y0184941*
Y0076953D02*
Y0184941D01*
X037361Y0097654D02*
X0392941Y0116984D01*
Y0180559*
X0358Y02155D02*
X0392941Y0180559D01*
X037361Y0117654D02*
X0389Y0133043D01*
Y01755*
X0352957Y0211543D02*
X0389Y01755D01*
X0346Y0208D02*
X0385Y0169D01*
Y0153543D02*
Y0169D01*
X037411Y0142654D02*
X0385Y0153543D01*
X00815Y01615D02*
X00875Y01555D01*
Y01305D02*
Y01555D01*
X0226857Y02174D02*
X0227757Y02165D01*
X02257Y02174D02*
X0226857D01*
X00275Y00855D02*
X0082Y014D01*
X00275Y0052D02*
Y00855D01*
X0027Y0046D02*
X00275Y00455D01*
Y00435D02*
Y00455D01*
G54D60*
X01865Y03355D03*
X0186Y00265D03*
G54D61*
X0284Y03505D03*
Y03405D03*
Y03305D03*
Y03205D03*
G54D62*
X0365583Y0050941D03*
X0365484Y0070527D03*
G54D63*
X0365583Y0031236D03*
G54D64*
X03215Y0296996D03*
Y0349004D03*
G54D65*
X01065Y01285D03*
Y01185D03*
X03405Y01D03*
Y009D03*
Y0068D03*
Y0078D03*
X01845Y02865D03*
Y02765D03*
X01965Y02865D03*
Y02765D03*
G54D66*
X037261Y0097654D03*
X037211Y0142654D03*
G54D67*
X037261Y0117654D03*
X037211Y0162654D03*
G54D68*
X00375Y00435D03*
X00275D03*
X00475D03*
X00575D03*
X00675D03*
X00775D03*
G54D69*
X0096346Y003361D03*
X0248846Y003311D03*
X0204346Y003361D03*
X0141846D03*
G54D70*
X0116346Y003361D03*
X0268846Y003311D03*
X0224346Y003361D03*
X0161846D03*
G54D71*
X0295972Y0033984D03*
X0315559Y0034083D03*
G54D72*
X0335264Y0034083D03*
G54D73*
X0136Y03495D03*
G54D74*
X0126Y03495D03*
G54D75*
X0032Y02835D03*
Y03235D03*
X00315Y02165D03*
Y02565D03*
Y0149D03*
Y0189D03*
G54D76*
X0285Y0198D03*
X0275D03*
X0265D03*
X0255D03*
X0245D03*
X0235D03*
X0225D03*
X0215D03*
X0205D03*
X0195D03*
X0185D03*
X0175D03*
X0165D03*
X0285Y0128D03*
X0275D03*
X0265D03*
X0255D03*
X0245D03*
X0235D03*
X0225D03*
X0215D03*
X0205D03*
X0195D03*
X0185D03*
X0175D03*
X0165D03*
X0155Y0198D03*
G54D77*
X0155Y0128D03*
G54D78*
X0093Y01165D03*
G54D79*
X0093Y01065D03*
Y00965D03*
Y00865D03*
Y00765D03*
Y00665D03*
G54D80*
X01935Y02095D03*
X0205Y0261D03*
X02345Y02735D03*
X0249Y0108D03*
X02275Y0056D03*
X01906Y00712D03*
X0210989Y0064416D03*
X02191Y00622D03*
X01962Y00761D03*
X0338Y02445D03*
X033Y0244D03*
X01085Y0186D03*
X0105Y0212D03*
X0217Y0234173D03*
X0179Y02325D03*
X0203Y02275D03*
X0109Y02779D03*
X0165Y0237D03*
X0225Y0233D03*
X0261Y02609D03*
X02615Y0272D03*
X0178Y02544D03*
X0265Y0233D03*
X03435Y0261D03*
X01782Y0098D03*
X0154Y0095D03*
X01142Y02124D03*
X02257Y02174D03*
X0153Y00537D03*
X01461Y01826D03*
X01429Y00617D03*
X01437Y00543D03*
X01091Y02318D03*
X01176Y02466D03*
X010455Y026205D03*
X0308Y011D03*
X03415Y0109D03*
X03545Y0226D03*
Y013D03*
X0241Y0233D03*
X02455Y0223D03*
X0253Y02275D03*
X0263Y0103D03*
X0127Y012D03*
X01785Y0113D03*
X03505Y01655D03*
X03475Y01965D03*
X00435Y00215D03*
X0082Y014D03*
M02*