%FSTAX25Y25*%
%MOIN*%
%SFA1B1*%

%IPPOS*%
%ADD18R,0.074000X0.021000*%
%ADD19R,0.044000X0.057000*%
%ADD20R,0.047240X0.055120*%
%ADD21R,0.159840X0.159840*%
%ADD22R,0.041500X0.014000*%
%ADD23R,0.057000X0.044000*%
%ADD24R,0.055120X0.047240*%
%ADD25R,0.022000X0.057500*%
%ADD26O,0.045280X0.009840*%
%ADD27R,0.057500X0.022000*%
%ADD28R,0.062990X0.062990*%
%LNmulti-sensor_datalogger-1*%
%LPD*%
G54D18*
X028385Y0257D03*
Y0252D03*
Y0247D03*
Y0242D03*
Y0237D03*
Y0232D03*
Y0227D03*
Y0222D03*
X032115D03*
Y0227D03*
Y0232D03*
Y0237D03*
Y0242D03*
Y0247D03*
Y0252D03*
Y0257D03*
G54D19*
X030755Y02685D03*
X030045D03*
X027245Y0299D03*
X027955D03*
X010255Y0177D03*
X009545D03*
X014545Y0219D03*
X015255D03*
X019355Y00955D03*
X018645D03*
G54D20*
X0344043Y0252D03*
X0336957D03*
X0327543Y00585D03*
X0320457D03*
X0344543Y0236D03*
X0337457D03*
X0279543Y02885D03*
X0272457D03*
X0233957Y0216D03*
X0241043D03*
X0249457D03*
X0256543D03*
X0140543Y02715D03*
X0133457D03*
X0102543Y0186D03*
X0095457D03*
X0186457Y0083D03*
X0193543D03*
G54D21*
X03215Y0323D03*
G54D22*
X0171925Y0247339D03*
Y024478D03*
Y024222D03*
Y0239661D03*
X0187075D03*
Y024222D03*
Y024478D03*
Y0247339D03*
G54D23*
X0119Y026205D03*
Y025495D03*
X0125Y030595D03*
Y031305D03*
X02645Y023945D03*
Y024655D03*
X0096Y030645D03*
Y031355D03*
G54D24*
X00955Y0248043D03*
Y0240957D03*
X0105Y0248543D03*
Y0241457D03*
X0198Y0247543D03*
Y0240457D03*
X0105Y0306457D03*
Y0313543D03*
X01565Y0309957D03*
Y0317043D03*
G54D25*
X0148Y0259225D03*
X0143D03*
X0138D03*
X0133D03*
Y0237775D03*
X0138D03*
X0143D03*
X0148D03*
G54D26*
X0250366Y0247437D03*
Y0245469D03*
Y02435D03*
Y0241532D03*
Y0239563D03*
X0233634D03*
Y0241532D03*
Y02435D03*
Y0245469D03*
Y0247437D03*
G54D27*
X0168225Y0105D03*
Y01D03*
Y0095D03*
Y009D03*
Y0085D03*
Y008D03*
Y0075D03*
Y007D03*
X0146775D03*
Y0075D03*
Y008D03*
Y0085D03*
Y009D03*
Y0095D03*
Y01D03*
Y0105D03*
G54D28*
X014Y0295484D03*
Y0323043D03*
M02*