%FSTAX25Y25*%
%MOIN*%
%SFA1B1*%

%IPPOS*%
%AMD65*
4,1,8,-0.025000,-0.030000,0.025000,-0.030000,0.040000,-0.015000,0.040000,0.015000,0.025000,0.030000,-0.025000,0.030000,-0.040000,0.015000,-0.040000,-0.015000,-0.025000,-0.030000,0.0*
%
%AMD68*
4,1,8,0.030000,-0.025000,0.030000,0.025000,0.015000,0.040000,-0.015000,0.040000,-0.030000,0.025000,-0.030000,-0.025000,-0.015000,-0.040000,0.015000,-0.040000,0.030000,-0.025000,0.0*
%
%ADD50C,0.058000*%
%ADD55C,0.047240*%
%ADD59C,0.019680*%
%ADD60C,0.118110*%
%ADD61O,0.102990X0.051500*%
%ADD62O,0.110240X0.102360*%
%ADD63O,0.110240X0.094490*%
%ADD64C,0.105120*%
G04~CAMADD=65~4~0.0~0.0~800.0~600.0~0.0~150.0~0~0.0~0.0~0.0~0.0~0~0.0~0.0~0.0~0.0~0~0.0~0.0~0.0~180.0~800.0~600.0*
%ADD65D65*%
%ADD66R,0.157480X0.098430*%
%ADD67O,0.157480X0.098430*%
G04~CAMADD=68~4~0.0~0.0~800.0~600.0~0.0~150.0~0~0.0~0.0~0.0~0.0~0~0.0~0.0~0.0~0.0~0~0.0~0.0~0.0~270.0~600.0~800.0*
%ADD68D68*%
%ADD69O,0.098430X0.157480*%
%ADD70R,0.098430X0.157480*%
%ADD71O,0.102360X0.110240*%
%ADD72O,0.094490X0.110240*%
%ADD73R,0.066930X0.066930*%
%ADD74C,0.066930*%
%ADD75C,0.131000*%
%ADD76C,0.059060*%
%ADD77R,0.059060X0.059060*%
%ADD78R,0.059060X0.059060*%
%ADD79C,0.059060*%
%ADD80C,0.050000*%
%LNmulti-sensor_datalogger-1*%
%LPD*%
G54D50*
X0072Y0291D03*
X0082Y0296D03*
X0072Y0301D03*
X0082Y0306D03*
X0072Y0311D03*
X0082Y0316D03*
X00715Y0224D03*
X00815Y0229D03*
X00715Y0234D03*
X00815Y0239D03*
X00715Y0244D03*
X00815Y0249D03*
X00715Y01565D03*
X00815Y01615D03*
X00715Y01665D03*
X00815Y01715D03*
X00715Y01765D03*
X00815Y01815D03*
G54D55*
X00435Y00215D02*
X0069D01*
X00775Y003*
Y00435*
G54D59*
X01906Y02124D02*
X01935Y02095D01*
X01142Y02124D02*
X01906D01*
X0112Y02225D02*
X0200845D01*
X0105Y02155D02*
X0112Y02225D01*
X0200845D02*
X0200904Y0222441D01*
X01935Y02095D02*
Y02105D01*
X0133Y0096D02*
X0165Y0128D01*
X0093Y0096D02*
X0133D01*
X02745Y03305D02*
X0284D01*
X025475Y031075D02*
X02745Y03305D01*
X0205Y0261D02*
X025475Y031075D01*
X0178Y02544D02*
X0208245D01*
X0244Y02785D02*
X02613Y02612D01*
X0236655Y02785D02*
X0244D01*
X0232404Y0278559D02*
X0236596D01*
X0208245Y02544D02*
X0232404Y0278559D01*
X0236596D02*
X0236655Y02785D01*
X02345Y02735D02*
X0235543Y0272457D01*
Y0198D02*
Y0272457D01*
X0259Y01015D02*
X02615Y0104D01*
X02315Y01015D02*
X0259D01*
X0205Y0128D02*
X02315Y01015D01*
X0235Y0108D02*
X02485D01*
X0215Y0128D02*
X0235Y0108D01*
X0107Y006D02*
X0175Y0128D01*
X0079Y00965D02*
X009Y01075D01*
X0079Y00655D02*
Y00965D01*
Y00655D02*
X00845Y006D01*
X0107*
X0057Y0047D02*
X0063602Y0053602D01*
X0073059Y0050059D02*
X012107D01*
X0137911Y00669D02*
X0164046D01*
X012107Y0050059D02*
X0137911Y00669D01*
X01386Y00726D02*
X01792D01*
X0119602Y0053602D02*
X01386Y00726D01*
X0063602Y0053602D02*
X0119602D01*
X0067Y0044D02*
X0073059Y0050059D01*
X01267Y00455D02*
X01429Y00617D01*
X00825Y00455D02*
X01267D01*
X029775Y011925D02*
Y012825D01*
X02905Y01355D02*
X029775Y012825D01*
X0266Y01355D02*
X02905D01*
X01906Y00712D02*
X0190759Y0071041D01*
X0190599Y0046901D02*
X0289571D01*
X0187384Y0064416D02*
X0210989D01*
X0214741Y0057841D02*
X02191Y00622D01*
X0173105Y0057841D02*
X0214741D01*
X01792Y00726D02*
X0187384Y0064416D01*
X0219459Y0071041D02*
X02275Y0063D01*
X0183203Y0054298D02*
X0190599Y0046901D01*
X0165592Y0054298D02*
X0183203D01*
X0190759Y0071041D02*
X0219459D01*
X02275Y0056D02*
Y0063D01*
X0164046Y00669D02*
X0173105Y0057841D01*
X01821Y00492D02*
X01956Y00357D01*
X0164359Y00492D02*
X01821D01*
X0275Y00995D02*
Y0128D01*
X0265Y01345D02*
X0266Y01355D01*
X0265Y0128D02*
Y01345D01*
X0319Y0278D02*
X0338Y0259D01*
Y02445D02*
Y0259D01*
X0105Y0212D02*
Y02155D01*
X0272659Y0272559D02*
X0314941D01*
X02613Y02612D02*
X0272659Y0272559D01*
X0314941D02*
X033Y02575D01*
X02675Y0278D02*
X0319D01*
X02615Y0272D02*
X02675Y0278D01*
X0106Y01295D02*
X01135Y0137D01*
X0176D02*
X0185Y0128D01*
X01135Y0137D02*
X0176D01*
X0215386Y0232559D02*
X0217Y0234173D01*
X0179059Y0232559D02*
X0215386D01*
X0179Y02325D02*
X0179059Y0232559D01*
X0215941Y0222441D02*
X0226Y02325D01*
X0200904Y0222441D02*
X0215941D01*
X0178441Y0231941D02*
X0179Y02325D01*
X0116114Y0231941D02*
X0178441D01*
X0109055Y0239D02*
X0116114Y0231941D01*
X00815Y0239D02*
X0109055D01*
X01606Y02036D02*
X02119D01*
X0155Y0198D02*
X01606Y02036D01*
X0113519Y0227328D02*
X0194265Y0226847D01*
X01091Y02318D02*
X0113519Y0227328D01*
X0217Y0233345D02*
Y0234173D01*
X0216555Y02329D02*
X0217Y0233345D01*
X0201611Y02275D02*
X0203D01*
X0200611Y02265D02*
X0201611Y02275D01*
X0200265Y0226847D02*
X0200611Y02265D01*
X02119Y02036D02*
X02257Y02174D01*
X0194265Y0226847D02*
X0200265D01*
X0109Y0278D02*
X0112541Y0274459D01*
Y0244504D02*
Y0274459D01*
Y0244504D02*
X0120045Y0237D01*
X0165*
X0226Y02325D02*
Y0233D01*
X0261Y02609D02*
X02613Y02612D01*
X02645Y02335D02*
X0265Y0233D01*
X02872Y03573D02*
X0292Y03525D01*
Y0325D02*
Y03525D01*
X02875Y03205D02*
X0292Y0325D01*
X0284Y03205D02*
X02875D01*
X0284D02*
X03435Y0261D01*
X00978Y02218D02*
X0108Y0232D01*
X0136595Y00545D02*
X0144397Y0062303D01*
X01357Y00545D02*
X0136595D01*
X02438Y00332D02*
X0248846D01*
X025742Y03573D02*
X02872D01*
X01965Y029638D02*
X025742Y03573D01*
X01965Y02865D02*
Y029638D01*
X0144397Y0062303D02*
X0161603D01*
Y0058287D02*
Y0062303D01*
X0289571Y0046901D02*
X0295972Y00405D01*
Y0033984D02*
Y00405D01*
X0155779Y0188779D02*
X0165Y0198D01*
X00815Y01715D02*
X0096Y0186D01*
X01085*
X0268846Y00205D02*
Y003311D01*
X0266346Y0018D02*
X0268846Y00205D01*
X016Y0018D02*
X0266346D01*
X0153Y0025D02*
X016Y0018D01*
X0153Y0025D02*
Y00537D01*
X00765Y01615D02*
X00815D01*
X00715Y01665D02*
X00765Y01615D01*
X01461Y01826D02*
X01596D01*
X0175Y0198*
X0248846Y003311D02*
Y00332D01*
X02337Y00231D02*
X02438Y00332D01*
X01995Y00231D02*
X02337D01*
X01956Y0027D02*
X01995Y00231D01*
X01956Y0027D02*
Y00357D01*
X0158059Y00555D02*
X0164359Y00492D01*
X0158059Y00555D02*
Y0058759D01*
X0148159D02*
X0158059D01*
X01437Y00543D02*
X0148159Y0058759D01*
X01412Y0198D02*
X0155D01*
X00737Y02218D02*
X00978D01*
X00715Y0224D02*
X00737Y02218D01*
X01176Y02466D02*
Y02646D01*
X01295Y02765*
X01845*
X00815Y0239D02*
X010455Y026205D01*
X00715Y0244D02*
Y02497D01*
X01083Y02865*
X01845*
X01965*
X029775Y011925D02*
X0308Y0109D01*
X0235Y0198D02*
X0235543D01*
X03195Y00755D02*
Y01015D01*
Y00755D02*
X0327Y0068D01*
X03405*
X0336441Y0110941D02*
Y0111095D01*
X03315Y0106D02*
X0336441Y0110941D01*
X03315Y01015D02*
Y0106D01*
Y01015D02*
X0333Y01D01*
X03405*
X0338Y02445D02*
X0351D01*
X0285Y0198D02*
X0294Y0207D01*
X0334989*
X033Y0243D02*
Y0244D01*
Y02575*
X0342Y0109D02*
X03605Y01275D01*
Y0235*
X0351Y02445D02*
X03605Y0235D01*
X0264Y0233D02*
X02645Y02335D01*
X0241Y0233D02*
X0264D01*
X02495Y02125D02*
X03345D01*
X02455Y02165D02*
Y0223D01*
Y02165D02*
X02495Y02125D01*
X0143279Y0188779D02*
X0155779D01*
X02615Y0104D02*
X02625Y0103D01*
X0263*
X0103Y01175D02*
X0104Y01185D01*
X00965Y0124D02*
X0103Y01175D01*
X00965Y0124D02*
Y0142D01*
X0143279Y0188779*
X0104Y01185D02*
X01065D01*
X01782Y0098D02*
Y01118D01*
X0108Y012D02*
X0127D01*
X01065Y01185D02*
X0108Y012D01*
X0057Y0046D02*
Y0047D01*
X026725Y009175D02*
X0275Y00995D01*
X0154Y0095D02*
X0157Y0092D01*
X0267*
X0285Y01025D02*
Y0128D01*
X01962Y00761D02*
X02076Y00875D01*
X027*
X0285Y01025*
X0253Y02275D02*
X0327957D01*
X03195Y01015D02*
X03375Y01195D01*
Y0204489*
X0334989Y0207D02*
X03375Y0204489D01*
X0336441Y0111095D02*
X0342Y0116655D01*
Y0205*
X03345Y02125D02*
X0342Y0205D01*
X03505Y01655D02*
Y0167D01*
X0327957Y02275D02*
X0347Y0208457D01*
Y0199D02*
Y0208457D01*
X034111Y0028236D02*
X0369083D01*
X0356102Y0130602D02*
Y0225093D01*
X0352559Y0169059D02*
Y0220441D01*
X03505Y0167D02*
X0352559Y0169059D01*
X033Y0243D02*
X0352559Y0220441D01*
X03555Y013D02*
X0356102Y0130602D01*
X03555Y0225695D02*
X0356102Y0225093D01*
X037211Y0162654D02*
X0389Y0145764D01*
Y0063358D02*
Y0145764D01*
X0374642Y0049D02*
X0389Y0063358D01*
X0335264Y0034083D02*
X034111Y0028236D01*
X0365Y0049D02*
X0374642D01*
X0161603Y0058287D02*
X0165592Y0054298D01*
X0079Y0042D02*
X00825Y00455D01*
X00827Y01395D02*
X01412Y0198D01*
G54D60*
X01865Y03355D03*
X0186Y00265D03*
G54D61*
X0284Y03505D03*
Y03405D03*
Y03305D03*
Y03205D03*
G54D62*
X0365583Y0050941D03*
X0365484Y0070527D03*
G54D63*
X0365583Y0031236D03*
G54D64*
X03215Y0296996D03*
Y0349004D03*
G54D65*
X01065Y01285D03*
Y01185D03*
X03405Y01D03*
Y009D03*
Y0068D03*
Y0078D03*
X01845Y02865D03*
Y02765D03*
X01965Y02865D03*
Y02765D03*
G54D66*
X037261Y0097654D03*
X037211Y0142654D03*
G54D67*
X037261Y0117654D03*
X037211Y0162654D03*
G54D68*
X00375Y00435D03*
X00275D03*
X00475D03*
X00575D03*
X00675D03*
X00775D03*
G54D69*
X0096346Y003361D03*
X0248846Y003311D03*
X0204346Y003361D03*
X0141846D03*
G54D70*
X0116346Y003361D03*
X0268846Y003311D03*
X0224346Y003361D03*
X0161846D03*
G54D71*
X0295972Y0033984D03*
X0315559Y0034083D03*
G54D72*
X0335264Y0034083D03*
G54D73*
X0136Y03495D03*
G54D74*
X0126Y03495D03*
G54D75*
X0032Y02835D03*
Y03235D03*
X00315Y02165D03*
Y02565D03*
Y0149D03*
Y0189D03*
G54D76*
X0285Y0198D03*
X0275D03*
X0265D03*
X0255D03*
X0245D03*
X0235D03*
X0225D03*
X0215D03*
X0205D03*
X0195D03*
X0185D03*
X0175D03*
X0165D03*
X0285Y0128D03*
X0275D03*
X0265D03*
X0255D03*
X0245D03*
X0235D03*
X0225D03*
X0215D03*
X0205D03*
X0195D03*
X0185D03*
X0175D03*
X0165D03*
X0155Y0198D03*
G54D77*
X0155Y0128D03*
G54D78*
X0093Y01165D03*
G54D79*
X0093Y01065D03*
Y00965D03*
Y00865D03*
Y00765D03*
Y00665D03*
G54D80*
X01935Y02095D03*
X0205Y0261D03*
X02345Y02735D03*
X0249Y0108D03*
X02275Y0056D03*
X01906Y00712D03*
X0210989Y0064416D03*
X02191Y00622D03*
X01962Y00761D03*
X0338Y02445D03*
X033Y0244D03*
X01085Y0186D03*
X0105Y0212D03*
X0217Y0234173D03*
X0179Y02325D03*
X0203Y02275D03*
X0109Y02779D03*
X0165Y0237D03*
X0225Y0233D03*
X0261Y02609D03*
X02615Y0272D03*
X0178Y02544D03*
X0265Y0233D03*
X03435Y0261D03*
X01782Y0098D03*
X0154Y0095D03*
X01142Y02124D03*
X02257Y02174D03*
X0153Y00537D03*
X01461Y01826D03*
X01429Y00617D03*
X01437Y00543D03*
X01091Y02318D03*
X01176Y02466D03*
X010455Y026205D03*
X0308Y011D03*
X03415Y0109D03*
X03545Y0226D03*
Y013D03*
X0241Y0233D03*
X02455Y0223D03*
X0253Y02275D03*
X0263Y0103D03*
X0127Y012D03*
X01785Y0113D03*
X03505Y01655D03*
X03475Y01965D03*
X00435Y00215D03*
X0082Y014D03*
M02*