%FSTAX25Y25*%
%MOIN*%
%SFA1B1*%

%IPPOS*%
%ADD10C,0.005000*%
%ADD11C,0.020000*%
%ADD12C,0.007870*%
%ADD13C,0.010000*%
%ADD14C,0.006000*%
%ADD15C,0.003000*%
%ADD16R,0.020000X0.020000*%
%ADD17R,0.055120X0.116140*%
%LNmulti-sensor_datalogger-1*%
%LPD*%
G36*
X01721Y007575D02*
X01731D01*
Y007425*
X01721*
Y007575*
G37*
G36*
X032585Y022775D02*
X032685D01*
Y022625*
X032585*
Y022775*
G37*
G54D10*
X0342051Y0337961D02*
X034292Y0338408D01*
X0343694Y0339005*
X0344346Y0339734*
X0344855Y0340568*
X0345204Y0341481*
X0345381Y0342442*
Y034342*
X0345204Y0344381*
X0344855Y0345294*
X0344346Y0346129*
X0343694Y0346857*
X034292Y0347454*
X0342051Y0347902*
Y0337961D02*
X0341196Y0337433D01*
X0340373Y0336857*
X0339584Y0336233*
X0338834Y0335565*
X0338123Y0334855*
X0337455Y0334104*
X0336832Y0333316*
X0336256Y0332493*
X0335728Y0331638*
X0335251Y0330753*
X0334826Y0329842*
X0334455Y0328908*
X0334139Y0327955*
X0333879Y0326984*
X0333676Y0326*
X033353Y0325006*
X0333443Y0324005*
X0333414Y0323*
X0333443Y0321996*
X033353Y0320994*
X0333676Y032*
X0333879Y0319016*
X0334139Y0318045*
X0334455Y0317092*
X0334826Y0316158*
X0335251Y0315247*
X0335728Y0314363*
X0336256Y0313507*
X0336832Y0312684*
X0337455Y0311896*
X0338123Y0311145*
X0338834Y0310435*
X0339584Y0309767*
X0340373Y0309143*
X0341196Y0308567*
X0342051Y0308039*
Y0298098D02*
X034292Y0298546D01*
X0343694Y0299143*
X0344346Y0299871*
X0344855Y0300706*
X0345204Y0301619*
X0345381Y030258*
Y0303558*
X0345204Y0304519*
X0344855Y0305432*
X0344346Y0306266*
X0343694Y0306995*
X034292Y0307592*
X0342051Y0308039*
X0330378Y0347902D02*
X0342051D01*
X0330378Y0298098D02*
X0342051D01*
X0309D02*
X0312622D01*
X0297602Y0307252D02*
X0309Y0298098D01*
X0297602Y0307252D02*
Y0338748D01*
X0309Y0347902*
X0312622*
X0327425Y0342685D02*
X0332425D01*
X0329925Y0340185D02*
Y0345185D01*
X0328213Y0304378D02*
X0333213D01*
X0330713Y0301878D02*
Y0306878D01*
X0306244Y0320303D02*
Y0325303D01*
G54D11*
X00835Y0342D02*
X0083149Y0342964D01*
X0082261Y0343477*
X008125Y0343299*
X008059Y0342513*
Y0341487*
X008125Y0340701*
X0082261Y0340523*
X0083149Y0341036*
X00835Y0342*
X0083Y0275D02*
X0082649Y0275964D01*
X0081761Y0276477*
X008075Y0276299*
X008009Y0275513*
Y0274487*
X008075Y0273701*
X0081761Y0273523*
X0082649Y0274036*
X0083Y0275*
Y02075D02*
X0082649Y0208464D01*
X0081761Y0208977*
X008075Y0208799*
X008009Y0208013*
Y0206987*
X008075Y0206201*
X0081761Y0206023*
X0082649Y0206536*
X0083Y02075*
G54D12*
X0320394Y012363D02*
X0321401Y0123675D01*
X0322403Y0123797*
X0323391Y0123996*
X0324362Y0124271*
X0325308Y012462*
X0326225Y0125041*
X0327106Y0125532*
X0327948Y0126089*
X0328743Y0126708*
X0329489Y0127388*
X0330179Y0128123*
X0330812Y0128909*
X0331381Y0129742*
X0331885Y0130616*
X0332319Y0131526*
X0332683Y0132467*
X0332973Y0133433*
X0333187Y0134419*
X0333324Y0135418*
X0333385Y0136425*
X0333151Y0189377D02*
X0333109Y0190353D01*
X0332994Y0191324*
X0332806Y0192284*
X0332548Y0193226*
X0332219Y0194147*
X0331823Y0195041*
X0331361Y0195903*
X0330836Y0196727*
X0330251Y019751*
X0329608Y0198248*
X0328913Y0198935*
X0328168Y0199568*
X0327378Y0200144*
X0326547Y0200659*
X032568Y020111*
X0324782Y0201496*
X0323857Y0201813*
X0322911Y020206*
X0321949Y0202236*
X0320977Y020234*
X032Y020237*
X0116839Y0160597D02*
X0117871Y0160844D01*
X0118696Y0161511*
X0119153Y0162469*
Y0163531*
X0118696Y0164489*
X0117871Y0165156*
X0116839Y0165403*
X011685Y0136622D02*
X0116898Y0135602D01*
X0117025Y0134589*
X0117232Y0133588*
X0117515Y0132607*
X0117874Y0131651*
X0118307Y0130726*
X0118811Y0129838*
X0119382Y0128991*
X0120018Y0128192*
X0120714Y0127445*
X0121467Y0126754*
X0122271Y0126125*
X0123122Y012556*
X0124014Y0125063*
X0124942Y0124638*
X0125901Y0124286*
X0126884Y012401*
X0127886Y0123812*
X01289Y0123692*
X0129921Y0123652*
X0129575Y0202316D02*
X0128575Y0202252D01*
X0127582Y020211*
X0126603Y0201893*
X0125644Y0201602*
X012471Y0201237*
X0123806Y0200803*
X0122939Y02003*
X0122112Y0199732*
X0121332Y0199103*
X0120601Y0198415*
X0119926Y0197674*
X011931Y0196883*
X0118756Y0196047*
X0118268Y0195172*
X0117848Y0194261*
X01175Y0193321*
X0117224Y0192357*
X0117024Y0191374*
X0116899Y019038*
X011685Y0189378*
X03405Y0249638D02*
Y0254362D01*
X0324Y0056138D02*
Y0060862D01*
X0341Y0233638D02*
Y0238362D01*
X0276Y0286138D02*
Y0290862D01*
X02375Y0213638D02*
Y0218362D01*
X0253Y0213638D02*
Y0218362D01*
X0137Y0269138D02*
Y0273862D01*
X0093138Y02445D02*
X0097862D01*
X0102638Y0245D02*
X0107362D01*
X0195638Y0244D02*
X0200362D01*
X0102638Y031D02*
X0107362D01*
X0231567Y0249602D02*
X0245543D01*
X0238457Y0237398D02*
X0245543D01*
X0129449Y012363D02*
X0321181D01*
X0333228Y0136228D02*
Y0189772D01*
X0129449Y020237D02*
X0321707D01*
X0116811Y0136228D02*
Y0160638D01*
Y0165362D02*
Y0189788D01*
X0099Y0183638D02*
Y0188362D01*
X019Y0080638D02*
Y0085362D01*
X0088Y00615D02*
X0098D01*
X0088Y01215D02*
X0098D01*
Y00615D02*
Y01215D01*
X0088Y00615D02*
Y01215D01*
X0154138Y03135D02*
X0158862D01*
X0243911Y001618D02*
X0243255Y0016836D01*
X0241943*
X0241287Y001618*
Y0015524*
X0241943Y0014868*
X0243255*
X0243911Y0014212*
Y0013556*
X0243255Y00129*
X0241943*
X0241287Y0013556*
X0245879Y00129D02*
X0247191D01*
X0247847Y0013556*
Y0014868*
X0247191Y0015524*
X0245879*
X0245223Y0014868*
Y0013556*
X0245879Y00129*
X0249159D02*
X0250471D01*
X0249815*
Y0015524*
X0249159*
X0252439Y00129D02*
X0253751D01*
X0253095*
Y0016836*
X0252439*
X0241287Y0006287D02*
Y0010223D01*
X0242599Y0008911*
X0243911Y0010223*
Y0006287*
X0245879D02*
X0247191D01*
X0247847Y0006943*
Y0008255*
X0247191Y0008911*
X0245879*
X0245223Y0008255*
Y0006943*
X0245879Y0006287*
X0249159D02*
X0250471D01*
X0249815*
Y0008911*
X0249159*
X0252439Y0006287D02*
X0254406D01*
X0255063Y0006943*
X0254406Y0007599*
X0253095*
X0252439Y0008255*
X0253095Y0008911*
X0255063*
X025703Y0009567D02*
Y0008911D01*
X0256374*
X0257686*
X025703*
Y0006943*
X0257686Y0006287*
X0259654Y0008911D02*
Y0006943D01*
X026031Y0006287*
X0262278*
Y0008911*
X026359D02*
Y0006287D01*
Y0007599*
X0264246Y0008255*
X0264902Y0008911*
X0265558*
X0269494Y0006287D02*
X0268182D01*
X0267526Y0006943*
Y0008255*
X0268182Y0008911*
X0269494*
X0270149Y0008255*
Y0007599*
X0267526*
X0275397Y0006287D02*
X0276709D01*
X0276053*
Y0010223*
X0275397Y0009567*
X0334287Y0010787D02*
Y0014723D01*
X0336255*
X0336911Y0014067*
Y0012755*
X0336255Y0012099*
X0334287*
X0335599D02*
X0336911Y0010787D01*
X0340191D02*
X0338879D01*
X0338223Y0011443*
Y0012755*
X0338879Y0013411*
X0340191*
X0340847Y0012755*
Y0012099*
X0338223*
X0344783Y0014723D02*
Y0010787D01*
X0342815*
X0342159Y0011443*
Y0012755*
X0342815Y0013411*
X0344783*
X0302787Y00954D02*
Y0098024D01*
X0304099Y0099336*
X0305411Y0098024*
Y00954*
Y0097368*
X0302787*
X0306723Y0099336D02*
Y00954D01*
X0308691*
X0309347Y0096056*
Y009868*
X0308691Y0099336*
X0306723*
X0313283Y009868D02*
X0312627Y0099336D01*
X0311315*
X0310659Y009868*
Y0096056*
X0311315Y00954*
X0312627*
X0313283Y0096056*
X0314595Y00954D02*
X0317218Y0098024D01*
X0321154Y0099336D02*
X031853D01*
Y00954*
X0321154*
X031853Y0097368D02*
X0319842D01*
X0322466Y0098024D02*
X032509Y00954D01*
X0323778Y0096712*
X032509Y0098024*
X0322466Y00954*
X0327058Y009868D02*
Y0098024D01*
X0326402*
X0327714*
X0327058*
Y0096056*
X0327714Y00954*
X0302787Y0088787D02*
Y0092723D01*
X0304099Y0091411*
X0305411Y0092723*
Y0088787*
X0307379D02*
X0308691D01*
X0309347Y0089443*
Y0090755*
X0308691Y0091411*
X0307379*
X0306723Y0090755*
Y0089443*
X0307379Y0088787*
X0310659D02*
X0311971D01*
X0311315*
Y0091411*
X0310659*
X0313939Y0088787D02*
X0315907D01*
X0316563Y0089443*
X0315907Y0090099*
X0314595*
X0313939Y0090755*
X0314595Y0091411*
X0316563*
X031853Y0092067D02*
Y0091411D01*
X0317874*
X0319186*
X031853*
Y0089443*
X0319186Y0088787*
X0321154Y0091411D02*
Y0089443D01*
X032181Y0088787*
X0323778*
Y0091411*
X032509D02*
Y0088787D01*
Y0090099*
X0325746Y0090755*
X0326402Y0091411*
X0327058*
X0330994Y0088787D02*
X0329682D01*
X0329026Y0089443*
Y0090755*
X0329682Y0091411*
X0330994*
X0331649Y0090755*
Y0090099*
X0329026*
X0307787Y0014723D02*
Y0014067D01*
X0309099Y0012755*
X0310411Y0014067*
Y0014723*
X0309099Y0012755D02*
Y0010787D01*
X0313691D02*
X0312379D01*
X0311723Y0011443*
Y0012755*
X0312379Y0013411*
X0313691*
X0314347Y0012755*
Y0012099*
X0311723*
X0315659Y0010787D02*
X0316971D01*
X0316315*
Y0014723*
X0315659*
X0318939Y0010787D02*
X0320251D01*
X0319595*
Y0014723*
X0318939*
X0322874Y0010787D02*
X0324186D01*
X0324842Y0011443*
Y0012755*
X0324186Y0013411*
X0322874*
X0322218Y0012755*
Y0011443*
X0322874Y0010787*
X0326154Y0013411D02*
Y0011443D01*
X032681Y0010787*
X0327466Y0011443*
X0328122Y0010787*
X0328778Y0011443*
Y0013411*
X0285287Y0014723D02*
Y0010787D01*
X0287255*
X0287911Y0011443*
Y0012099*
X0287255Y0012755*
X0285287*
X0287255*
X0287911Y0013411*
Y0014067*
X0287255Y0014723*
X0285287*
X0289223Y0010787D02*
X0290535D01*
X0289879*
Y0014723*
X0289223*
X0293159Y0013411D02*
X0294471D01*
X0295127Y0012755*
Y0010787*
X0293159*
X0292503Y0011443*
X0293159Y0012099*
X0295127*
X0299062Y0013411D02*
X0297095D01*
X0296439Y0012755*
Y0011443*
X0297095Y0010787*
X0299062*
X0300374D02*
Y0014723D01*
Y0012099D02*
X0302342Y0013411D01*
X0300374Y0012099D02*
X0302342Y0010787D01*
X034974Y0295787D02*
X0353675D01*
Y0297755*
X0353019Y0298411*
X0352363*
X0351708Y0297755*
Y0295787*
Y0297755*
X0351052Y0298411*
X0350396*
X034974Y0297755*
Y0295787*
X0351052Y0300379D02*
Y0301691D01*
X0351708Y0302347*
X0353675*
Y0300379*
X0353019Y0299723*
X0352363Y0300379*
Y0302347*
X0350396Y0304315D02*
X0351052D01*
Y0303659*
Y0304971*
Y0304315*
X0353019*
X0353675Y0304971*
X0350396Y0307595D02*
X0351052D01*
Y0306939*
Y0308251*
Y0307595*
X0353019*
X0353675Y0308251*
Y0312186D02*
Y0310874D01*
X0353019Y0310218*
X0351708*
X0351052Y0310874*
Y0312186*
X0351708Y0312842*
X0352363*
Y0310218*
X0351052Y0314154D02*
X0353675D01*
X0352363*
X0351708Y031481*
X0351052Y0315466*
Y0316122*
Y031809D02*
X0353019D01*
X0353675Y0318746*
Y0320714*
X0354331*
X0354987Y0320058*
Y0319402*
X0353675Y0320714D02*
X0351052D01*
X03616Y0295787D02*
X0357664D01*
Y0297755*
X035832Y0298411*
X0359632*
X0360288Y0297755*
Y0295787*
Y0297099D02*
X03616Y0298411D01*
Y0301691D02*
Y0300379D01*
X0360944Y0299723*
X0359632*
X0358976Y0300379*
Y0301691*
X0359632Y0302347*
X0360288*
Y0299723*
X0358976Y0304315D02*
Y0305627D01*
X0359632Y0306283*
X03616*
Y0304315*
X0360944Y0303659*
X0360288Y0304315*
Y0306283*
X03616Y0307595D02*
Y0308907D01*
Y0308251*
X0357664*
Y0307595*
Y031481D02*
Y0317434D01*
Y0316122*
X03616*
Y0318746D02*
Y0320058D01*
Y0319402*
X0358976*
Y0318746*
X03616Y0322026D02*
X0358976D01*
Y0322682*
X0359632Y0323338*
X03616*
X0359632*
X0358976Y0323993*
X0359632Y032465*
X03616*
Y0327929D02*
Y0326617D01*
X0360944Y0325961*
X0359632*
X0358976Y0326617*
Y0327929*
X0359632Y0328585*
X0360288*
Y0325961*
X035832Y0336457D02*
X0357664Y0335801D01*
Y0334489*
X035832Y0333833*
X0360944*
X03616Y0334489*
Y0335801*
X0360944Y0336457*
X03616Y0337769D02*
Y0339081D01*
Y0338425*
X0357664*
Y0337769*
X03616Y0341704D02*
Y0343016D01*
X0360944Y0343672*
X0359632*
X0358976Y0343016*
Y0341704*
X0359632Y0341048*
X0360944*
X03616Y0341704*
X0358976Y0347608D02*
Y034564D01*
X0359632Y0344984*
X0360944*
X03616Y034564*
Y0347608*
Y034892D02*
X0357664D01*
X0360288D02*
X0358976Y0350888D01*
X0360288Y034892D02*
X03616Y0350888D01*
X0364277Y0298411D02*
X0368213D01*
Y0296443*
X0367557Y0295787*
X0366245*
X0365589Y0296443*
Y0298411*
X0368213Y0299723D02*
Y0301691D01*
X0367557Y0302347*
X0366901Y0301691*
Y0300379*
X0366245Y0299723*
X0365589Y0300379*
Y0302347*
X0364933Y0303659D02*
X0364277Y0304315D01*
Y0305627*
X0364933Y0306283*
X0365589*
X0366245Y0305627*
Y0304971*
Y0305627*
X0366901Y0306283*
X0367557*
X0368213Y0305627*
Y0304315*
X0367557Y0303659*
X0368213Y0310218D02*
Y0307595D01*
X0365589Y0310218*
X0364933*
X0364277Y0309562*
Y0308251*
X0364933Y0307595*
Y031153D02*
X0364277Y0312186D01*
Y0313498*
X0364933Y0314154*
X0365589*
X0366245Y0313498*
Y0312842*
Y0313498*
X0366901Y0314154*
X0367557*
X0368213Y0313498*
Y0312186*
X0367557Y031153*
X0368213Y0315466D02*
Y0316778D01*
Y0316122*
X0364277*
X0364933Y0315466*
X0394213Y0135787D02*
X0391589D01*
X0390277Y0137099*
X0391589Y0138411*
X0394213*
X0392245*
Y0135787*
X0394213Y0139723D02*
X0390277D01*
X0394213Y0142347*
X0390277*
X0394213Y0143659D02*
Y0144971D01*
Y0144315*
X0390277*
X0390933Y0143659*
X0382039Y0063886D02*
X0381515Y0063362D01*
Y0062312*
X0382039Y0061787*
X0382564*
X0383089Y0062312*
Y0063362*
X0383613Y0063886*
X0384138*
X0384663Y0063362*
Y0062312*
X0384138Y0061787*
X0384663Y0064936D02*
Y0065986D01*
Y0065461*
X0382564*
Y0064936*
X0385713Y0068609D02*
Y0069134D01*
X0385188Y0069659*
X0382564*
Y0068085*
X0383089Y006756*
X0384138*
X0384663Y0068085*
Y0069659*
Y0070708D02*
X0382564D01*
Y0072283*
X0383089Y0072808*
X0384663*
X0382564Y0074382D02*
Y0075431D01*
X0383089Y0075956*
X0384663*
Y0074382*
X0384138Y0073857*
X0383613Y0074382*
Y0075956*
X0384663Y0077006D02*
Y0078055D01*
Y007753*
X0381515*
Y0077006*
X0030911Y0033067D02*
X0030255Y0033723D01*
X0028943*
X0028287Y0033067*
Y0030443*
X0028943Y0029787*
X0030255*
X0030911Y0030443*
Y0031755*
X0029599*
X0032223Y0029787D02*
Y0033723D01*
X0034191*
X0034847Y0033067*
Y0031755*
X0034191Y0031099*
X0032223*
X0036159Y0029787D02*
Y0033723D01*
X0038127*
X0038783Y0033067*
Y0031755*
X0038127Y0031099*
X0036159*
X0037471D02*
X0038783Y0029787D01*
X0042718Y0033067D02*
X0042063Y0033723D01*
X0040751*
X0040095Y0033067*
Y0032411*
X0040751Y0031755*
X0042063*
X0042718Y0031099*
Y0030443*
X0042063Y0029787*
X0040751*
X0040095Y0030443*
X005059Y0033067D02*
X0049934Y0033723D01*
X0048622*
X0047966Y0033067*
Y0032411*
X0048622Y0031755*
X0049934*
X005059Y0031099*
Y0030443*
X0049934Y0029787*
X0048622*
X0047966Y0030443*
X0051902Y0033723D02*
X0053214D01*
X0052558*
Y0029787*
X0051902*
X0053214*
X0055182D02*
Y0033723D01*
X0056494Y0032411*
X0057805Y0033723*
Y0029787*
X0063053Y0033067D02*
X0063709Y0033723D01*
X0065021*
X0065677Y0033067*
Y0032411*
X0065021Y0031755*
X0065677Y0031099*
Y0030443*
X0065021Y0029787*
X0063709*
X0063053Y0030443*
Y0031099*
X0063709Y0031755*
X0063053Y0032411*
Y0033067*
X0063709Y0031755D02*
X0065021D01*
X0066989Y0033067D02*
X0067645Y0033723D01*
X0068957*
X0069613Y0033067*
Y0030443*
X0068957Y0029787*
X0067645*
X0066989Y0030443*
Y0033067*
X0070925D02*
X007158Y0033723D01*
X0072892*
X0073548Y0033067*
Y0030443*
X0072892Y0029787*
X007158*
X0070925Y0030443*
Y0033067*
X007486Y0033723D02*
Y0029787D01*
X0077484*
X0198911Y001718D02*
X0198255Y0017836D01*
X0196943*
X0196287Y001718*
Y0016524*
X0196943Y0015868*
X0198255*
X0198911Y0015212*
Y0014556*
X0198255Y00139*
X0196943*
X0196287Y0014556*
X0200879Y00139D02*
X0202191D01*
X0202847Y0014556*
Y0015868*
X0202191Y0016524*
X0200879*
X0200223Y0015868*
Y0014556*
X0200879Y00139*
X0204159D02*
X0205471D01*
X0204815*
Y0016524*
X0204159*
X0207439Y00139D02*
X0208751D01*
X0208095*
Y0017836*
X0207439*
X0196287Y0007287D02*
Y0011223D01*
X0197599Y0009911*
X0198911Y0011223*
Y0007287*
X0200879D02*
X0202191D01*
X0202847Y0007943*
Y0009255*
X0202191Y0009911*
X0200879*
X0200223Y0009255*
Y0007943*
X0200879Y0007287*
X0204159D02*
X0205471D01*
X0204815*
Y0009911*
X0204159*
X0207439Y0007287D02*
X0209406D01*
X0210063Y0007943*
X0209406Y0008599*
X0208095*
X0207439Y0009255*
X0208095Y0009911*
X0210063*
X021203Y0010567D02*
Y0009911D01*
X0211374*
X0212686*
X021203*
Y0007943*
X0212686Y0007287*
X0214654Y0009911D02*
Y0007943D01*
X021531Y0007287*
X0217278*
Y0009911*
X021859D02*
Y0007287D01*
Y0008599*
X0219246Y0009255*
X0219902Y0009911*
X0220558*
X0224494Y0007287D02*
X0223182D01*
X0222526Y0007943*
Y0009255*
X0223182Y0009911*
X0224494*
X0225149Y0009255*
Y0008599*
X0222526*
X0233021Y0007287D02*
X0230397D01*
X0233021Y0009911*
Y0010567*
X0232365Y0011223*
X0231053*
X0230397Y0010567*
X0099664Y0072287D02*
X0102944D01*
X01036Y0072943*
Y0074255*
X0102944Y0074911*
X0099664*
X010032Y0078847D02*
X0099664Y0078191D01*
Y0076879*
X010032Y0076223*
X0100976*
X0101632Y0076879*
Y0078191*
X0102288Y0078847*
X0102944*
X01036Y0078191*
Y0076879*
X0102944Y0076223*
X0099664Y0080159D02*
X01036D01*
Y0082127*
X0102944Y0082783*
X0102288*
X0101632Y0082127*
Y0080159*
Y0082127*
X0100976Y0082783*
X010032*
X0099664Y0082127*
Y0080159*
X01036Y0084095D02*
X0100976Y0086718D01*
X010032Y0090654D02*
X0099664Y0089998D01*
Y0088686*
X010032Y008803*
X0100976*
X0101632Y0088686*
Y0089998*
X0102288Y0090654*
X0102944*
X01036Y0089998*
Y0088686*
X0102944Y008803*
X0099664Y009459D02*
Y0091966D01*
X01036*
Y009459*
X0101632Y0091966D02*
Y0093278D01*
X01036Y0095902D02*
X0099664D01*
Y009787*
X010032Y0098526*
X0101632*
X0102288Y009787*
Y0095902*
Y0097214D02*
X01036Y0098526D01*
X0099664Y0099838D02*
Y0101149D01*
Y0100494*
X01036*
Y0099838*
Y0101149*
Y0103117D02*
X0100976D01*
X0099664Y0104429*
X0100976Y0105741*
X01036*
X0101632*
Y0103117*
X0099664Y0107053D02*
X01036D01*
Y0109677*
X0136911Y001668D02*
X0136255Y0017336D01*
X0134943*
X0134287Y001668*
Y0016024*
X0134943Y0015368*
X0136255*
X0136911Y0014712*
Y0014056*
X0136255Y00134*
X0134943*
X0134287Y0014056*
X0138879Y00134D02*
X0140191D01*
X0140847Y0014056*
Y0015368*
X0140191Y0016024*
X0138879*
X0138223Y0015368*
Y0014056*
X0138879Y00134*
X0142159D02*
X0143471D01*
X0142815*
Y0016024*
X0142159*
X0145439Y00134D02*
X0146751D01*
X0146095*
Y0017336*
X0145439*
X0134287Y0006787D02*
Y0010723D01*
X0135599Y0009411*
X0136911Y0010723*
Y0006787*
X0138879D02*
X0140191D01*
X0140847Y0007443*
Y0008755*
X0140191Y0009411*
X0138879*
X0138223Y0008755*
Y0007443*
X0138879Y0006787*
X0142159D02*
X0143471D01*
X0142815*
Y0009411*
X0142159*
X0145439Y0006787D02*
X0147406D01*
X0148063Y0007443*
X0147406Y0008099*
X0146095*
X0145439Y0008755*
X0146095Y0009411*
X0148063*
X015003Y0010067D02*
Y0009411D01*
X0149374*
X0150686*
X015003*
Y0007443*
X0150686Y0006787*
X0152654Y0009411D02*
Y0007443D01*
X015331Y0006787*
X0155278*
Y0009411*
X015659D02*
Y0006787D01*
Y0008099*
X0157246Y0008755*
X0157902Y0009411*
X0158558*
X0162494Y0006787D02*
X0161182D01*
X0160526Y0007443*
Y0008755*
X0161182Y0009411*
X0162494*
X0163149Y0008755*
Y0008099*
X0160526*
X0168397Y0010067D02*
X0169053Y0010723D01*
X0170365*
X0171021Y0010067*
Y0009411*
X0170365Y0008755*
X0169709*
X0170365*
X0171021Y0008099*
Y0007443*
X0170365Y0006787*
X0169053*
X0168397Y0007443*
X0090911Y001768D02*
X0090255Y0018336D01*
X0088943*
X0088287Y001768*
Y0017024*
X0088943Y0016368*
X0090255*
X0090911Y0015712*
Y0015056*
X0090255Y00144*
X0088943*
X0088287Y0015056*
X0092879Y00144D02*
X0094191D01*
X0094847Y0015056*
Y0016368*
X0094191Y0017024*
X0092879*
X0092223Y0016368*
Y0015056*
X0092879Y00144*
X0096159D02*
X0097471D01*
X0096815*
Y0017024*
X0096159*
X0099439Y00144D02*
X0100751D01*
X0100095*
Y0018336*
X0099439*
X0088287Y0007787D02*
Y0011723D01*
X0089599Y0010411*
X0090911Y0011723*
Y0007787*
X0092879D02*
X0094191D01*
X0094847Y0008443*
Y0009755*
X0094191Y0010411*
X0092879*
X0092223Y0009755*
Y0008443*
X0092879Y0007787*
X0096159D02*
X0097471D01*
X0096815*
Y0010411*
X0096159*
X0099439Y0007787D02*
X0101407D01*
X0102062Y0008443*
X0101407Y0009099*
X0100095*
X0099439Y0009755*
X0100095Y0010411*
X0102062*
X010403Y0011067D02*
Y0010411D01*
X0103374*
X0104686*
X010403*
Y0008443*
X0104686Y0007787*
X0106654Y0010411D02*
Y0008443D01*
X010731Y0007787*
X0109278*
Y0010411*
X011059D02*
Y0007787D01*
Y0009099*
X0111246Y0009755*
X0111902Y0010411*
X0112558*
X0116493Y0007787D02*
X0115182D01*
X0114526Y0008443*
Y0009755*
X0115182Y0010411*
X0116493*
X0117149Y0009755*
Y0009099*
X0114526*
X0122397Y0011067D02*
X0123053Y0011723D01*
X0124365*
X0125021Y0011067*
Y0008443*
X0124365Y0007787*
X0123053*
X0122397Y0008443*
Y0011067*
X0106277Y0135287D02*
X0110213D01*
Y0137255*
X0109557Y0137911*
X0108901*
X0108245Y0137255*
Y0135287*
Y0137255*
X0107589Y0137911*
X0106933*
X0106277Y0137255*
Y0135287*
X0110213Y0139879D02*
Y0141191D01*
X0109557Y0141847*
X0108245*
X0107589Y0141191*
Y0139879*
X0108245Y0139223*
X0109557*
X0110213Y0139879*
Y0143815D02*
Y0145127D01*
X0109557Y0145783*
X0108245*
X0107589Y0145127*
Y0143815*
X0108245Y0143159*
X0109557*
X0110213Y0143815*
X0106933Y0147751D02*
X0107589D01*
Y0147095*
Y0148407*
Y0147751*
X0109557*
X0110213Y0148407*
Y015431D02*
X0106277D01*
X0107589Y0155622*
X0106277Y0156934*
X0110213*
Y0158902D02*
Y0160214D01*
X0109557Y016087*
X0108245*
X0107589Y0160214*
Y0158902*
X0108245Y0158246*
X0109557*
X0110213Y0158902*
X0106277Y0164805D02*
X0110213D01*
Y0162838*
X0109557Y0162182*
X0108245*
X0107589Y0162838*
Y0164805*
X0110213Y0168085D02*
Y0166773D01*
X0109557Y0166117*
X0108245*
X0107589Y0166773*
Y0168085*
X0108245Y0168741*
X0108901*
Y0166117*
X0394713Y0090287D02*
X0392089D01*
X0390777Y0091599*
X0392089Y0092911*
X0394713*
X0392745*
Y0090287*
X0394713Y0094223D02*
X0390777D01*
X0394713Y0096847*
X0390777*
X0391433Y0098159D02*
X0390777Y0098815D01*
Y0100127*
X0391433Y0100783*
X0392089*
X0392745Y0100127*
Y0099471*
Y0100127*
X0393401Y0100783*
X0394057*
X0394713Y0100127*
Y0098815*
X0394057Y0098159*
X0388277Y0032287D02*
X0391557D01*
X0392213Y0032943*
Y0034255*
X0391557Y0034911*
X0388277*
X0392213Y0036223D02*
Y0037535D01*
Y0036879*
X0388277*
Y0036223*
X0388933Y0040159D02*
X0389589D01*
Y0039503*
Y0040815*
Y0040159*
X0391557*
X0392213Y0040815*
X0389589Y0042783D02*
X0392213D01*
X0390901*
X0390245Y0043439*
X0389589Y0044095*
Y0044751*
Y0047374D02*
Y0048686D01*
X0390245Y0049342*
X0392213*
Y0047374*
X0391557Y0046718*
X0390901Y0047374*
Y0049342*
X0392213Y0050654D02*
Y0052622D01*
X0391557Y0053278*
X0390901Y0052622*
Y005131*
X0390245Y0050654*
X0389589Y005131*
Y0053278*
X0392213Y0055246D02*
Y0056558D01*
X0391557Y0057214*
X0390245*
X0389589Y0056558*
Y0055246*
X0390245Y005459*
X0391557*
X0392213Y0055246*
Y0058526D02*
X0389589D01*
Y0060493*
X0390245Y006115*
X0392213*
Y0062461D02*
Y0063773D01*
Y0063117*
X0389589*
Y0062461*
Y0068365D02*
Y0066397D01*
X0390245Y0065741*
X0391557*
X0392213Y0066397*
Y0068365*
X0297287Y0009535D02*
X0299911D01*
X0298599*
Y0005599*
X0303191D02*
X0301879D01*
X0301223Y0006255*
Y0007567*
X0301879Y0008223*
X0303191*
X0303847Y0007567*
Y0006911*
X0301223*
X0305159Y0005599D02*
Y0008223D01*
X0305815*
X0306471Y0007567*
Y0005599*
Y0007567*
X0307127Y0008223*
X0307783Y0007567*
Y0005599*
X0309095Y0004287D02*
Y0008223D01*
X0311063*
X0311718Y0007567*
Y0006255*
X0311063Y0005599*
X0309095*
X031303D02*
X0315654Y0008223D01*
X0316966Y0005599D02*
X0318278D01*
X0317622*
Y0009535*
X0316966Y0008879*
X0320246D02*
X0320902Y0009535D01*
X0322214*
X032287Y0008879*
Y0008223*
X0322214Y0007567*
X032287Y0006911*
Y0006255*
X0322214Y0005599*
X0320902*
X0320246Y0006255*
Y0006911*
X0320902Y0007567*
X0320246Y0008223*
Y0008879*
X0320902Y0007567D02*
X0322214D01*
X0324182Y0009535D02*
Y0005599D01*
X032615*
X0326805Y0006255*
Y0006911*
Y0007567*
X032615Y0008223*
X0324182*
X0330741Y0005599D02*
X0328117D01*
X0330741Y0008223*
Y0008879*
X0330085Y0009535*
X0328773*
X0328117Y0008879*
X0332053D02*
X0332709Y0009535D01*
X0334021*
X0334677Y0008879*
Y0006255*
X0334021Y0005599*
X0332709*
X0332053Y0006255*
Y0008879*
X0383089Y0045886D02*
X0382564Y0045362D01*
Y0044312*
X0383089Y0043787*
X0385188*
X0385713Y0044312*
Y0045362*
X0385188Y0045886*
X0384138*
Y0044837*
X0385713Y0046936D02*
X0382564D01*
X0385713Y0049035*
X0382564*
Y0050085D02*
X0385713D01*
Y0051659*
X0385188Y0052184*
X0383089*
X0382564Y0051659*
Y0050085*
X0303787Y00744D02*
Y0077024D01*
X0305099Y0078336*
X0306411Y0077024*
Y00744*
Y0076368*
X0303787*
X0307723Y0078336D02*
Y00744D01*
X0309691*
X0310347Y0075056*
Y007768*
X0309691Y0078336*
X0307723*
X0314283Y007768D02*
X0313627Y0078336D01*
X0312315*
X0311659Y007768*
Y0075056*
X0312315Y00744*
X0313627*
X0314283Y0075056*
X0315595Y00744D02*
X0318218Y0077024D01*
X031953Y0078336D02*
X0320842D01*
X0320186*
Y00744*
X031953*
X0320842*
X032281D02*
Y0077024D01*
X0324778*
X0325434Y0076368*
Y00744*
X0327402Y007768D02*
Y0077024D01*
X0326746*
X0328058*
X0327402*
Y0075056*
X0328058Y00744*
X0303787Y0067787D02*
Y0071723D01*
X0305099Y0070411*
X0306411Y0071723*
Y0067787*
X0308379D02*
X0309691D01*
X0310347Y0068443*
Y0069755*
X0309691Y0070411*
X0308379*
X0307723Y0069755*
Y0068443*
X0308379Y0067787*
X0311659D02*
X0312971D01*
X0312315*
Y0070411*
X0311659*
X0314939Y0067787D02*
X0316906D01*
X0317563Y0068443*
X0316906Y0069099*
X0315595*
X0314939Y0069755*
X0315595Y0070411*
X0317563*
X031953Y0071067D02*
Y0070411D01*
X0318874*
X0320186*
X031953*
Y0068443*
X0320186Y0067787*
X0322154Y0070411D02*
Y0068443D01*
X032281Y0067787*
X0324778*
Y0070411*
X032609D02*
Y0067787D01*
Y0069099*
X0326746Y0069755*
X0327402Y0070411*
X0328058*
X0331994Y0067787D02*
X0330682D01*
X0330026Y0068443*
Y0069755*
X0330682Y0070411*
X0331994*
X0332649Y0069755*
Y0069099*
X0330026*
X0394713Y0111787D02*
X0392089D01*
X0390777Y0113099*
X0392089Y0114411*
X0394713*
X0392745*
Y0111787*
X0394713Y0115723D02*
X0390777D01*
X0394713Y0118347*
X0390777*
X0394713Y0122283D02*
Y0119659D01*
X0392089Y0122283*
X0391433*
X0390777Y0121627*
Y0120315*
X0391433Y0119659*
Y0160411D02*
X0390777Y0159755D01*
Y0158443*
X0391433Y0157787*
X0394057*
X0394713Y0158443*
Y0159755*
X0394057Y0160411*
X0392745*
Y0159099*
X0394713Y0161723D02*
X0390777D01*
X0394713Y0164347*
X0390777*
Y0165659D02*
X0394713D01*
Y0167627*
X0394057Y0168283*
X0391433*
X0390777Y0167627*
Y0165659*
X0383089Y0021287D02*
X0382564Y0021812D01*
Y0022862*
X0383089Y0023386*
X0383613*
X0384138Y0022862*
Y0022337*
Y0022862*
X0384663Y0023386*
X0385188*
X0385713Y0022862*
Y0021812*
X0385188Y0021287*
X0385713Y0024436D02*
X0385188D01*
Y0024961*
X0385713*
Y0024436*
X0383089Y002706D02*
X0382564Y0027585D01*
Y0028634*
X0383089Y0029159*
X0383613*
X0384138Y0028634*
Y0028109*
Y0028634*
X0384663Y0029159*
X0385188*
X0385713Y0028634*
Y0027585*
X0385188Y002706*
X0382564Y0030208D02*
X0384663D01*
X0385713Y0031258*
X0384663Y0032307*
X0382564*
X0183Y027D02*
X0186936D01*
X0183Y0267376*
X0186936*
X0183Y0266064D02*
X0186936D01*
Y0264096*
X018628Y026344*
X0184968*
X0184312Y0264096*
Y0266064*
X018628Y0259505D02*
X0186936Y0260161D01*
Y0261473*
X018628Y0262128*
X0183656*
X0183Y0261473*
Y0260161*
X0183656Y0259505*
X0198968Y0269543D02*
X0195688D01*
X0195032Y0268887*
Y0267575*
X0195688Y0266919*
X0198968*
Y0265608D02*
X0195032D01*
Y0262984*
Y0261672D02*
X0198968D01*
Y0259704*
X0198312Y0259048*
X0197*
X0196344Y0259704*
Y0261672*
X0198312Y0255112D02*
X0198968Y0255768D01*
Y025708*
X0198312Y0257736*
X0195688*
X0195032Y025708*
Y0255768*
X0195688Y0255112*
X0012Y02965D02*
X0008064D01*
Y0298468*
X000872Y0299124*
X0010032*
X0010688Y0298468*
Y02965*
Y0297812D02*
X0012Y0299124D01*
X0009376Y0301092D02*
Y0302404D01*
X0010032Y030306*
X0012*
Y0301092*
X0011344Y0300436*
X0010688Y0301092*
Y030306*
X0012Y0304372D02*
Y0305683D01*
Y0305027*
X0009376*
Y0304372*
X0012Y0307651D02*
X0009376D01*
Y0309619*
X0010032Y0310275*
X0012*
X000772Y0162124D02*
X0007064Y0161468D01*
Y0160156*
X000772Y01595*
X0008376*
X0009032Y0160156*
Y0161468*
X0009688Y0162124*
X0010344*
X0011Y0161468*
Y0160156*
X0010344Y01595*
X0011Y0164092D02*
Y0165404D01*
X0010344Y016606*
X0009032*
X0008376Y0165404*
Y0164092*
X0009032Y0163436*
X0010344*
X0011Y0164092*
Y0167371D02*
Y0168683D01*
Y0168027*
X0007064*
Y0167371*
X0008376Y0171307D02*
Y0172619D01*
X0009032Y0173275*
X0011*
Y0171307*
X0010344Y0170651*
X0009688Y0171307*
Y0173275*
X0008376Y0174587D02*
X0011D01*
X0009688*
X0009032Y0175243*
X0008376Y0175899*
Y0176555*
X0007064Y022D02*
Y0222624D01*
Y0221312*
X0011*
Y0225904D02*
Y0224592D01*
X0010344Y0223936*
X0009032*
X0008376Y0224592*
Y0225904*
X0009032Y022656*
X0009688*
Y0223936*
X0011Y0227871D02*
X0008376D01*
Y0228527*
X0009032Y0229183*
X0011*
X0009032*
X0008376Y0229839*
X0009032Y0230495*
X0011*
X0012312Y0231807D02*
X0008376D01*
Y0233775*
X0009032Y0234431*
X0010344*
X0011Y0233775*
Y0231807*
Y0235743D02*
X0008376Y0238367D01*
X0007064Y0239679D02*
X0011D01*
X0009032*
Y0242302*
X0007064*
X0011*
X0008376Y0243614D02*
X0010344D01*
X0011Y024427*
Y0246238*
X0008376*
X0011Y024755D02*
X0008376D01*
Y0248206*
X0009032Y0248862*
X0011*
X0009032*
X0008376Y0249518*
X0009032Y0250174*
X0011*
X0115Y0336936D02*
Y0333D01*
X0116968*
X0117624Y0333656*
Y0334312*
X0116968Y0334968*
X0115*
X0116968*
X0117624Y0335624*
Y033628*
X0116968Y0336936*
X0115*
X0118936Y0333D02*
Y0335624D01*
X0120248Y0336936*
X012156Y0335624*
Y0333*
Y0334968*
X0118936*
X0122871Y0336936D02*
X0125495D01*
X0124183*
Y0333*
X0126807Y0334968D02*
X0129431D01*
X0128119Y033628D02*
Y0333656D01*
X0136Y0336436D02*
Y03325D01*
X0137968*
X0138624Y0333156*
Y0333812*
X0137968Y0334468*
X0136*
X0137968*
X0138624Y0335124*
Y033578*
X0137968Y0336436*
X0136*
X0139936Y03325D02*
Y0335124D01*
X0141248Y0336436*
X014256Y0335124*
Y03325*
Y0334468*
X0139936*
X0143871Y0336436D02*
X0146495D01*
X0145183*
Y03325*
X0147807Y0334468D02*
X0150431D01*
X01335Y0285D02*
Y0288936D01*
X0134812Y0287624*
X0136124Y0288936*
Y0285*
X0138092D02*
X0139404D01*
X014006Y0285656*
Y0286968*
X0139404Y0287624*
X0138092*
X0137436Y0286968*
Y0285656*
X0138092Y0285*
X0143995Y0288936D02*
Y0285D01*
X0142027*
X0141372Y0285656*
Y0286968*
X0142027Y0287624*
X0143995*
X0147275Y0285D02*
X0145963D01*
X0145307Y0285656*
Y0286968*
X0145963Y0287624*
X0147275*
X0147931Y0286968*
Y0286312*
X0145307*
X0174624Y0366936D02*
X0173312D01*
X0173968*
Y0363656*
X0173312Y0363*
X0172656*
X0172Y0363656*
X0175936Y0363D02*
X0177248D01*
X0176592*
Y0366936*
X0175936Y036628*
X009472Y0294124D02*
X0094064Y0293468D01*
Y0292156*
X009472Y02915*
X0097344*
X0098Y0292156*
Y0293468*
X0097344Y0294124*
X0098Y0295436D02*
Y0296748D01*
Y0296092*
X0094064*
X009472Y0295436*
X0098Y0301339D02*
Y0298715D01*
X0095376Y0301339*
X009472*
X0094064Y0300683*
Y0299372*
X009472Y0298715*
X0168Y0235436D02*
Y0232156D01*
X0168656Y02315*
X0169968*
X0170624Y0232156*
Y0235436*
X0171936D02*
X017456D01*
Y023478*
X0171936Y0232156*
Y02315*
X0154Y0065936D02*
Y0062656D01*
X0154656Y0062*
X0155968*
X0156624Y0062656*
Y0065936*
X016056D02*
X0159248Y006528D01*
X0157936Y0063968*
Y0062656*
X0158592Y0062*
X0159904*
X016056Y0062656*
Y0063312*
X0159904Y0063968*
X0157936*
X02295Y0235936D02*
Y0232656D01*
X0230156Y0232*
X0231468*
X0232124Y0232656*
Y0235936*
X023606D02*
X0233436D01*
Y0233968*
X0234748Y0234624*
X0235404*
X023606Y0233968*
Y0232656*
X0235404Y0232*
X0234092*
X0233436Y0232656*
X01525Y0253936D02*
Y0250656D01*
X0153156Y025*
X0154468*
X0155124Y0250656*
Y0253936*
X0158404Y025D02*
Y0253936D01*
X0156436Y0251968*
X015906*
X02795Y0217936D02*
Y0214656D01*
X0280156Y0214*
X0281468*
X0282124Y0214656*
Y0217936*
X0283436Y021728D02*
X0284092Y0217936D01*
X0285404*
X028606Y021728*
Y0216624*
X0285404Y0215968*
X0284748*
X0285404*
X028606Y0215312*
Y0214656*
X0285404Y0214*
X0284092*
X0283436Y0214656*
X0123Y0208936D02*
Y0205656D01*
X0123656Y0205*
X0124968*
X0125624Y0205656*
Y0208936*
X012956Y0205D02*
X0126936D01*
X012956Y0207624*
Y020828*
X0128904Y0208936*
X0127592*
X0126936Y020828*
X0128124Y029978D02*
X0127468Y0300436D01*
X0126156*
X01255Y029978*
Y0299124*
X0126156Y0298468*
X0127468*
X0128124Y0297812*
Y0297156*
X0127468Y02965*
X0126156*
X01255Y0297156*
X0129436Y02965D02*
X0130748D01*
X0130092*
Y0300436*
X0129436Y029978*
X0107Y0292D02*
X0103064D01*
Y0293968*
X010372Y0294624*
X0105032*
X0105688Y0293968*
Y0292*
Y0293312D02*
X0107Y0294624D01*
Y0295936D02*
Y0297248D01*
Y0296592*
X0103064*
X010372Y0295936*
X0106344Y0299216D02*
X0107Y0299871D01*
Y0301183*
X0106344Y0301839*
X010372*
X0103064Y0301183*
Y0299871*
X010372Y0299216*
X0104376*
X0105032Y0299871*
Y0301839*
X01945Y0231D02*
Y0234936D01*
X0196468*
X0197124Y023428*
Y0232968*
X0196468Y0232312*
X01945*
X0195812D02*
X0197124Y0231D01*
X0198436D02*
X0199748D01*
X0199092*
Y0234936*
X0198436Y023428*
X0201715Y0234936D02*
X0204339D01*
Y023428*
X0201715Y0231656*
Y0231*
X03055Y00565D02*
Y0060436D01*
X0307468*
X0308124Y005978*
Y0058468*
X0307468Y0057812*
X03055*
X0306812D02*
X0308124Y00565D01*
X0309436D02*
X0310748D01*
X0310092*
Y0060436*
X0309436Y005978*
X0315339Y0060436D02*
X0314027Y005978D01*
X0312716Y0058468*
Y0057156*
X0313371Y00565*
X0314683*
X0315339Y0057156*
Y0057812*
X0314683Y0058468*
X0312716*
X01135Y02395D02*
X0109564D01*
Y0241468*
X011022Y0242124*
X0111532*
X0112188Y0241468*
Y02395*
Y0240812D02*
X01135Y0242124D01*
Y0243436D02*
Y0244748D01*
Y0244092*
X0109564*
X011022Y0243436*
X0109564Y0249339D02*
Y0246715D01*
X0111532*
X0110876Y0248027*
Y0248683*
X0111532Y0249339*
X0112844*
X01135Y0248683*
Y0247372*
X0112844Y0246715*
X0095Y01915D02*
Y0195436D01*
X0096968*
X0097624Y019478*
Y0193468*
X0096968Y0192812*
X0095*
X0096312D02*
X0097624Y01915D01*
X0098936D02*
X0100248D01*
X0099592*
Y0195436*
X0098936Y019478*
X0104183Y01915D02*
Y0195436D01*
X0102216Y0193468*
X0104839*
X00915Y0239D02*
X0087564D01*
Y0240968*
X008822Y0241624*
X0089532*
X0090188Y0240968*
Y0239*
Y0240312D02*
X00915Y0241624D01*
Y0242936D02*
Y0244248D01*
Y0243592*
X0087564*
X008822Y0242936*
Y0246216D02*
X0087564Y0246871D01*
Y0248183*
X008822Y0248839*
X0088876*
X0089532Y0248183*
Y0247527*
Y0248183*
X0090188Y0248839*
X0090844*
X00915Y0248183*
Y0246871*
X0090844Y0246216*
X01975Y0081D02*
Y0084936D01*
X0199468*
X0200124Y008428*
Y0082968*
X0199468Y0082312*
X01975*
X0198812D02*
X0200124Y0081D01*
X0201436D02*
X0202748D01*
X0202092*
Y0084936*
X0201436Y008428*
X0207339Y0081D02*
X0204715D01*
X0207339Y0083624*
Y008428*
X0206683Y0084936*
X0205371*
X0204715Y008428*
X0134Y02625D02*
Y0266436D01*
X0135968*
X0136624Y026578*
Y0264468*
X0135968Y0263812*
X0134*
X0135312D02*
X0136624Y02625D01*
X0137936Y0266436D02*
X014056D01*
Y026578*
X0137936Y0263156*
Y02625*
X01595Y03025D02*
Y0306436D01*
X0161468*
X0162124Y030578*
Y0304468*
X0161468Y0303812*
X01595*
X0160812D02*
X0162124Y03025D01*
X016606Y0306436D02*
X0164748Y030578D01*
X0163436Y0304468*
Y0303156*
X0164092Y03025*
X0165404*
X016606Y0303156*
Y0303812*
X0165404Y0304468*
X0163436*
X025Y022D02*
Y0223936D01*
X0251968*
X0252624Y022328*
Y0221968*
X0251968Y0221312*
X025*
X0251312D02*
X0252624Y022D01*
X025656Y0223936D02*
X0253936D01*
Y0221968*
X0255248Y0222624*
X0255904*
X025656Y0221968*
Y0220656*
X0255904Y022*
X0254592*
X0253936Y0220656*
X02325Y02195D02*
Y0223436D01*
X0234468*
X0235124Y022278*
Y0221468*
X0234468Y0220812*
X02325*
X0233812D02*
X0235124Y02195D01*
X0238404D02*
Y0223436D01*
X0236436Y0221468*
X023906*
X0257Y0285D02*
Y0288936D01*
X0258968*
X0259624Y028828*
Y0286968*
X0258968Y0286312*
X0257*
X0258312D02*
X0259624Y0285D01*
X0260936Y028828D02*
X0261592Y0288936D01*
X0262904*
X026356Y028828*
Y0287624*
X0262904Y0286968*
X0262248*
X0262904*
X026356Y0286312*
Y0285656*
X0262904Y0285*
X0261592*
X0260936Y0285656*
X03355Y0227D02*
Y0230936D01*
X0337468*
X0338124Y023028*
Y0228968*
X0337468Y0228312*
X03355*
X0336812D02*
X0338124Y0227D01*
X034206D02*
X0339436D01*
X034206Y0229624*
Y023028*
X0341404Y0230936*
X0340092*
X0339436Y023028*
X0334Y02575D02*
Y0261436D01*
X0335968*
X0336624Y026078*
Y0259468*
X0335968Y0258812*
X0334*
X0335312D02*
X0336624Y02575D01*
X0337936D02*
X0339248D01*
X0338592*
Y0261436*
X0337936Y026078*
X0089Y0123D02*
Y0126936D01*
X0090968*
X0091624Y012628*
Y0124968*
X0090968Y0124312*
X0089*
X009556Y0123D02*
X0092936D01*
X009556Y0125624*
Y012628*
X0094904Y0126936*
X0093592*
X0092936Y012628*
X0107Y0359D02*
Y0362936D01*
X0108968*
X0109624Y036228*
Y0360968*
X0108968Y0360312*
X0107*
X0110936Y0359D02*
X0112248D01*
X0111592*
Y0362936*
X0110936Y036228*
X0008624Y0344436D02*
X0007312D01*
X0007968*
Y0341156*
X0007312Y03405*
X0006656*
X0006Y0341156*
X001256Y0344436D02*
X0009936D01*
Y0342468*
X0011248Y0343124*
X0011904*
X001256Y0342468*
Y0341156*
X0011904Y03405*
X0010592*
X0009936Y0341156*
X0008124Y0267936D02*
X0006812D01*
X0007468*
Y0264656*
X0006812Y0264*
X0006156*
X00055Y0264656*
X0011404Y0264D02*
Y0267936D01*
X0009436Y0265968*
X001206*
X0006124Y0200436D02*
X0004812D01*
X0005468*
Y0197156*
X0004812Y01965*
X0004156*
X00035Y0197156*
X0007436Y019978D02*
X0008092Y0200436D01*
X0009404*
X001006Y019978*
Y0199124*
X0009404Y0198468*
X0008748*
X0009404*
X001006Y0197812*
Y0197156*
X0009404Y01965*
X0008092*
X0007436Y0197156*
X0014Y0046436D02*
Y00425D01*
Y0044468*
X0016624*
Y0046436*
Y00425*
X0019904D02*
Y0046436D01*
X0017936Y0044468*
X002056*
X0112564Y0109D02*
X01165D01*
X0114532*
Y0111624*
X0112564*
X01165*
X011322Y0112936D02*
X0112564Y0113592D01*
Y0114904*
X011322Y011556*
X0113876*
X0114532Y0114904*
Y0114248*
Y0114904*
X0115188Y011556*
X0115844*
X01165Y0114904*
Y0113592*
X0115844Y0112936*
X0192Y0298536D02*
Y02946D01*
Y0296568*
X0194624*
Y0298536*
Y02946*
X019856D02*
X0195936D01*
X019856Y0297224*
Y029788*
X0197904Y0298536*
X0196592*
X0195936Y029788*
X018Y0298536D02*
Y02946D01*
Y0296568*
X0182624*
Y0298536*
Y02946*
X0183936D02*
X0185248D01*
X0184592*
Y0298536*
X0183936Y029788*
X0097124Y017028D02*
X0096468Y0170936D01*
X0095156*
X00945Y017028*
Y0167656*
X0095156Y0167*
X0096468*
X0097124Y0167656*
X0098436Y0167D02*
X0099748D01*
X0099092*
Y0170936*
X0098436Y017028*
X0101716D02*
X0102372Y0170936D01*
X0103683*
X0104339Y017028*
Y0167656*
X0103683Y0167*
X0102372*
X0101716Y0167656*
Y017028*
X0201124Y009778D02*
X0200468Y0098436D01*
X0199156*
X01985Y009778*
Y0095156*
X0199156Y00945*
X0200468*
X0201124Y0095156*
X0202436Y0098436D02*
X020506D01*
Y009778*
X0202436Y0095156*
Y00945*
X0263124Y025528D02*
X0262468Y0255936D01*
X0261156*
X02605Y025528*
Y0252656*
X0261156Y0252*
X0262468*
X0263124Y0252656*
X026706Y0255936D02*
X0265748Y025528D01*
X0264436Y0253968*
Y0252656*
X0265092Y0252*
X0266404*
X026706Y0252656*
Y0253312*
X0266404Y0253968*
X0264436*
X0124024Y032278D02*
X0123368Y0323436D01*
X0122056*
X01214Y032278*
Y0320156*
X0122056Y03195*
X0123368*
X0124024Y0320156*
X012796Y0323436D02*
X0125336D01*
Y0321468*
X0126648Y0322124*
X0127304*
X012796Y0321468*
Y0320156*
X0127304Y03195*
X0125992*
X0125336Y0320156*
X0118024Y027178D02*
X0117368Y0272436D01*
X0116056*
X01154Y027178*
Y0269156*
X0116056Y02685*
X0117368*
X0118024Y0269156*
X0121304Y02685D02*
Y0272436D01*
X0119336Y0270468*
X012196*
X0302124Y027628D02*
X0301468Y0276936D01*
X0300156*
X02995Y027628*
Y0273656*
X0300156Y0273*
X0301468*
X0302124Y0273656*
X0303436Y027628D02*
X0304092Y0276936D01*
X0305404*
X030606Y027628*
Y0275624*
X0305404Y0274968*
X0304748*
X0305404*
X030606Y0274312*
Y0273656*
X0305404Y0273*
X0304092*
X0303436Y0273656*
X0258624Y029828D02*
X0257968Y0298936D01*
X0256656*
X0256Y029828*
Y0295656*
X0256656Y0295*
X0257968*
X0258624Y0295656*
X026256Y0295D02*
X0259936D01*
X026256Y0297624*
Y029828*
X0261904Y0298936*
X0260592*
X0259936Y029828*
X0139124Y022078D02*
X0138468Y0221436D01*
X0137156*
X01365Y022078*
Y0218156*
X0137156Y02175*
X0138468*
X0139124Y0218156*
X0140436Y02175D02*
X0141748D01*
X0141092*
Y0221436*
X0140436Y022078*
X0303Y0355936D02*
Y0352D01*
X0304968*
X0305624Y0352656*
Y0353312*
X0304968Y0353968*
X0303*
X0304968*
X0305624Y0354624*
Y035528*
X0304968Y0355936*
X0303*
X0306936D02*
X030956D01*
X0308248*
Y0352*
X02858Y0056936D02*
Y0053D01*
X0287768*
X0288424Y0053656*
Y0054312*
X0287768Y0054968*
X02858*
X0287768*
X0288424Y0055624*
Y005628*
X0287768Y0056936*
X02858*
X029236D02*
X0289736D01*
Y0054968*
X0291048Y0055624*
X0291704*
X029236Y0054968*
Y0053656*
X0291704Y0053*
X0290392*
X0289736Y0053656*
X0133Y0056736D02*
Y00528D01*
X0134968*
X0135624Y0053456*
Y0054112*
X0134968Y0054768*
X0133*
X0134968*
X0135624Y0055424*
Y005608*
X0134968Y0056736*
X0133*
X0138904Y00528D02*
Y0056736D01*
X0136936Y0054768*
X013956*
X01955Y0056736D02*
Y00528D01*
X0197468*
X0198124Y0053456*
Y0054112*
X0197468Y0054768*
X01955*
X0197468*
X0198124Y0055424*
Y005608*
X0197468Y0056736*
X01955*
X0199436Y005608D02*
X0200092Y0056736D01*
X0201404*
X020206Y005608*
Y0055424*
X0201404Y0054768*
X0200748*
X0201404*
X020206Y0054112*
Y0053456*
X0201404Y00528*
X0200092*
X0199436Y0053456*
X024Y0056236D02*
Y00523D01*
X0241968*
X0242624Y0052956*
Y0053612*
X0241968Y0054268*
X024*
X0241968*
X0242624Y0054924*
Y005558*
X0241968Y0056236*
X024*
X024656Y00523D02*
X0243936D01*
X024656Y0054924*
Y005558*
X0245904Y0056236*
X0244592*
X0243936Y005558*
X00875Y0056736D02*
Y00528D01*
X0089468*
X0090124Y0053456*
Y0054112*
X0089468Y0054768*
X00875*
X0089468*
X0090124Y0055424*
Y005608*
X0089468Y0056736*
X00875*
X0091436Y00528D02*
X0092748D01*
X0092092*
Y0056736*
X0091436Y005608*
X0336064Y0055D02*
X034D01*
X0338032*
Y0057624*
X0336064*
X034*
X033672Y0058936D02*
X0336064Y0059592D01*
Y0060904*
X033672Y006156*
X0337376*
X0338032Y0060904*
X0338688Y006156*
X0339344*
X034Y0060904*
Y0059592*
X0339344Y0058936*
X0338688*
X0338032Y0059592*
X0337376Y0058936*
X033672*
X0338032Y0059592D02*
Y0060904D01*
X0333564Y0107D02*
X03375D01*
X0335532*
Y0109624*
X0333564*
X03375*
X0336844Y0110936D02*
X03375Y0111592D01*
Y0112904*
X0336844Y011356*
X033422*
X0333564Y0112904*
Y0111592*
X033422Y0110936*
X0334876*
X0335532Y0111592*
Y011356*
X0371Y0015436D02*
Y00115D01*
X0372968*
X0373624Y0012156*
Y0012812*
X0372968Y0013468*
X0371*
X0372968*
X0373624Y0014124*
Y001478*
X0372968Y0015436*
X0371*
X037756D02*
X0376248Y001478D01*
X0374936Y0013468*
Y0012156*
X0375592Y00115*
X0376904*
X037756Y0012156*
Y0012812*
X0376904Y0013468*
X0374936*
X03585Y0134036D02*
Y01301D01*
X0360468*
X0361124Y0130756*
Y0131412*
X0360468Y0132068*
X03585*
X0360468*
X0361124Y0132724*
Y013338*
X0360468Y0134036*
X03585*
X0362436D02*
X036506D01*
Y013338*
X0362436Y0130756*
Y01301*
X0358Y0179036D02*
Y01751D01*
X0359968*
X0360624Y0175756*
Y0176412*
X0359968Y0177068*
X0358*
X0359968*
X0360624Y0177724*
Y017838*
X0359968Y0179036*
X0358*
X0361936Y017838D02*
X0362592Y0179036D01*
X0363904*
X036456Y017838*
Y0177724*
X0363904Y0177068*
X036456Y0176412*
Y0175756*
X0363904Y01751*
X0362592*
X0361936Y0175756*
Y0176412*
X0362592Y0177068*
X0361936Y0177724*
Y017838*
X0362592Y0177068D02*
X0363904D01*
G54D13*
X0174Y03555D02*
X0194Y03655D01*
X0174Y03155D02*
Y03555D01*
Y03155D02*
X0194Y03055D01*
Y03655*
X0274*
X0194Y03055D02*
X0274D01*
Y03355*
Y03655*
X0353287Y0018941D02*
Y0020941D01*
X0351287Y0018941D02*
X0353287D01*
X0351287D02*
Y0020941D01*
X0349287D02*
X0381114D01*
X0349189Y008102D02*
X0351189D01*
Y007902D02*
Y008102D01*
Y007902D02*
X0353189D01*
Y008102*
X0381189*
X0353181Y0020961D02*
X0353189Y008102D01*
X0349189Y0020961D02*
Y008102D01*
X0381189Y0021016D02*
Y008102D01*
X0381114Y0020941D02*
X0381189Y0021016D01*
X0362756Y0126504D02*
X0362953Y0126701D01*
X0362756Y012561D02*
Y0126504D01*
Y0087421D02*
Y012561D01*
X0359705D02*
X0362756D01*
Y0087421D02*
Y012561D01*
X0358228Y0087421D02*
X03885D01*
Y0126791*
X0358228Y0087421D02*
Y0126791D01*
X0359803Y0086339D02*
Y0087126D01*
X035987Y008624D02*
X0362756D01*
Y0087303*
X0362953Y0126701D02*
X03885Y0126791D01*
X0359705Y012561D02*
Y0126791D01*
X0358228D02*
X0359705D01*
X0362256Y0171504D02*
X0362453Y0171702D01*
X0362256Y017061D02*
Y0171504D01*
Y0132421D02*
Y017061D01*
X0359205D02*
X0362256D01*
Y0132421D02*
Y017061D01*
X0357728Y0132421D02*
X0388D01*
Y0171791*
X0357728Y0132421D02*
Y0171791D01*
X0359303Y0131339D02*
Y0132126D01*
X035937Y013124D02*
X0362256D01*
Y0132303*
X0362453Y0171702D02*
X0388Y0171791D01*
X0359205Y017061D02*
Y0171791D01*
X0357728D02*
X0359205D01*
X0087209Y0019228D02*
Y0020705D01*
X008839*
X0087209Y00495D02*
X0087298Y0023953D01*
X0126697Y0023756D02*
X012776D01*
Y002087D02*
Y0023756D01*
X0126874Y0020803D02*
X0127661D01*
X0087209Y0019228D02*
X0126579D01*
X0087209Y00495D02*
X0126579D01*
Y0019228D02*
Y00495D01*
X008839Y0023756D02*
X0126579D01*
X008839Y0020705D02*
Y0023756D01*
X0126579*
X0087496D02*
X008839D01*
X0087298Y0023953D02*
X0087496Y0023756D01*
X0239709Y0018728D02*
Y0020205D01*
X024089*
X0239709Y0049D02*
X0239798Y0023453D01*
X0279197Y0023256D02*
X028026D01*
Y002037D02*
Y0023256D01*
X0279374Y0020303D02*
X0280161D01*
X0239709Y0018728D02*
X0279079D01*
X0239709Y0049D02*
X0279079D01*
Y0018728D02*
Y0049D01*
X024089Y0023256D02*
X0279079D01*
X024089Y0020205D02*
Y0023256D01*
X0279079*
X0239996D02*
X024089D01*
X0239798Y0023453D02*
X0239996Y0023256D01*
X0195209Y0019228D02*
Y0020705D01*
X019639*
X0195209Y00495D02*
X0195298Y0023953D01*
X0234697Y0023756D02*
X023576D01*
Y002087D02*
Y0023756D01*
X0234874Y0020803D02*
X0235661D01*
X0195209Y0019228D02*
X0234579D01*
X0195209Y00495D02*
X0234579D01*
Y0019228D02*
Y00495D01*
X019639Y0023756D02*
X0234579D01*
X019639Y0020705D02*
Y0023756D01*
X0234579*
X0195496D02*
X019639D01*
X0195298Y0023953D02*
X0195496Y0023756D01*
X0132709Y0019228D02*
Y0020705D01*
X013389*
X0132709Y00495D02*
X0132798Y0023953D01*
X0172197Y0023756D02*
X017326D01*
Y002087D02*
Y0023756D01*
X0172374Y0020803D02*
X0173161D01*
X0132709Y0019228D02*
X0172079D01*
X0132709Y00495D02*
X0172079D01*
Y0019228D02*
Y00495D01*
X013389Y0023756D02*
X0172079D01*
X013389Y0020705D02*
Y0023756D01*
X0172079*
X0132996D02*
X013389D01*
X0132798Y0023953D02*
X0132996Y0023756D01*
X0345484Y0049689D02*
X0345559Y0049614D01*
X028548Y0049689D02*
X0345484D01*
X028548Y0017689D02*
X0345539D01*
X028548Y0021689D02*
X0345539Y0021681D01*
X028548Y0021689D02*
Y0049689D01*
Y0021689D02*
X028748D01*
Y0019689D02*
Y0021689D01*
X028548Y0019689D02*
X028748D01*
X028548Y0017689D02*
Y0019689D01*
X0345559Y0017787D02*
Y0049614D01*
Y0019787D02*
X0347559D01*
Y0021787*
X0345559D02*
X0347559D01*
X0115134Y036328D02*
X014663D01*
X0115134Y0339657D02*
Y036328D01*
X014663Y0339657D02*
Y036328D01*
X0115134Y0339657D02*
X014663D01*
X0136063Y0291547D02*
X0143937D01*
X014689Y0297453D02*
Y0318122D01*
X0136063Y032698D02*
X0143937D01*
X013311Y02945D02*
Y0324028D01*
Y0300406D02*
X014689D01*
X013311Y0318122D02*
X014689D01*
X0134291Y0302374D02*
X0145709D01*
X0134291Y0316154D02*
X0145709D01*
Y0302374D02*
Y0316154D01*
X0134291Y0302374D02*
Y0316154D01*
X0143937Y032698D02*
X014689Y0324028D01*
X013311D02*
X0136063Y032698D01*
X013311Y02945D02*
X0136063Y0291547D01*
X0143937D02*
X014689Y02945D01*
Y0300406*
Y0318122D02*
Y0324028D01*
G54D14*
X031795Y025936D02*
Y026065D01*
X028705Y021835D02*
X031795D01*
Y021964*
X028705Y025936D02*
Y026065D01*
Y021835D02*
Y021964D01*
X01735Y02373D02*
X01855D01*
X01735Y02497D02*
X01855D01*
X01115Y0116D02*
Y0121D01*
X0109Y01135D02*
X01115Y0116D01*
X01015D02*
X0104Y01135D01*
X0109*
Y01235D02*
X01115Y0126D01*
Y0131*
X0109Y01335D02*
X01115Y0131D01*
X0104Y01335D02*
X0109D01*
X01015Y0131D02*
X0104Y01335D01*
X01015Y0126D02*
Y0131D01*
Y0126D02*
X0104Y01235D01*
X0109D02*
X01115Y0121D01*
X0104Y01235D02*
X0109D01*
X01015Y0121D02*
X0104Y01235D01*
X01015Y0116D02*
Y0121D01*
X0025Y00385D02*
X003D01*
X00225Y0041D02*
X0025Y00385D01*
X00225Y0041D02*
Y0046D01*
X0025Y00485*
X004Y00385D02*
X00425Y0041D01*
X0035Y00385D02*
X004D01*
X00325Y0041D02*
X0035Y00385D01*
X00325Y0041D02*
Y0046D01*
X0035Y00485*
X004*
X00425Y0046*
X003Y00385D02*
X00325Y0041D01*
X003Y00485D02*
X00325Y0046D01*
X0025Y00485D02*
X003D01*
X00525Y0041D02*
Y0046D01*
X005Y00385D02*
X00525Y0041D01*
X0045Y00385D02*
X005D01*
X00425Y0041D02*
X0045Y00385D01*
X00425Y0041D02*
Y0046D01*
X0045Y00485*
X005*
X00525Y0046*
X0075Y00485D02*
X008D01*
X00825Y0046*
X008Y00385D02*
X00825Y0041D01*
Y0046*
X007Y00485D02*
X00725Y0046D01*
X0065Y00485D02*
X007D01*
X00625Y0046D02*
X0065Y00485D01*
X00625Y0041D02*
Y0046D01*
Y0041D02*
X0065Y00385D01*
X007*
X00725Y0041*
Y0046D02*
X0075Y00485D01*
X00725Y0041D02*
Y0046D01*
Y0041D02*
X0075Y00385D01*
X008*
X0045Y00485D02*
X005D01*
X00525Y0046*
X005Y00385D02*
X00525Y0041D01*
X006Y00485D02*
X00625Y0046D01*
X0055Y00485D02*
X006D01*
X00525Y0046D02*
X0055Y00485D01*
X00525Y0041D02*
Y0046D01*
Y0041D02*
X0055Y00385D01*
X006*
X00625Y0041*
X00425Y0046D02*
X0045Y00485D01*
X00425Y0041D02*
Y0046D01*
Y0041D02*
X0045Y00385D01*
X005*
X03455Y00975D02*
Y01025D01*
X0343Y0095D02*
X03455Y00975D01*
X0338Y0095D02*
X0343D01*
X03355Y00975D02*
X0338Y0095D01*
X0343D02*
X03455Y00925D01*
Y00875D02*
Y00925D01*
X0343Y0085D02*
X03455Y00875D01*
X0338Y0085D02*
X0343D01*
X03355Y00875D02*
X0338Y0085D01*
X03355Y00875D02*
Y00925D01*
X0338Y0095*
Y0105D02*
X0343D01*
X03455Y01025*
X03355D02*
X0338Y0105D01*
X03355Y00975D02*
Y01025D01*
Y00655D02*
Y00705D01*
X0338Y0073*
X0343*
X03455Y00705*
X03355Y00755D02*
X0338Y0073D01*
X03355Y00755D02*
Y00805D01*
X0338Y0083*
X0343*
X03455Y00805*
Y00755D02*
Y00805D01*
X0343Y0073D02*
X03455Y00755D01*
X0338Y0063D02*
X0343D01*
X03355Y00655D02*
X0338Y0063D01*
X0343D02*
X03455Y00655D01*
Y00705*
X01895Y0274D02*
Y0279D01*
X0187Y02715D02*
X01895Y0274D01*
X01795D02*
X0182Y02715D01*
X0187*
Y02815D02*
X01895Y0284D01*
Y0289*
X0187Y02915D02*
X01895Y0289D01*
X0182Y02915D02*
X0187D01*
X01795Y0289D02*
X0182Y02915D01*
X01795Y0284D02*
Y0289D01*
Y0284D02*
X0182Y02815D01*
X0187D02*
X01895Y0279D01*
X0182Y02815D02*
X0187D01*
X01795Y0279D02*
X0182Y02815D01*
X01795Y0274D02*
Y0279D01*
X02015Y0274D02*
Y0279D01*
X0199Y02715D02*
X02015Y0274D01*
X01915D02*
X0194Y02715D01*
X0199*
Y02815D02*
X02015Y0284D01*
Y0289*
X0199Y02915D02*
X02015Y0289D01*
X0194Y02915D02*
X0199D01*
X01915Y0289D02*
X0194Y02915D01*
X01915Y0284D02*
Y0289D01*
Y0284D02*
X0194Y02815D01*
X0199D02*
X02015Y0279D01*
X0194Y02815D02*
X0199D01*
X01915Y0279D02*
X0194Y02815D01*
X01915Y0274D02*
Y0279D01*
X013015Y024015D02*
Y025685D01*
X015085Y024015D02*
Y025685D01*
X014915Y01077D02*
X016585D01*
X014915Y00673D02*
X016585D01*
X00875Y0272D02*
Y0335D01*
X00155D02*
X00875D01*
X00155Y0272D02*
X00875D01*
X00155D02*
Y0335D01*
X0087Y0205D02*
Y0268D01*
X0015D02*
X0087D01*
X0015Y0205D02*
X0087D01*
X0015D02*
Y0268D01*
X0087Y01375D02*
Y02005D01*
X0015D02*
X0087D01*
X0015Y01375D02*
X0087D01*
X0015D02*
Y02005D01*
G54D15*
X02816Y0262765D02*
X0284932Y0259433D01*
X02816D02*
X0284932Y0262765D01*
X02816Y0261099D02*
X0284932D01*
X0283266Y0259433D02*
Y0262765D01*
X0169675Y0252404D02*
X0173007Y0249072D01*
X0169675D02*
X0173007Y0252404D01*
X0169675Y0250738D02*
X0173007D01*
X0171341Y0249072D02*
Y0252404D01*
X0153865Y0261475D02*
X0150533Y0258143D01*
Y0261475D02*
X0153865Y0258143D01*
X0152199Y0261475D02*
Y0258143D01*
X0150533Y0259809D02*
X0153865D01*
X0144525Y0110865D02*
X0147857Y0107533D01*
X0144525D02*
X0147857Y0110865D01*
X0144525Y0109199D02*
X0147857D01*
X0146191Y0107533D02*
Y0110865D01*
G54D16*
X00275Y00435D03*
G54D17*
X014Y0309362D03*
M02*