%FSTAX25Y25*%
%MOIN*%
%SFA1B1*%

%IPPOS*%
%ADD13C,0.010000*%
%ADD56C,0.001000*%
%LNgateway-1*%
%LPD*%
G54D13*
X0Y0D02*
Y0233D01*
Y0D02*
X02906D01*
X02907Y00001*
Y02329*
X02906Y0233D02*
X02907Y02329D01*
X0Y0233D02*
X02906D01*
G54D56*
X021885Y008575D02*
Y008675D01*
X021985Y008625*
X021885Y008575D02*
X021985Y008625D01*
X022585Y008575D02*
Y008675D01*
X022485Y008625D02*
X022585Y008675D01*
X022485Y008625D02*
X022585Y008575D01*
X021485Y008625D02*
X021985D01*
X022485D02*
X022985D01*
X021985Y00581D02*
Y008775D01*
X022485Y00581D02*
Y008775D01*
X023205Y00466D02*
X023305D01*
X023205D02*
X023255Y00456D01*
X023305Y00466*
X023205Y00396D02*
X023305D01*
X023205D02*
X023255Y00406D01*
X023305Y00396*
X023255Y00456D02*
Y00506D01*
Y00356D02*
Y00406D01*
X022255Y00456D02*
X023405D01*
X022255Y00406D02*
X023405D01*
X017845Y007775D02*
X017945D01*
X017845D02*
X017895Y007875D01*
X017945Y007775*
X017845Y003845D02*
X017945D01*
X017845D02*
X017895Y003745D01*
X017945Y003845*
X017895Y003745D02*
Y007875D01*
X017745D02*
X02039D01*
X017745Y003745D02*
X02039D01*
X018395Y002195D02*
Y002295D01*
X018295Y002245D02*
X018395Y002295D01*
X018295Y002245D02*
X018395Y002195D01*
X022385D02*
Y002295D01*
X022485Y002245*
X022385Y002195D02*
X022485Y002245D01*
X018295D02*
X022485D01*
X018295Y002095D02*
Y00581D01*
X022485Y002095D02*
Y00581D01*
X018995Y002945D02*
Y003045D01*
X018895Y002995D02*
X018995Y003045D01*
X018895Y002995D02*
X018995Y002945D01*
X021785D02*
Y003045D01*
X021885Y002995*
X021785Y002945D02*
X021885Y002995D01*
X018895D02*
X021885D01*
X018895Y002845D02*
Y00581D01*
X021885Y002845D02*
Y00581D01*
M02*