%FSTAX25Y25*%
%MOIN*%
%SFA1B1*%

%IPPOS*%
%AMD30*
4,1,8,-0.034000,0.027000,-0.034000,-0.027000,-0.017000,-0.044000,0.017000,-0.044000,0.034000,-0.027000,0.034000,0.027000,0.017000,0.044000,-0.017000,0.044000,-0.034000,0.027000,0.0*
%
%AMD31*
4,1,8,-0.027000,-0.034000,0.027000,-0.034000,0.044000,-0.017000,0.044000,0.017000,0.027000,0.034000,-0.027000,0.034000,-0.044000,0.017000,-0.044000,-0.017000,-0.027000,-0.034000,0.0*
%
%ADD29C,0.126110*%
G04~CAMADD=30~4~0.0~0.0~880.0~680.0~0.0~170.0~0~0.0~0.0~0.0~0.0~0~0.0~0.0~0.0~0.0~0~0.0~0.0~0.0~90.0~680.0~880.0*
%ADD30D30*%
G04~CAMADD=31~4~0.0~0.0~880.0~680.0~0.0~170.0~0~0.0~0.0~0.0~0.0~0~0.0~0.0~0.0~0.0~0~0.0~0.0~0.0~180.0~880.0~680.0*
%ADD31D31*%
%ADD32C,0.074930*%
%ADD33R,0.074930X0.074930*%
%ADD34R,0.067060X0.067060*%
%ADD35O,0.059500X0.110990*%
%ADD36C,0.067060*%
%ADD37R,0.067060X0.067060*%
%ADD38R,0.074930X0.074930*%
%ADD39C,0.113120*%
%LNgateway-1*%
%LPD*%
G54D29*
X0281Y00097D03*
X00097D03*
Y02233D03*
X0281D03*
X022Y02063D03*
G54D30*
X00676Y01338D03*
X00776D03*
X00576D03*
X00476D03*
X00376D03*
X00276D03*
G54D31*
X00076Y01979D03*
Y01879D03*
G54D32*
X00131Y00212D03*
X00231D03*
X00331D03*
X00431D03*
X00531D03*
X0063754Y0107231D03*
X0053754D03*
X0043754D03*
X0033754D03*
X0023754D03*
X0273Y0205D03*
G54D33*
X00631Y00212D03*
G54D34*
X0073754Y0107231D03*
G54D35*
X0235Y01088D03*
X0225D03*
X0215D03*
X0205D03*
G54D36*
X0172Y0056D03*
Y0066D03*
Y0076D03*
Y0086D03*
Y0096D03*
Y0106D03*
Y0116D03*
Y0126D03*
Y0136D03*
Y0146D03*
Y0156D03*
Y0166D03*
Y0176D03*
X0102Y0056D03*
Y0066D03*
Y0076D03*
Y0086D03*
Y0096D03*
Y0106D03*
Y0116D03*
Y0126D03*
Y0136D03*
Y0146D03*
Y0156D03*
Y0166D03*
Y0176D03*
X0172Y0186D03*
G54D37*
X0102Y0186D03*
G54D38*
X0273Y0195D03*
G54D39*
X02642Y0080804D03*
Y0028796D03*
M02*