%FSTAX25Y25*%
%MOIN*%
%SFA1B1*%

%IPPOS*%
%AMD45*
4,1,8,-0.030000,0.025000,-0.030000,-0.025000,-0.015000,-0.040000,0.015000,-0.040000,0.030000,-0.025000,0.030000,0.025000,0.015000,0.040000,-0.015000,0.040000,-0.030000,0.025000,0.0*
%
%AMD46*
4,1,8,-0.025000,-0.030000,0.025000,-0.030000,0.040000,-0.015000,0.040000,0.015000,0.025000,0.030000,-0.025000,0.030000,-0.040000,0.015000,-0.040000,-0.015000,-0.025000,-0.030000,0.0*
%
%ADD41C,0.023620*%
%ADD42C,0.039370*%
%ADD43C,0.031500*%
%ADD44C,0.118110*%
G04~CAMADD=45~4~0.0~0.0~800.0~600.0~0.0~150.0~0~0.0~0.0~0.0~0.0~0~0.0~0.0~0.0~0.0~0~0.0~0.0~0.0~90.0~600.0~800.0*
%ADD45D45*%
G04~CAMADD=46~4~0.0~0.0~800.0~600.0~0.0~150.0~0~0.0~0.0~0.0~0.0~0~0.0~0.0~0.0~0.0~0~0.0~0.0~0.0~180.0~800.0~600.0*
%ADD46D46*%
%ADD47C,0.066930*%
%ADD48R,0.066930X0.066930*%
%ADD49R,0.059060X0.059060*%
%ADD50O,0.051500X0.102990*%
%ADD51C,0.059060*%
%ADD52R,0.059060X0.059060*%
%ADD53R,0.066930X0.066930*%
%ADD54C,0.105120*%
%ADD55C,0.050000*%
%LNgateway-1*%
%LPD*%
G54D41*
X0191488Y0136D02*
X0191888Y01356D01*
X0172Y0136D02*
X0191488D01*
X00276Y01326D02*
X00283Y01319D01*
Y01217D02*
Y01319D01*
X0025454Y0118854D02*
X00283Y01217D01*
X0025454Y0106331D02*
Y0118854D01*
X00568Y01358D02*
Y01557D01*
X0006897Y0187197D02*
X00076Y01879D01*
X00667Y01477D02*
X0085Y0166D01*
X00667Y01357D02*
Y01477D01*
X00568Y01557D02*
X00771Y0176D01*
X00384Y01866D02*
X00517Y01733D01*
Y01716D02*
Y01733D01*
X0205Y01088D02*
Y01445D01*
X02006Y01088D02*
X0205D01*
X01952Y01034D02*
X02006Y01088D01*
X01952Y00627D02*
Y01034D01*
Y00627D02*
X02064Y00515D01*
X0235Y00971D02*
Y01088D01*
X02201Y00822D02*
X0235Y00971D01*
X02157Y00822D02*
X02201D01*
X02139Y00804D02*
X02157Y00822D01*
X0035454Y0102646D02*
X00391Y0099D01*
X0035454Y0102646D02*
Y0106331D01*
X00443Y0107785D02*
Y011D01*
Y0107785D02*
X0045454Y0106632D01*
Y0106331D02*
Y0106632D01*
X02064Y00405D02*
X02221D01*
X02064Y00515D02*
Y00518D01*
X02082Y005*
X0198488Y01285D02*
Y0140012D01*
X01825Y0156D02*
X0198488Y0140012D01*
X01715Y0156D02*
X01825D01*
X01835Y0166D02*
X0205Y01445D01*
X01715Y0166D02*
X01835D01*
X02039Y00048D02*
X02106Y00115D01*
X0195Y00403D02*
X02106Y00247D01*
Y00115D02*
Y00247D01*
X00866Y00807D02*
X00919Y0086D01*
X01015*
X02139Y00754D02*
Y00804D01*
X01015Y0135744D02*
Y0136D01*
X00771Y0176D02*
X01015D01*
X0085Y0166D02*
X0102D01*
X0023454Y0106431D02*
Y0108331D01*
X02221Y00405D02*
X0234Y00286D01*
X02602*
X02617Y0028596D02*
Y0080604D01*
X00866Y00107D02*
Y00807D01*
Y00107D02*
X00925Y00048D01*
X02039*
X01015Y01445D02*
Y0146D01*
X0099146Y014289D02*
X009989D01*
X01015Y01445*
X02218Y0176D02*
X0235Y01628D01*
Y01088D02*
Y01628D01*
X00391Y0099D02*
X00827D01*
X00875Y01038*
Y0121744*
X01015Y0135744*
X00443Y011D02*
X00527Y01184D01*
X0074656*
X0099146Y014289*
X0006897Y0172497D02*
Y0187197D01*
X01725Y0176D02*
X02218D01*
G54D42*
X0236Y02271D02*
X026925Y019385D01*
X01752Y02271D02*
X0236D01*
X00617Y02273D02*
X0175D01*
X0006897Y0172497D02*
X00617Y02273D01*
X0006897Y0124888D02*
X0023454Y0108331D01*
X0006897Y0124888D02*
Y0172497D01*
G54D43*
X01752Y02271D02*
X0184Y02183D01*
X01725Y0176D02*
X0184Y01875D01*
Y02183*
G54D44*
X0281Y00097D03*
X00097D03*
Y02233D03*
X0281D03*
X022Y02063D03*
G54D45*
X00676Y01338D03*
X00776D03*
X00576D03*
X00476D03*
X00376D03*
X00276D03*
G54D46*
X00076Y01979D03*
Y01879D03*
G54D47*
X00131Y00212D03*
X00231D03*
X00331D03*
X00431D03*
X00531D03*
X0063754Y0107231D03*
X0053754D03*
X0043754D03*
X0033754D03*
X0023754D03*
X0273Y0205D03*
G54D48*
X00631Y00212D03*
G54D49*
X0073754Y0107231D03*
G54D50*
X0235Y01088D03*
X0225D03*
X0215D03*
X0205D03*
G54D51*
X0172Y0056D03*
Y0066D03*
Y0076D03*
Y0086D03*
Y0096D03*
Y0106D03*
Y0116D03*
Y0126D03*
Y0136D03*
Y0146D03*
Y0156D03*
Y0166D03*
Y0176D03*
X0102Y0056D03*
Y0066D03*
Y0076D03*
Y0086D03*
Y0096D03*
Y0106D03*
Y0116D03*
Y0126D03*
Y0136D03*
Y0146D03*
Y0156D03*
Y0166D03*
Y0176D03*
X0172Y0186D03*
G54D52*
X0102Y0186D03*
G54D53*
X0273Y0195D03*
G54D54*
X02642Y0080804D03*
Y0028796D03*
G54D55*
X0191888Y01356D03*
X01951Y00404D03*
X00517Y01716D03*
X00384Y01866D03*
X0198488Y01285D03*
X02064Y00405D03*
X02139Y00754D03*
X02082Y005D03*
X02057Y01366D03*
M02*