<?xml version="1.0" encoding="UTF-8" standalone="no"?>
<svg
   xmlns:dc="http://purl.org/dc/elements/1.1/"
   xmlns:cc="http://creativecommons.org/ns#"
   xmlns:rdf="http://www.w3.org/1999/02/22-rdf-syntax-ns#"
   xmlns:svg="http://www.w3.org/2000/svg"
   xmlns="http://www.w3.org/2000/svg"
   xmlns:sodipodi="http://sodipodi.sourceforge.net/DTD/sodipodi-0.dtd"
   xmlns:inkscape="http://www.inkscape.org/namespaces/inkscape"
   width="512"
   height="512"
   viewBox="0 0 512 512"
   version="1.1"
   id="svg34"
   sodipodi:docname="logo.svg"
   inkscape:version="0.92.5 (2060ec1f9f, 2020-04-08)"
   inkscape:export-filename="/home/fabian/MEGA/DEET/ProyectoIoD/IoT/static/img/logo2.png"
   inkscape:export-xdpi="96"
   inkscape:export-ydpi="96">
  <metadata
     id="metadata40">
    <rdf:RDF>
      <cc:Work
         rdf:about="">
        <dc:format>image/svg+xml</dc:format>
        <dc:type
           rdf:resource="http://purl.org/dc/dcmitype/StillImage" />
        <dc:title></dc:title>
      </cc:Work>
    </rdf:RDF>
  </metadata>
  <defs
     id="defs38">
    <clipPath
       clipPathUnits="userSpaceOnUse"
       id="clipPath819">
      <g
         id="use821"
         inkscape:label="Clip">
        <path
           style="fill:#000000;fill-opacity:1;stroke:none;stroke-opacity:1"
           d="m 138.80555,189.39652 c -0.26205,-0.43488 -1.38367,-3.71568 -2.49251,-7.29068 -1.10883,-3.575 -3.8573,-11.63809 -6.10771,-17.91798 -2.25041,-6.27989 -4.09165,-11.77128 -4.09165,-12.20309 0,-0.4318 1.61516,-1.55154 3.58924,-2.4883 4.76753,-2.26234 8.59074,-8.20832 9.17279,-14.26583 0.8891,-9.25302 -5.06059,-17.55726 -14.34877,-20.02721 -7.98476,-2.12333 -18.38152,3.33874 -21.35193,11.21751 -3.11753,8.26897 0.17024,18.10675 7.52274,22.50983 5.50571,3.29712 5.58588,2.61119 -2.77129,23.71158 -7.30525,18.44447 -6.76268,18.07497 -18.242656,12.4234 -18.229982,-8.97459 -29.426457,-30.6979 -28.328338,-54.96242 0.385522,-8.51865 0.842541,-10.38231 4.414091,-18 2.191224,-4.67362 9.616079,-16.822489 16.499677,-26.997489 20.525446,-30.339717 27.713536,-43.60565 34.407216,-63.5 1.85054,-5.5 3.87325,-10 4.4949,-10 0.62166,0 2.15155,3.15 3.39976,7 6.96209,21.473996 12.45999,31.82848 35.04387,66 18.40253,27.844729 20.71081,32.708569 21.31674,44.917019 1.04638,21.08273 -6.40196,39.56008 -20.32272,50.41532 -6.72378,5.24313 -20.69214,11.3026 -21.80345,9.45834 z m 12.57603,-7.24529 c 5.68935,-2.57125 15.75738,-12.21446 18.62864,-17.84258 6.97664,-13.67535 9.9653,-31.3687 7.07649,-41.89389 -1.85474,-6.75759 -7.27985,-17.11998 -14.55905,-27.808919 -2.24731,-3.3 -6.9533,-10.275 -10.45776,-15.5 -3.50447,-5.225 -6.61648,-9.725 -6.91558,-10 -0.29911,-0.275 -1.17759,-1.729904 -1.95218,-3.233121 -0.77459,-1.503216 -2.23638,-3.6219 -3.24841,-4.708186 -1.01203,-1.086286 -1.84005,-2.442507 -1.84005,-3.013823 0,-0.571316 -1.71689,-4.302632 -3.81531,-8.291813 -2.09842,-3.989182 -4.86387,-9.728057 -6.14546,-12.753057 -1.28158,-3.025 -3.02018,-7.075 -3.86355,-9 -0.84337,-1.925 -1.56541,-4.136261 -1.60454,-4.913912 -0.0391,-0.777652 -0.60764,-1.593987 -1.26337,-1.814077 -0.70588,-0.236923 -1.78891,1.60908 -2.65492,4.525224 -0.80448,2.708964 -1.87969,5.775299 -2.38936,6.814077 -10.01616,20.414218 -14.43732,28.620419 -19.806571,36.763366 -3.551308,5.385878 -6.456924,9.998881 -6.456924,10.25112 0,0.252238 -0.474465,1.002122 -1.054366,1.666408 -1.760265,2.016412 -11.945634,16.712806 -11.945634,17.236267 0,0.268864 -1.35,2.352466 -3,4.630226 -1.65,2.27776 -3,4.60093 -3,5.1626 0,0.56167 -0.582913,1.73165 -1.295363,2.59996 -3.2634,3.97731 -5.205051,12.52334 -5.129872,22.57874 0.123165,16.47366 5.190276,30.08527 14.925235,40.09318 4.529077,4.65606 15.748422,11.40682 18.957437,11.40682 0.700534,0 3.788268,-6.80749 7.008778,-15.45214 l 5.75658,-15.45215 -2.8614,-2.51625 c -1.57377,-1.38394 -3.18975,-2.53048 -3.59107,-2.54786 -1.07205,-0.0464 -4.38808,-6.89832 -5.704521,-11.78722 -0.846963,-3.14538 -0.854035,-5.34483 -0.02731,-8.49438 3.394051,-12.93026 15.281771,-19.80245 27.753911,-16.04428 9.77131,2.94434 17.70168,15.22432 15.56879,24.10789 -1.50816,6.2815 -6.49898,13.46057 -10.16701,14.62476 -2.55364,0.81049 -2.81309,3.35334 -0.80712,7.9105 0.76289,1.73312 2.86285,7.42613 4.66659,12.65113 1.80373,5.225 3.63374,10.48706 4.06669,11.69346 0.89198,2.48554 2.54049,2.24182 11.14756,-1.64807 z"
           id="path827"
           inkscape:connector-curvature="0" />
      </g>
    </clipPath>
  </defs>
  <sodipodi:namedview
     pagecolor="#ffffff"
     bordercolor="#666666"
     borderopacity="1"
     objecttolerance="10"
     gridtolerance="10"
     guidetolerance="10"
     inkscape:pageopacity="0"
     inkscape:pageshadow="2"
     inkscape:window-width="1920"
     inkscape:window-height="1043"
     id="namedview36"
     showgrid="false"
     inkscape:zoom="0.834386"
     inkscape:cx="231.1489"
     inkscape:cy="83.055703"
     inkscape:window-x="0"
     inkscape:window-y="0"
     inkscape:window-maximized="1"
     inkscape:current-layer="svg34" />
  <path
     style="fill:#0094dc;fill-opacity:1;stroke:#000000;stroke-width:8.43994427;stroke-miterlimit:4;stroke-dasharray:none;stroke-opacity:1"
     d="m 297.9932,507.37041 c -0.73723,-1.22345 -3.8927,-10.45338 -7.01221,-20.51098 -3.11949,-10.0576 -10.8518,-32.74162 -17.18292,-50.40893 -6.3311,-17.66729 -11.5111,-33.11631 -11.5111,-34.33113 0,-1.21479 4.54395,-4.36497 10.09767,-7.00037 13.41255,-6.36467 24.16846,-23.09259 25.80594,-40.13427 2.50133,-26.03167 -14.23704,-49.39411 -40.36761,-56.34285 -22.46361,-5.9736 -51.713,9.39292 -60.0697,31.55838 -8.77057,23.26322 0.47897,50.94 21.16386,63.32725 15.4893,9.27583 15.71484,7.3461 -7.79654,66.70815 -20.55197,51.89009 -19.02554,50.85057 -51.32232,34.95093 C 108.51161,469.93824 77.012375,408.82373 80.101733,340.56 c 1.084589,-23.96566 2.370331,-29.20871 12.418225,-50.63969 6.16462,-13.14836 27.053052,-47.32692 46.418792,-75.95241 57.74453,-85.35518 77.96692,-122.676431 96.79835,-178.645531 5.20612,-15.473233 10.89663,-28.1331503 12.64554,-28.1331503 1.74892,0 6.05298,8.8619423 9.5646,19.6932053 19.58655,60.41313 35.05387,89.543566 98.58945,185.678816 51.7721,78.33597 58.26603,92.01948 59.9707,126.3657 2.9438,59.31236 -18.01074,111.29496 -57.17421,141.83418 -18.91612,14.75057 -58.21351,31.79777 -61.33998,26.60929 z"
     id="path825-3"
     inkscape:connector-curvature="0"
     sodipodi:nodetypes="ccsssssssssscscsssssc" />
</svg>
