%FSTAX25Y25*%
%MOIN*%
%SFA1B1*%

%IPPOS*%
%AMD44*
4,1,8,-0.030000,0.025000,-0.030000,-0.025000,-0.015000,-0.040000,0.015000,-0.040000,0.030000,-0.025000,0.030000,0.025000,0.015000,0.040000,-0.015000,0.040000,-0.030000,0.025000,0.0*
%
%AMD45*
4,1,8,-0.025000,-0.030000,0.025000,-0.030000,0.040000,-0.015000,0.040000,0.015000,0.025000,0.030000,-0.025000,0.030000,-0.040000,0.015000,-0.040000,-0.015000,-0.025000,-0.030000,0.0*
%
%ADD18R,0.057000X0.044000*%
%ADD19R,0.031500X0.051180*%
%ADD20R,0.044000X0.057000*%
%ADD21R,0.074000X0.021000*%
%ADD22R,0.159840X0.159840*%
%ADD23R,0.062990X0.062990*%
%ADD39C,0.023620*%
%ADD40C,0.019680*%
%ADD41C,0.060000*%
%ADD42O,0.098430X0.157480*%
%ADD43R,0.098430X0.157480*%
G04~CAMADD=44~4~0.0~0.0~800.0~600.0~0.0~150.0~0~0.0~0.0~0.0~0.0~0~0.0~0.0~0.0~0.0~0~0.0~0.0~0.0~90.0~600.0~800.0*
%ADD44D44*%
G04~CAMADD=45~4~0.0~0.0~800.0~600.0~0.0~150.0~0~0.0~0.0~0.0~0.0~0~0.0~0.0~0.0~0.0~0~0.0~0.0~0.0~180.0~800.0~600.0*
%ADD45D45*%
%ADD46C,0.118110*%
%ADD47O,0.051500X0.102990*%
%ADD48C,0.066930*%
%ADD49O,0.070870X0.039370*%
%ADD50R,0.066930X0.066930*%
%ADD51R,0.066930X0.066930*%
%ADD52C,0.105120*%
%ADD53C,0.050000*%
%ADD54C,0.051180*%
%LNriver_level_sensor_datalogger-1*%
%LPD*%
G54D18*
X0262271Y0106954D03*
Y0099854D03*
X01842Y018595D03*
Y017885D03*
X02212Y001385D03*
Y002095D03*
G54D19*
X0192037Y00155D03*
X0184163D03*
X0197263Y00158D03*
X0205137D03*
X0200763Y00964D03*
X0208637D03*
X0256363Y01749D03*
X0264237D03*
Y01663D03*
X0256363D03*
X0252137Y00964D03*
X0244263D03*
G54D20*
X021915Y00969D03*
X022625D03*
G54D21*
X018525Y00406D03*
Y00456D03*
Y00506D03*
Y00556D03*
Y00606D03*
Y00656D03*
Y00706D03*
Y00756D03*
X022255D03*
Y00706D03*
Y00656D03*
Y00606D03*
Y00556D03*
Y00506D03*
Y00456D03*
Y00406D03*
G54D22*
X0262665Y0045136D03*
G54D23*
X02802Y0117916D03*
Y0090357D03*
G54D39*
X0184172Y0134065D02*
Y0156872D01*
X0176007Y01259D02*
X0184172Y0134065D01*
X01697Y01259D02*
X0176007D01*
X0184172Y0156872D02*
X02042Y01769D01*
X0191109Y01349D02*
X0191206Y0134996D01*
X0229604*
X01697Y01359D02*
X0170604Y0134996D01*
X0066798Y0042774D02*
Y0102518D01*
X0037699Y0013674D02*
X0066798Y0042774D01*
Y0102518D02*
X0080775Y0116495D01*
X0086976Y0077952D02*
Y0113592D01*
X0080184Y0071161D02*
X0086976Y0077952D01*
X0092094Y0088294D02*
X00997Y00959D01*
X0092094Y0075832D02*
Y0088294D01*
X0085893Y0069631D02*
X0092094Y0075832D01*
X0085893Y0042872D02*
Y0069631D01*
X0097212Y0076D02*
X01015D01*
X0097212Y0073184D02*
Y0076D01*
X0096683Y0073184D02*
X0097212D01*
X009111Y006761D02*
X0096683Y0073184D01*
X009111Y0007491D02*
Y006761D01*
X0043888Y0063125D02*
Y0104858D01*
X0033728Y0115018D02*
X0043888Y0104858D01*
X002682Y0115018D02*
X0033728D01*
X0087212Y0113828D02*
Y0119161D01*
X0086976Y0113592D02*
X0087212Y0113828D01*
X0086976Y0119397D02*
Y0143168D01*
Y0119397D02*
X0087212Y0119161D01*
X0080184Y0068188D02*
Y0071161D01*
Y0068188D02*
X0080258Y0068114D01*
Y0046391D02*
Y0068114D01*
X0047409Y0013542D02*
X0080258Y0046391D01*
X0037699Y0011371D02*
Y0013674D01*
X0033826Y0089723D02*
Y0100774D01*
X0262074Y0111774D02*
X0268216Y0117916D01*
X0262074Y010695D02*
Y0111774D01*
X025725Y010695D02*
X0262074D01*
X0262861Y0098511D02*
X02642Y009985D01*
X0262861Y0095239D02*
Y0098511D01*
Y0095239D02*
X0267743Y0090357D01*
X0012777Y0121823D02*
X0033826Y0100774D01*
X001857Y0123268D02*
Y0142282D01*
Y0123268D02*
X002682Y0115018D01*
X001857Y0142282D02*
X0022507Y0146219D01*
Y0199469*
X0086976Y0143168D02*
X0089708Y01459D01*
X00167Y0153109D02*
Y02009D01*
X0012777Y0149186D02*
X00167Y0153109D01*
X0012777Y0121823D02*
Y0149186D01*
X0046483Y0223445D02*
X0180124D01*
X0184712Y0218857*
Y01964D02*
Y0218857D01*
X0044363Y0228563D02*
X0260537D01*
X0022507Y0199469D02*
X0046483Y0223445D01*
X0032842Y0155963D02*
X0032905Y01559D01*
X00997*
X0260537Y0228563D02*
X02792Y02099D01*
X00167Y02009D02*
X0044363Y0228563D01*
X0184712Y01964D02*
X0247863D01*
X01819D02*
X0184712D01*
X0037409Y0011081D02*
X0037699Y0011371D01*
X0089708Y01459D02*
X00997D01*
X0200805Y0184605D02*
X0236957D01*
X01922Y0176D02*
X0200805Y0184605D01*
X02432Y0095337D02*
X0244263Y00964D01*
X02432Y0060526D02*
Y0095337D01*
Y0060526D02*
X0243826Y00599D01*
X02437D02*
X0243826D01*
X02682Y00424D02*
X02742D01*
X02802Y00484*
Y0090357*
X0252137Y00604D02*
Y00964D01*
X02232Y00804D02*
X02262Y00834D01*
X022625Y008335*
Y00969*
X022255Y00656D02*
Y00706D01*
X022625Y00969D02*
X02338D01*
X02232Y00749D02*
Y00804D01*
X0252137Y0101837D02*
X025725Y010695D01*
X0252137Y00964D02*
Y0101837D01*
X0268216Y0117916D02*
X02802D01*
X0267743Y0090357D02*
X02802D01*
X02312Y005837D02*
X024717Y00424D01*
X0228983Y0060587D02*
X02312Y005837D01*
X024717Y00424D02*
X02627D01*
X02202Y00139D02*
X022185Y001225D01*
X0217632Y00139D02*
X02202D01*
X02142Y0017332D02*
X0217632Y00139D01*
X02142Y0017332D02*
Y00456D01*
X02156Y0006D02*
X022185Y001225D01*
X02487Y01379D02*
X02517Y01349D01*
X02052Y01549D02*
X0215763Y0144337D01*
X0261263*
X02622Y01434*
X02807Y01349D02*
X02817Y01359D01*
X02517Y01349D02*
X02807D01*
X02142Y00456D02*
X022255D01*
X02126D02*
X02142D01*
X02338Y00969D02*
X0235Y00981D01*
X01994Y00967D02*
X01997D01*
X0198488Y0097612D02*
X01994Y00967D01*
X0198488Y0097612D02*
Y01285D01*
X01715Y0186D02*
X0183487D01*
X01841Y0185387*
X0205137Y00158D02*
Y0031031D01*
X0190581Y0045587D02*
X0205137Y0031031D01*
X01821Y0017563D02*
X0184163Y00155D01*
X01821Y0017563D02*
Y003745D01*
X01015Y0075744D02*
Y0076D01*
X01953Y00506D02*
X020555Y004035D01*
X018525Y00556D02*
Y00606D01*
Y00656*
Y00706*
Y00756*
Y00656D02*
X02002D01*
X02052Y00606D02*
X022255D01*
X02002Y00656D02*
X02052Y00606D01*
X0180887Y0176D02*
X01841Y0179213D01*
X0221Y00206D02*
Y00237D01*
X02229Y00256*
X022255Y00606D02*
X0222563Y0060587D01*
X022255Y00606D02*
Y00656D01*
Y00706D02*
Y00752D01*
X022735Y00256D02*
X02312Y002945D01*
X02229Y00256D02*
X022735D01*
X0222563Y0060587D02*
X0228983D01*
X02312Y002945D02*
Y005837D01*
X022235Y00754D02*
X022255Y00752D01*
X0235Y00981D02*
Y01088D01*
X0255261Y01663D02*
X0256363D01*
X0215Y01088D02*
Y01233D01*
X02098Y01285D02*
X0215Y01233D01*
X0198488Y01285D02*
X02098D01*
X0264237Y01663D02*
Y01749D01*
X0197263Y0011737D02*
Y00158D01*
X0203Y0006D02*
X02156D01*
X0197263Y0011737D02*
X0203Y0006D01*
X0192337Y00158D02*
X0197263D01*
X02082Y005D02*
X02126Y00456D01*
X00941Y00045D02*
X01788D01*
X0184163Y0009863*
Y00155*
X01715Y0186D02*
X01819Y01964D01*
X0264237Y01614D02*
Y01663D01*
X0258737Y01559D02*
X0264237Y01614D01*
X01715Y0176D02*
X0180887D01*
X01922*
X02327Y01769D02*
X02537Y01559D01*
X0258737*
X0229604Y0134996D02*
X02322Y01324D01*
X0261594Y0206455D02*
X0270086D01*
X0271129Y0207498*
X02792Y0183817D02*
Y02099D01*
X0254987Y01844D02*
Y0199848D01*
X0261594Y0206455*
X0254889Y0176374D02*
X0256363Y01749D01*
X0254889Y0176374D02*
Y0189374D01*
X0247863Y01964D02*
X0254889Y0189374D01*
X0236957Y0184605D02*
X0255261Y01663D01*
X02042Y01769D02*
X02327D01*
X009111Y0007491D02*
X00941Y00045D01*
X0047409Y0011081D02*
Y0013542D01*
X0057409Y0011081D02*
Y0014388D01*
X0085893Y0042872*
X0191436Y0087164D02*
X02032Y00754D01*
X0191436Y0087164D02*
Y0109309D01*
X0205Y0103687D02*
Y01088D01*
Y0103687D02*
X0208637Y010005D01*
Y00964D02*
Y010005D01*
Y00964D02*
X021865D01*
X021915Y00969*
X027418Y015342D02*
X02817Y01459D01*
X027418Y015342D02*
Y0178798D01*
X0274755Y0179372*
X0276413*
X0278719Y0181679*
Y0183336*
X02792Y0183817*
G54D40*
X0185263Y0045587D02*
X0190581D01*
X01821Y003745D02*
X018525Y00406D01*
Y00506D02*
X01953D01*
G54D41*
X0191109Y01349D03*
G54D42*
X0076657Y0090695D03*
X0013928Y0089833D03*
G54D43*
X0056657Y0090695D03*
X0033928Y0089833D03*
G54D44*
X0028295Y0130372D03*
X0038295D03*
X0048294D03*
X0058294D03*
X0078294D03*
X0068295D03*
X0027409Y0011081D03*
X0037409D03*
X0047409D03*
X0057409D03*
X0077409D03*
X0067409D03*
G54D45*
X02817Y01359D03*
Y01459D03*
X02822Y01734D03*
Y01634D03*
X0008137Y016555D03*
Y017555D03*
G54D46*
X022Y02063D03*
X0010007Y022299D03*
X0280775D03*
X0010007Y0009998D03*
X02807Y00099D03*
G54D47*
X0235Y01088D03*
X0225D03*
X0215D03*
X0205D03*
G54D48*
X01697Y00559D03*
Y00659D03*
Y00759D03*
Y00859D03*
Y00959D03*
Y01059D03*
Y01159D03*
Y01259D03*
Y01359D03*
Y01459D03*
Y01559D03*
Y01659D03*
Y01759D03*
X00997Y00559D03*
Y00659D03*
Y00759D03*
Y01159D03*
Y01259D03*
Y01359D03*
Y01459D03*
Y01559D03*
Y01659D03*
Y01759D03*
X01697Y01859D03*
X0271031Y0205432D03*
G54D49*
X00997Y00859D03*
Y00959D03*
Y01059D03*
G54D50*
X00997Y01859D03*
G54D51*
X0271031Y0195431D03*
G54D52*
X0262665Y0019132D03*
Y007114D03*
G54D53*
X0080775Y0116495D03*
X0043176Y0064428D03*
X0032842Y0155569D03*
X02517Y00604D03*
X02437Y00599D03*
X02487Y01379D03*
X02052Y01549D03*
X02622Y01434D03*
X02322Y01324D03*
X0191602Y0109309D03*
G54D54*
X01962Y00394D03*
X02032Y00754D03*
X02064Y00405D03*
X0198488Y01285D03*
X02082Y005D03*
M02*