%FSTAX25Y25*%
%MOIN*%
%SFA1B1*%

%IPPOS*%
%ADD10C,0.007870*%
%ADD11C,0.005000*%
%ADD12C,0.010000*%
%ADD13C,0.006000*%
%ADD14C,0.005910*%
%ADD15C,0.003000*%
%ADD16R,0.020000X0.020000*%
%ADD17R,0.055120X0.116140*%
%LNriver_level_sensor_datalogger-1*%
%LPD*%
G36*
X018055Y006985D02*
X017955D01*
Y007135*
X018055*
Y006985*
G37*
G54D10*
X009533Y0020506D02*
X0095375Y0019499D01*
X0095497Y0018497*
X0095697Y0017508*
X0095971Y0016538*
X009632Y0015592*
X0096741Y0014675*
X0097232Y0013793*
X0097789Y0012952*
X0098409Y0012157*
X0099088Y0011411*
X0099823Y0010721*
X0100609Y0010088*
X0101442Y0009519*
X0102316Y0009015*
X0103226Y000858*
X0104167Y0008217*
X0105133Y0007927*
X0106119Y0007713*
X0107118Y0007576*
X0108125Y0007515*
X0161077Y0007749D02*
X0162053Y0007791D01*
X0163024Y0007906*
X0163984Y0008094*
X0164926Y0008352*
X0165847Y0008681*
X0166741Y0009077*
X0167603Y0009539*
X0168427Y0010064*
X016921Y0010649*
X0169948Y0011292*
X0170635Y0011987*
X0171268Y0012732*
X0171844Y0013522*
X0172359Y0014353*
X017281Y001522*
X0173196Y0016118*
X0173513Y0017043*
X017376Y0017989*
X0173936Y0018951*
X0174039Y0019923*
X017407Y00209*
X0132297Y0224061D02*
X0132544Y0223029D01*
X0133211Y0222204*
X0134169Y0221747*
X0135231*
X0136189Y0222204*
X0136856Y0223029*
X0137103Y0224061*
X0108322Y022405D02*
X0107302Y0224002D01*
X0106289Y0223874*
X0105288Y0223669*
X0104307Y0223385*
X0103351Y0223026*
X0102426Y0222593*
X0101538Y0222089*
X0100691Y0221518*
X0099892Y0220882*
X0099145Y0220186*
X0098454Y0219433*
X0097825Y0218629*
X009726Y0217778*
X0096763Y0216886*
X0096338Y0215958*
X0095986Y0214999*
X009571Y0214016*
X0095512Y0213014*
X0095392Y0212*
X0095352Y0210979*
X0174016Y0211325D02*
X0173952Y0212325D01*
X017381Y0213318*
X0173593Y0214297*
X0173302Y0215256*
X0172937Y021619*
X0172503Y0217094*
X0172Y0217962*
X0171432Y0218788*
X0170803Y0219568*
X0170115Y0220299*
X0169374Y0220974*
X0168583Y022159*
X0167747Y0222144*
X0166872Y0222632*
X0165961Y0223052*
X0165021Y02234*
X0164057Y0223676*
X0163074Y0223877*
X016208Y0224001*
X0161078Y022405*
X009533Y0019719D02*
Y0211451D01*
X0107928Y0007672D02*
X0161472D01*
X017407Y0019193D02*
Y0211451D01*
X0107928Y0224089D02*
X0132338D01*
X0137062D02*
X0161488D01*
G54D11*
X0283216Y0060097D02*
X0284085Y0060544D01*
X0284858Y0061142*
X028551Y006187*
X0286019Y0062704*
X0286369Y0063617*
X0286546Y0064579*
Y0065556*
X0286369Y0066517*
X0286019Y006743*
X028551Y0068265*
X0284858Y0068993*
X0284085Y0069591*
X0283216Y0070038*
Y0060097D02*
X0282361Y0059569D01*
X0281537Y0058993*
X0280749Y005837*
X0279998Y0057702*
X0279288Y0056991*
X027862Y005624*
X0277997Y0055452*
X027742Y0054629*
X0276893Y0053774*
X0276416Y0052889*
X0275991Y0051978*
X027562Y0051045*
X0275304Y0050091*
X0275044Y004912*
X0274841Y0048136*
X0274695Y0047142*
X0274607Y0046141*
X0274578Y0045136*
X0274607Y0044132*
X0274695Y0043131*
X0274841Y0042136*
X0275044Y0041152*
X0275304Y0040182*
X027562Y0039228*
X0275991Y0038294*
X0276416Y0037383*
X0276893Y0036499*
X027742Y0035644*
X0277996Y003482*
X027862Y0034032*
X0279288Y0033281*
X0279998Y0032571*
X0280749Y0031903*
X0281537Y003128*
X028236Y0030703*
X0283216Y0030176*
Y0020235D02*
X0284085Y0020682D01*
X0284858Y002128*
X028551Y0022008*
X0286019Y0022842*
X0286369Y0023755*
X0286546Y0024716*
Y0025694*
X0286369Y0026655*
X0286019Y0027568*
X028551Y0028403*
X0284858Y0029131*
X0284085Y0029728*
X0283216Y0030176*
X0271543Y0070038D02*
X0283216D01*
X0271543Y0020235D02*
X0283216D01*
X0250165D02*
X0253787D01*
X0238767Y0029388D02*
X0250165Y0020235D01*
X0238767Y0029388D02*
Y0060884D01*
X0250165Y0070038*
X0253787*
X026859Y0064821D02*
X027359D01*
X027109Y0062321D02*
Y0067321D01*
X0269377Y0026514D02*
X0274377D01*
X0271877Y0024014D02*
Y0029014D01*
X0247409Y0042439D02*
Y0047439D01*
G54D12*
X0085795Y0103601D02*
Y0105077D01*
X0084613Y0103601D02*
X0085795D01*
X0085705Y0100352D02*
X0085795Y0074805D01*
X0045243Y010055D02*
X0046306D01*
X0045243D02*
Y0103435D01*
X0045342Y0103502D02*
X0046129D01*
X0046424Y0105077D02*
X0085795D01*
X0046424Y0074805D02*
X0085795D01*
X0046424D02*
Y0105077D01*
Y010055D02*
X0084613D01*
Y0103601*
X0046424Y010055D02*
X0084613D01*
X0085508*
X0085705Y0100352*
X0004791Y0075451D02*
Y0076928D01*
X0005972*
X0004791Y0105723D02*
X000488Y0080176D01*
X0044279Y0079979D02*
X0045342D01*
Y0077093D02*
Y0079979D01*
X0044456Y0077026D02*
X0045243D01*
X0004791Y0075451D02*
X0044161D01*
X0004791Y0105723D02*
X0044161D01*
Y0075451D02*
Y0105723D01*
X0005972Y0079979D02*
X0044161D01*
X0005972Y0076928D02*
Y0079979D01*
X0044161*
X0005077D02*
X0005972D01*
X000488Y0080176D02*
X0005077Y0079979D01*
X0016798Y0220924D02*
X0087665D01*
Y0122498D02*
Y0220924D01*
X0016798Y0122498D02*
X0087665D01*
X0016798D02*
Y0220924D01*
X024Y02188D02*
X025Y01988D01*
X02Y02188D02*
X024D01*
X019Y01988D02*
X02Y02188D01*
X019Y01988D02*
X025D01*
Y01188D02*
Y01988D01*
X019Y01188D02*
Y01988D01*
Y01188D02*
X022D01*
X025*
X028481Y0184801D02*
Y0216298D01*
X0261188D02*
X028481D01*
X0261188Y0184801D02*
X028481D01*
X0261188D02*
Y0216298D01*
X0276263Y0121853D02*
X0284137D01*
X027331Y0095278D02*
Y0115947D01*
X0276263Y008642D02*
X0284137D01*
X028709Y0089372D02*
Y01189D01*
X027331Y0112995D02*
X028709D01*
X027331Y0095278D02*
X028709D01*
X0274491Y0111026D02*
X0285909D01*
X0274491Y0097246D02*
X0285909D01*
X0274491D02*
Y0111026D01*
X0285909Y0097246D02*
Y0111026D01*
X027331Y0089372D02*
X0276263Y008642D01*
X0284137D02*
X028709Y0089372D01*
X0284137Y0121853D02*
X028709Y01189D01*
X027331D02*
X0276263Y0121853D01*
X027331Y0112995D02*
Y01189D01*
Y0089372D02*
Y0095278D01*
X0053871Y0071546D02*
X0053018Y0072398D01*
X0051313*
X005046Y0071546*
Y0070693*
X0051313Y006984*
X0053018*
X0053871Y0068987*
Y0068135*
X0053018Y0067282*
X0051313*
X005046Y0068135*
X0055576Y0067282D02*
X0057282D01*
X0056429*
Y0070693*
X0055576*
X0061545Y0065576D02*
X0062398D01*
X0063251Y0066429*
Y0070693*
X0060693*
X005984Y006984*
Y0068135*
X0060693Y0067282*
X0063251*
X0064956D02*
Y0070693D01*
X0067515*
X0068367Y006984*
Y0067282*
X0070926Y0070693D02*
X0072631D01*
X0073484Y006984*
Y0067282*
X0070926*
X0070073Y0068135*
X0070926Y0068987*
X0073484*
X0075189Y0067282D02*
X0076895D01*
X0076042*
Y0072398*
X0075189*
X0079453Y0067282D02*
X0082011D01*
X0082864Y0068135*
X0082011Y0068987*
X0080306*
X0079453Y006984*
X0080306Y0070693*
X0082864*
X0008497Y0070758D02*
X0007644Y0071611D01*
X0005939*
X0005086Y0070758*
Y0067347*
X0005939Y0066495*
X0007644*
X0008497Y0067347*
Y0069053*
X0006791*
X0010202Y0066495D02*
Y0071611D01*
X0013613Y0066495*
Y0071611*
X0015319D02*
Y0066495D01*
X0017877*
X001873Y0067347*
Y0070758*
X0017877Y0071611*
X0015319*
X0025657Y0070758D02*
X0026509Y0071611D01*
X0028215*
X0029068Y0070758*
Y0069906*
X0028215Y0069053*
X0027362*
X0028215*
X0029068Y00682*
Y0067347*
X0028215Y0066495*
X0026509*
X0025657Y0067347*
X0030773Y0066495D02*
Y0067347D01*
X0031626*
Y0066495*
X0030773*
X0035037Y0070758D02*
X003589Y0071611D01*
X0037595*
X0038448Y0070758*
Y0069906*
X0037595Y0069053*
X0036742*
X0037595*
X0038448Y00682*
Y0067347*
X0037595Y0066495*
X003589*
X0035037Y0067347*
X0040153Y0071611D02*
Y00682D01*
X0041859Y0066495*
X0043564Y00682*
Y0071611*
X0137172Y0053109D02*
X0130088D01*
Y0056651*
X0131269Y0057832*
X013363*
X0134811Y0056651*
Y0053109*
Y005547D02*
X0137172Y0057832D01*
X0130088Y0060193D02*
Y0062554D01*
Y0061374*
X0137172*
Y0060193*
Y0062554*
X0130088Y0066097D02*
X0134811D01*
X0137172Y0068458*
X0134811Y0070819*
X0130088*
Y0077904D02*
Y0073181D01*
X0137172*
Y0077904*
X013363Y0073181D02*
Y0075542D01*
X0137172Y0080265D02*
X0130088D01*
Y0083807*
X0131269Y0084988*
X013363*
X0134811Y0083807*
Y0080265*
Y0082627D02*
X0137172Y0084988D01*
X0130088Y0094434D02*
X0137172D01*
Y0099157*
X0130088Y0106241D02*
Y0101518D01*
X0137172*
Y0106241*
X013363Y0101518D02*
Y010388D01*
X0130088Y0108602D02*
X0134811D01*
X0137172Y0110964*
X0134811Y0113325*
X0130088*
Y012041D02*
Y0115687D01*
X0137172*
Y012041*
X013363Y0115687D02*
Y0118048D01*
X0130088Y0122771D02*
X0137172D01*
Y0127494*
X0131269Y0141663D02*
X0130088Y0140482D01*
Y013812*
X0131269Y013694*
X013245*
X013363Y013812*
Y0140482*
X0134811Y0141663*
X0135992*
X0137172Y0140482*
Y013812*
X0135992Y013694*
X0130088Y0148747D02*
Y0144024D01*
X0137172*
Y0148747*
X013363Y0144024D02*
Y0146386D01*
X0137172Y0151108D02*
X0130088D01*
X0137172Y0155831*
X0130088*
X0131269Y0162916D02*
X0130088Y0161735D01*
Y0159373*
X0131269Y0158193*
X013245*
X013363Y0159373*
Y0161735*
X0134811Y0162916*
X0135992*
X0137172Y0161735*
Y0159373*
X0135992Y0158193*
X0130088Y0168819D02*
Y0166458D01*
X0131269Y0165277*
X0135992*
X0137172Y0166458*
Y0168819*
X0135992Y017*
X0131269*
X0130088Y0168819*
X0137172Y0172361D02*
X0130088D01*
Y0175903*
X0131269Y0177084*
X013363*
X0134811Y0175903*
Y0172361*
Y0174723D02*
X0137172Y0177084D01*
X0020111Y0058652D02*
X0019258Y0059505D01*
X0017553*
X00167Y0058652*
Y0057799*
X0017553Y0056946*
X0019258*
X0020111Y0056094*
Y0055241*
X0019258Y0054388*
X0017553*
X00167Y0055241*
X0024375Y0054388D02*
X0022669D01*
X0021816Y0055241*
Y0056946*
X0022669Y0057799*
X0024375*
X0025227Y0056946*
Y0056094*
X0021816*
X0026933Y0054388D02*
Y0057799D01*
X0029491*
X0030344Y0056946*
Y0054388*
X0032049D02*
X0034608D01*
X003546Y0055241*
X0034608Y0056094*
X0032902*
X0032049Y0056946*
X0032902Y0057799*
X003546*
X0038019Y0054388D02*
X0039724D01*
X0040577Y0055241*
Y0056946*
X0039724Y0057799*
X0038019*
X0037166Y0056946*
Y0055241*
X0038019Y0054388*
X0042282Y0057799D02*
Y0054388D01*
Y0056094*
X0043135Y0056946*
X0043988Y0057799*
X004484*
X0052515Y0054388D02*
Y0059505D01*
X0054221Y0057799*
X0055926Y0059505*
Y0054388*
X0057632Y0059505D02*
Y0054388D01*
X006019*
X0061043Y0055241*
Y0056094*
X006019Y0056946*
X0057632*
X006019*
X0061043Y0057799*
Y0058652*
X006019Y0059505*
X0057632*
X0062748D02*
X0066159D01*
Y0058652*
X0062748Y0055241*
Y0054388*
X0067865Y0058652D02*
X0068717Y0059505D01*
X0070423*
X0071276Y0058652*
Y0057799*
X0070423Y0056946*
X006957*
X0070423*
X0071276Y0056094*
Y0055241*
X0070423Y0054388*
X0068717*
X0067865Y0055241*
X0072981Y0058652D02*
X0073834Y0059505D01*
X0075539*
X0076392Y0058652*
Y0057799*
X0075539Y0056946*
X0076392Y0056094*
Y0055241*
X0075539Y0054388*
X0073834*
X0072981Y0055241*
Y0056094*
X0073834Y0056946*
X0072981Y0057799*
Y0058652*
X0073834Y0056946D02*
X0075539D01*
X0078097Y0058652D02*
X007895Y0059505D01*
X0080656*
X0081508Y0058652*
Y0057799*
X0080656Y0056946*
X0081508Y0056094*
Y0055241*
X0080656Y0054388*
X007895*
X0078097Y0055241*
Y0056094*
X007895Y0056946*
X0078097Y0057799*
Y0058652*
X007895Y0056946D02*
X0080656D01*
X0030938Y0023809D02*
X0030085Y0024662D01*
X0028379*
X0027527Y0023809*
Y0020398*
X0028379Y0019546*
X0030085*
X0030938Y0020398*
Y0022104*
X0029232*
X0032643Y0019546D02*
Y0024662D01*
X0035201*
X0036054Y0023809*
Y0022104*
X0035201Y0021251*
X0032643*
X003776Y0019546D02*
Y0024662D01*
X0040318*
X0041171Y0023809*
Y0022104*
X0040318Y0021251*
X003776*
X0039465D02*
X0041171Y0019546D01*
X0046287Y0023809D02*
X0045434Y0024662D01*
X0043729*
X0042876Y0023809*
Y0022957*
X0043729Y0022104*
X0045434*
X0046287Y0021251*
Y0020398*
X0045434Y0019546*
X0043729*
X0042876Y0020398*
X005652Y0023809D02*
X0055667Y0024662D01*
X0053962*
X0053109Y0023809*
Y0022957*
X0053962Y0022104*
X0055667*
X005652Y0021251*
Y0020398*
X0055667Y0019546*
X0053962*
X0053109Y0020398*
X0058226Y0024662D02*
X0059931D01*
X0059078*
Y0019546*
X0058226*
X0059931*
X0062489D02*
Y0024662D01*
X0064195Y0022957*
X00659Y0024662*
Y0019546*
X0067606Y0023809D02*
X0068458Y0024662D01*
X0070164*
X0071017Y0023809*
Y0022957*
X0070164Y0022104*
X0071017Y0021251*
Y0020398*
X0070164Y0019546*
X0068458*
X0067606Y0020398*
Y0021251*
X0068458Y0022104*
X0067606Y0022957*
Y0023809*
X0068458Y0022104D02*
X0070164D01*
X0072722Y0023809D02*
X0073575Y0024662D01*
X007528*
X0076133Y0023809*
Y0020398*
X007528Y0019546*
X0073575*
X0072722Y0020398*
Y0023809*
X0077839D02*
X0078691Y0024662D01*
X0080397*
X008125Y0023809*
Y0020398*
X0080397Y0019546*
X0078691*
X0077839Y0020398*
Y0023809*
X0082955Y0024662D02*
Y0019546D01*
X0086366*
X0206065Y0188343D02*
Y0182046D01*
X0209213*
X0210263Y0183095*
Y0187293*
X0209213Y0188343*
X0206065*
X0212362D02*
Y0182046D01*
Y0185194*
X021656*
Y0188343*
Y0182046*
X0218659Y0188343D02*
X0222857D01*
X0220758*
Y0182046*
X0229154D02*
X0224956D01*
X0229154Y0186244*
Y0187293*
X0228105Y0188343*
X0226006*
X0224956Y0187293*
X0235451Y0182046D02*
X0231253D01*
X0235451Y0186244*
Y0187293*
X0234402Y0188343*
X0232303*
X0231253Y0187293*
X0101282Y0218288D02*
Y0211991D01*
X010548*
X0110728Y0218288D02*
X0108629D01*
X0107579Y0217239*
Y0213041*
X0108629Y0211991*
X0110728*
X0111777Y0213041*
Y0217239*
X0110728Y0218288*
X0113876Y0211991D02*
Y0218288D01*
X0117025*
X0118074Y0217239*
Y021514*
X0117025Y021409*
X0113876*
X0120173Y0218288D02*
Y0217239D01*
X0122273Y021514*
X0124372Y0217239*
Y0218288*
X0122273Y021514D02*
Y0211991D01*
X0129619D02*
Y0218288D01*
X0126471Y021514*
X0130669*
X0026108Y0217206D02*
X002191D01*
Y0214057*
X0024009*
X002191*
Y0210909*
X0028207Y0217206D02*
X0032405D01*
X0030306*
Y0210909*
X0034504Y0217206D02*
Y0210909D01*
X0037652*
X0038702Y0211958*
Y0216156*
X0037652Y0217206*
X0034504*
X0040801D02*
X00429D01*
X0041851*
Y0210909*
X0040801*
X00429*
X0271228Y0095628D02*
X0266111D01*
X0267817Y0097334*
X0266111Y0099039*
X0271228*
Y0101598D02*
Y0103303D01*
X0270375Y0104156*
X0268669*
X0267817Y0103303*
Y0101598*
X0268669Y0100745*
X0270375*
X0271228Y0101598*
X0266111Y0109272D02*
X0271228D01*
Y0106714*
X0270375Y0105861*
X0268669*
X0267817Y0106714*
Y0109272*
X0271228Y0113536D02*
Y011183D01*
X0270375Y0110978*
X0268669*
X0267817Y011183*
Y0113536*
X0268669Y0114389*
X0269522*
Y0110978*
X0265519Y0190115D02*
Y0187491D01*
X0266831Y0186179*
X0268143Y0187491*
Y0190115*
X0269455Y0186179D02*
X0270767D01*
X0270111*
Y0188803*
X0269455*
X0272734Y0186179D02*
Y0188803D01*
X0274702*
X0275358Y0188147*
Y0186179*
X027667Y0188147D02*
X0279294D01*
X0265519Y0215115D02*
Y0212491D01*
X0266831Y0211179*
X0268143Y0212491*
Y0215115*
X0269455Y0211179D02*
X0270767D01*
X0270111*
Y0213803*
X0269455*
X0272734Y0211179D02*
Y0213803D01*
X0274702*
X0275358Y0213147*
Y0211179*
X027667Y0213147D02*
X0279294D01*
X0277982Y0214459D02*
Y0211836D01*
X0010596Y0156061D02*
X000548D01*
Y0153503*
X0006332Y015265*
X0007185*
X0008038Y0153503*
Y0156061*
Y0153503*
X000889Y015265*
X0009743*
X0010596Y0153503*
Y0156061*
X000548Y0150092D02*
Y0148387D01*
X0006332Y0147534*
X0008038*
X000889Y0148387*
Y0150092*
X0008038Y0150945*
X0006332*
X000548Y0150092*
Y0144976D02*
Y014327D01*
X0006332Y0142418*
X0008038*
X000889Y014327*
Y0144976*
X0008038Y0145828*
X0006332*
X000548Y0144976*
X0009743Y0139859D02*
X000889D01*
Y0140712*
Y0139006*
Y0139859*
X0006332*
X000548Y0139006*
X0005275Y0115245D02*
Y0109247D01*
X0008274*
X0009273Y0110247*
Y0111247*
X0008274Y0112246*
X0005275*
X0008274*
X0009273Y0113246*
Y0114246*
X0008274Y0115245*
X0005275*
X0015272Y0109247D02*
X0011273D01*
X0015272Y0113246*
Y0114246*
X0014272Y0115245*
X0012273*
X0011273Y0114246*
X0045748Y0114527D02*
Y0108529D01*
X0048747*
X0049747Y0109529*
Y0110529*
X0048747Y0111528*
X0045748*
X0048747*
X0049747Y0112528*
Y0113528*
X0048747Y0114527*
X0045748*
X0051746Y0108529D02*
X0053745D01*
X0052746*
Y0114527*
X0051746Y0113528*
X0015814Y0022202D02*
Y0018266D01*
Y0020234*
X0018438*
Y0022202*
Y0018266*
X0022374Y0022202D02*
X001975D01*
Y0020234*
X0021062Y002089*
X0021718*
X0022374Y0020234*
Y0018922*
X0021718Y0018266*
X0020406*
X001975Y0018922*
X00038Y0187736D02*
Y01838D01*
Y0185768*
X0006424*
Y0187736*
Y01838*
X0007736Y018708D02*
X0008392Y0187736D01*
X0009704*
X001036Y018708*
Y0186424*
X0009704Y0185768*
X0009048*
X0009704*
X001036Y0185112*
Y0184456*
X0009704Y01838*
X0008392*
X0007736Y0184456*
X0279462Y0127156D02*
X0278806Y0127812D01*
X0277494*
X0276838Y0127156*
Y01265*
X0277494Y0125844*
X0278806*
X0279462Y0125188*
Y0124532*
X0278806Y0123876*
X0277494*
X0276838Y0124532*
X0280773Y0123876D02*
X0282085D01*
X028143*
Y0127812*
X0280773Y0127156*
X0243767Y0085983D02*
Y0089918D01*
X0245735*
X0246391Y0089262*
Y008795*
X0245735Y0087295*
X0243767*
X0245079D02*
X0246391Y0085983D01*
X0247703Y0089918D02*
X0250326D01*
Y0089262*
X0247703Y0086639*
Y0085983*
X0237172Y0076533D02*
Y0072597D01*
X023914*
X0239796Y0073253*
Y0073909*
X023914Y0074565*
X0237172*
X023914*
X0239796Y0075221*
Y0075877*
X023914Y0076533*
X0237172*
X0241108D02*
X0243732D01*
X024242*
Y0072597*
X0178806Y0087163D02*
Y0083883D01*
X0179462Y0083227*
X0180774*
X018143Y0083883*
Y0087163*
X0182742Y0086507D02*
X0183398Y0087163D01*
X018471*
X0185366Y0086507*
Y0085851*
X018471Y0085195*
X0184054*
X018471*
X0185366Y0084539*
Y0083883*
X018471Y0083227*
X0183398*
X0182742Y0083883*
X0221095Y0089951D02*
X022044Y0090607D01*
X0219128*
X0218472Y0089951*
Y0087328*
X0219128Y0086672*
X022044*
X0221095Y0087328*
X0224375Y0086672D02*
Y0090607D01*
X0222407Y0088639*
X0225031*
X0219225Y0007077D02*
X0218569Y0007733D01*
X0217257*
X0216602Y0007077*
Y0004454*
X0217257Y0003798*
X0218569*
X0219225Y0004454*
X0220537Y0007077D02*
X0221193Y0007733D01*
X0222505*
X0223161Y0007077*
Y0006421*
X0222505Y0005765*
X0221849*
X0222505*
X0223161Y000511*
Y0004454*
X0222505Y0003798*
X0221193*
X0220537Y0004454*
X0183497Y0194085D02*
X0182841Y0194741D01*
X0181529*
X0180873Y0194085*
Y0191462*
X0181529Y0190805*
X0182841*
X0183497Y0191462*
X0184809Y0190805D02*
X0186121D01*
X0185465*
Y0194741*
X0184809Y0194085*
X0251542Y0155865D02*
Y01598D01*
X025351*
X0254166Y0159144*
Y0157832*
X025351Y0157176*
X0251542*
X0252854D02*
X0254166Y0155865D01*
X0258102Y01598D02*
X0255478D01*
Y0157832*
X025679Y0158488*
X0257446*
X0258102Y0157832*
Y015652*
X0257446Y0155865*
X0256134*
X0255478Y015652*
X0251149Y0179093D02*
Y0183029D01*
X0253117*
X0253773Y0182373*
Y0181061*
X0253117Y0180405*
X0251149*
X0252461D02*
X0253773Y0179093D01*
X0257052D02*
Y0183029D01*
X0255085Y0181061*
X0257708*
X0199574Y0085786D02*
Y0089722D01*
X0201542*
X0202198Y0089066*
Y0087754*
X0201542Y0087098*
X0199574*
X0200886D02*
X0202198Y0085786D01*
X020351Y0089066D02*
X0204166Y0089722D01*
X0205478*
X0206134Y0089066*
Y008841*
X0205478Y0087754*
X0204822*
X0205478*
X0206134Y0087098*
Y0086442*
X0205478Y0085786*
X0204166*
X020351Y0086442*
X0197409Y000488D02*
Y0008816D01*
X0199376*
X0200032Y000816*
Y0006848*
X0199376Y0006192*
X0197409*
X0198721D02*
X0200032Y000488D01*
X0203968D02*
X0201344D01*
X0203968Y0007504*
Y000816*
X0203312Y0008816*
X0202*
X0201344Y000816*
X0183629Y0004487D02*
Y0008422D01*
X0185597*
X0186253Y0007766*
Y0006454*
X0185597Y0005799*
X0183629*
X0184941D02*
X0186253Y0004487D01*
X0187565D02*
X0188877D01*
X0188221*
Y0008422*
X0187565Y0007766*
X0259023Y0219841D02*
Y0223777D01*
X0260991*
X0261647Y0223121*
Y0221809*
X0260991Y0221153*
X0259023*
X0262959Y0219841D02*
X026427D01*
X0263615*
Y0223777*
X0262959Y0223121*
X0088846Y022791D02*
Y0224631D01*
X0089502Y0223975*
X0090813*
X009147Y0224631*
Y022791*
X0095405Y0223975D02*
X0092781D01*
X0095405Y0226599*
Y0227255*
X0094749Y022791*
X0093437*
X0092781Y0227255*
X0182218Y0226139D02*
X0180906D01*
X0181562*
Y0222859*
X0180906Y0222203*
X018025*
X0179594Y0222859*
X0183529Y0222203D02*
X0184841D01*
X0184185*
Y0226139*
X0183529Y0225483*
X0262277Y0091333D02*
X0261621Y0091989D01*
X0260309*
X0259653Y0091333*
Y0088709*
X0260309Y0088054*
X0261621*
X0262277Y0088709*
X0266212Y0091989D02*
X0263589D01*
Y0090021*
X02649Y0090677*
X0265556*
X0266212Y0090021*
Y0088709*
X0265556Y0088054*
X0264245*
X0263589Y0088709*
X0268472Y0179879D02*
Y0175943D01*
Y0177911*
X0271095*
Y0179879*
Y0175943*
X0272407D02*
X0273719D01*
X0273063*
Y0179879*
X0272407Y0179223*
X026729Y01536D02*
Y0149664D01*
Y0151632*
X0269914*
Y01536*
Y0149664*
X027385D02*
X0271226D01*
X027385Y0152288*
Y0152944*
X0273194Y01536*
X0271882*
X0271226Y0152944*
X0008137Y0210292D02*
Y0206357D01*
Y0208325*
X0010761*
Y0210292*
Y0206357*
X0014041D02*
Y0210292D01*
X0012073Y0208325*
X0014697*
G54D13*
X0055795Y0135372D02*
X0060795D01*
X0063295Y0132872*
Y0127872D02*
Y0132872D01*
X0060795Y0125372D02*
X0063295Y0127872D01*
X0043295Y0132872D02*
X0045794Y0135372D01*
X0050795*
X0053294Y0132872*
Y0127872D02*
Y0132872D01*
X0050795Y0125372D02*
X0053294Y0127872D01*
X0045794Y0125372D02*
X0050795D01*
X0043295Y0127872D02*
X0045794Y0125372D01*
X0053294Y0132872D02*
X0055795Y0135372D01*
X0053294Y0127872D02*
X0055795Y0125372D01*
X0060795*
X0025795Y0135372D02*
X0030795D01*
X0033294Y0132872*
Y0127872D02*
Y0132872D01*
X0030795Y0125372D02*
X0033294Y0127872D01*
Y0132872D02*
X0035794Y0135372D01*
X0040795*
X0043295Y0132872*
Y0127872D02*
Y0132872D01*
X0040795Y0125372D02*
X0043295Y0127872D01*
X0035794Y0125372D02*
X0040795D01*
X0033294Y0127872D02*
X0035794Y0125372D01*
X0023294Y0127872D02*
Y0132872D01*
X0025795Y0135372*
X0023294Y0127872D02*
X0025795Y0125372D01*
X0030795*
X0053294Y0127872D02*
X0055795Y0125372D01*
X0060795*
X0063295Y0127872*
Y0132872*
X0060795Y0135372D02*
X0063295Y0132872D01*
X0055795Y0135372D02*
X0060795D01*
X0053294Y0132872D02*
X0055795Y0135372D01*
X0053294Y0127872D02*
Y0132872D01*
X0075795Y0125372D02*
X0080795D01*
X0073295Y0127872D02*
X0075795Y0125372D01*
X0073295Y0132872D02*
X0075795Y0135372D01*
X0063295Y0127872D02*
X0065794Y0125372D01*
X0070794*
X0073295Y0127872*
Y0132872*
X0070794Y0135372D02*
X0073295Y0132872D01*
X0065794Y0135372D02*
X0070794D01*
X0063295Y0132872D02*
X0065794Y0135372D01*
X0080795Y0125372D02*
X0083294Y0127872D01*
Y0132872*
X0080795Y0135372D02*
X0083294Y0132872D01*
X0075795Y0135372D02*
X0080795D01*
X02767Y01334D02*
Y01384D01*
X02792Y01409*
X02842*
X02867Y01384*
X02767Y01434D02*
X02792Y01409D01*
X02767Y01434D02*
Y01484D01*
X02792Y01509*
X02842*
X02867Y01484*
Y01434D02*
Y01484D01*
X02842Y01409D02*
X02867Y01434D01*
X02792Y01309D02*
X02842D01*
X02767Y01334D02*
X02792Y01309D01*
X02842D02*
X02867Y01334D01*
Y01384*
X02872Y01709D02*
Y01759D01*
X02847Y01684D02*
X02872Y01709D01*
X02797Y01684D02*
X02847D01*
X02772Y01709D02*
X02797Y01684D01*
X02847D02*
X02872Y01659D01*
Y01609D02*
Y01659D01*
X02847Y01584D02*
X02872Y01609D01*
X02797Y01584D02*
X02847D01*
X02772Y01609D02*
X02797Y01584D01*
X02772Y01609D02*
Y01659D01*
X02797Y01684*
Y01784D02*
X02847D01*
X02872Y01759*
X02772D02*
X02797Y01784D01*
X02772Y01709D02*
Y01759D01*
X021935Y007796D02*
Y007925D01*
Y003695D02*
Y003824D01*
X018845Y003695D02*
X021935D01*
X018845Y007796D02*
Y007925D01*
X021935*
X018845Y003695D02*
Y003824D01*
X0003137Y017305D02*
Y017805D01*
X0005637Y018055*
X0010637D02*
X0013137Y017805D01*
X0005637Y018055D02*
X0010637D01*
X0003137Y016805D02*
X0005637Y017055D01*
X0003137Y016305D02*
Y016805D01*
Y016305D02*
X0005637Y016055D01*
X0010637*
X0013137Y016305*
Y016805*
X0010637Y017055D02*
X0013137Y016805D01*
X0003137Y017305D02*
X0005637Y017055D01*
X0010637*
X0013137Y017305*
Y017805*
X0054909Y0016081D02*
X0059909D01*
X0062409Y0013581*
Y0008581D02*
Y0013581D01*
X0059909Y0006081D02*
X0062409Y0008581D01*
X0042409Y0013581D02*
X0044909Y0016081D01*
X0049909*
X0052409Y0013581*
Y0008581D02*
Y0013581D01*
X0049909Y0006081D02*
X0052409Y0008581D01*
X0044909Y0006081D02*
X0049909D01*
X0042409Y0008581D02*
X0044909Y0006081D01*
X0052409Y0013581D02*
X0054909Y0016081D01*
X0052409Y0008581D02*
X0054909Y0006081D01*
X0059909*
X0024909Y0016081D02*
X0029909D01*
X0032409Y0013581*
Y0008581D02*
Y0013581D01*
X0029909Y0006081D02*
X0032409Y0008581D01*
Y0013581D02*
X0034909Y0016081D01*
X0039909*
X0042409Y0013581*
Y0008581D02*
Y0013581D01*
X0039909Y0006081D02*
X0042409Y0008581D01*
X0034909Y0006081D02*
X0039909D01*
X0032409Y0008581D02*
X0034909Y0006081D01*
X0022409Y0008581D02*
Y0013581D01*
X0024909Y0016081*
X0022409Y0008581D02*
X0024909Y0006081D01*
X0029909*
X0052409Y0008581D02*
X0054909Y0006081D01*
X0059909*
X0062409Y0008581*
Y0013581*
X0059909Y0016081D02*
X0062409Y0013581D01*
X0054909Y0016081D02*
X0059909D01*
X0052409Y0013581D02*
X0054909Y0016081D01*
X0052409Y0008581D02*
Y0013581D01*
X0074909Y0006081D02*
X0079909D01*
X0072409Y0008581D02*
X0074909Y0006081D01*
X0072409Y0013581D02*
X0074909Y0016081D01*
X0062409Y0008581D02*
X0064909Y0006081D01*
X0069909*
X0072409Y0008581*
Y0013581*
X0069909Y0016081D02*
X0072409Y0013581D01*
X0064909Y0016081D02*
X0069909D01*
X0062409Y0013581D02*
X0064909Y0016081D01*
X0079909Y0006081D02*
X0082409Y0008581D01*
Y0013581*
X0079909Y0016081D02*
X0082409Y0013581D01*
X0074909Y0016081D02*
X0079909D01*
G54D14*
X0186919Y0018157D02*
X0189183D01*
X0187017Y0012843D02*
X0189183D01*
X0200117Y0013143D02*
X0202381D01*
X0200117Y0018457D02*
X0202283D01*
X0203617Y0093743D02*
X0205881D01*
X0203617Y0099057D02*
X0205783D01*
X0259217Y0172243D02*
X0261481D01*
X0259217Y0177557D02*
X0261383D01*
X0259119Y0168957D02*
X0261383D01*
X0259217Y0163643D02*
X0261383D01*
X0247117Y0099058D02*
X0249283D01*
X0247117Y0093743D02*
X0249381D01*
G54D15*
X02248Y0034835D02*
X0221468Y0038167D01*
X02248D02*
X0221468Y0034835D01*
X02248Y0036501D02*
X0221468D01*
X0223134Y0038167D02*
Y0034835D01*
G54D16*
X0078294Y0130372D03*
X0077409Y0011081D03*
G54D17*
X02802Y0104038D03*
M02*