%FSTAX25Y25*%
%MOIN*%
%SFA1B1*%

%IPPOS*%
%AMD30*
4,1,8,-0.034000,0.027000,-0.034000,-0.027000,-0.017000,-0.044000,0.017000,-0.044000,0.034000,-0.027000,0.034000,0.027000,0.017000,0.044000,-0.017000,0.044000,-0.034000,0.027000,0.0*
%
%AMD31*
4,1,8,-0.027000,-0.034000,0.027000,-0.034000,0.044000,-0.017000,0.044000,0.017000,0.027000,0.034000,-0.027000,0.034000,-0.044000,0.017000,-0.044000,-0.017000,-0.027000,-0.034000,0.0*
%
%ADD18R,0.057000X0.044000*%
%ADD24R,0.039500X0.059180*%
%ADD27C,0.068000*%
%ADD28O,0.106420X0.165480*%
%ADD29R,0.106420X0.165480*%
G04~CAMADD=30~4~0.0~0.0~880.0~680.0~0.0~170.0~0~0.0~0.0~0.0~0.0~0~0.0~0.0~0.0~0.0~0~0.0~0.0~0.0~90.0~680.0~880.0*
%ADD30D30*%
G04~CAMADD=31~4~0.0~0.0~880.0~680.0~0.0~170.0~0~0.0~0.0~0.0~0.0~0~0.0~0.0~0.0~0.0~0~0.0~0.0~0.0~180.0~880.0~680.0*
%ADD31D31*%
%ADD32C,0.126110*%
%ADD33O,0.059500X0.110990*%
%ADD34C,0.074930*%
%ADD35O,0.078870X0.047370*%
%ADD36R,0.074930X0.074930*%
%ADD37R,0.074930X0.074930*%
%ADD38C,0.113120*%
%ADD55R,0.022000X0.057500*%
%LNriver_level_sensor_datalogger-1*%
%LPD*%
G54D18*
X02427Y015245D03*
Y014535D03*
G54D24*
X0236137Y01234D03*
X0228263D03*
G54D27*
X0191109Y01349D03*
G54D28*
X0076657Y0090695D03*
X0013928Y0089833D03*
G54D29*
X0056657Y0090695D03*
X0033928Y0089833D03*
G54D30*
X0028295Y0130372D03*
X0038295D03*
X0048294D03*
X0058294D03*
X0078294D03*
X0068295D03*
X0027409Y0011081D03*
X0037409D03*
X0047409D03*
X0057409D03*
X0077409D03*
X0067409D03*
G54D31*
X02817Y01359D03*
Y01459D03*
X02822Y01734D03*
Y01634D03*
X0008137Y016555D03*
Y017555D03*
G54D32*
X022Y02063D03*
X0010007Y022299D03*
X0280775D03*
X0010007Y0009998D03*
X02807Y00099D03*
G54D33*
X0235Y01088D03*
X0225D03*
X0215D03*
X0205D03*
G54D34*
X01697Y00559D03*
Y00659D03*
Y00759D03*
Y00859D03*
Y00959D03*
Y01059D03*
Y01159D03*
Y01259D03*
Y01359D03*
Y01459D03*
Y01559D03*
Y01659D03*
Y01759D03*
X00997Y00559D03*
Y00659D03*
Y00759D03*
Y01159D03*
Y01259D03*
Y01359D03*
Y01459D03*
Y01559D03*
Y01659D03*
Y01759D03*
X01697Y01859D03*
X0271031Y0205432D03*
G54D35*
X00997Y00859D03*
Y00959D03*
Y01059D03*
G54D36*
X00997Y01859D03*
G54D37*
X0271031Y0195431D03*
G54D38*
X0262665Y0019132D03*
Y007114D03*
G54D55*
X02322Y0162625D03*
X02272D03*
X02222D03*
X02172D03*
Y0141175D03*
X02222D03*
X02272D03*
X02322D03*
M02*