%FSTAX25Y25*%
%MOIN*%
%SFA1B1*%

%IPPOS*%
%AMD44*
4,1,8,-0.030000,0.025000,-0.030000,-0.025000,-0.015000,-0.040000,0.015000,-0.040000,0.030000,-0.025000,0.030000,0.025000,0.015000,0.040000,-0.015000,0.040000,-0.030000,0.025000,0.0*
%
%AMD45*
4,1,8,-0.025000,-0.030000,0.025000,-0.030000,0.040000,-0.015000,0.040000,0.015000,0.025000,0.030000,-0.025000,0.030000,-0.040000,0.015000,-0.040000,-0.015000,-0.025000,-0.030000,0.0*
%
%ADD18R,0.057000X0.044000*%
%ADD19R,0.031500X0.051180*%
%ADD39C,0.023620*%
%ADD40C,0.019680*%
%ADD41C,0.060000*%
%ADD42O,0.098430X0.157480*%
%ADD43R,0.098430X0.157480*%
G04~CAMADD=44~4~0.0~0.0~800.0~600.0~0.0~150.0~0~0.0~0.0~0.0~0.0~0~0.0~0.0~0.0~0.0~0~0.0~0.0~0.0~90.0~600.0~800.0*
%ADD44D44*%
G04~CAMADD=45~4~0.0~0.0~800.0~600.0~0.0~150.0~0~0.0~0.0~0.0~0.0~0~0.0~0.0~0.0~0.0~0~0.0~0.0~0.0~180.0~800.0~600.0*
%ADD45D45*%
%ADD46C,0.118110*%
%ADD47O,0.051500X0.102990*%
%ADD48C,0.066930*%
%ADD49O,0.070870X0.039370*%
%ADD50R,0.066930X0.066930*%
%ADD51R,0.066930X0.066930*%
%ADD52C,0.105120*%
%ADD53C,0.050000*%
%ADD54C,0.051180*%
%ADD55R,0.022000X0.057500*%
%ADD56C,0.015750*%
%LNriver_level_sensor_datalogger-1*%
%LPD*%
G54D18*
X02427Y015245D03*
Y014535D03*
G54D19*
X0236137Y01234D03*
X0228263D03*
G54D39*
X0202275Y00884D02*
X02422D01*
X0174775Y01159D02*
X0202275Y00884D01*
X01697Y01159D02*
X0174775D01*
X01697Y01359D02*
X01707Y01349D01*
X0191109*
X0026542Y011364D02*
Y0125254D01*
X0014338Y0101435D02*
X0026542Y011364D01*
X0014338Y0097203D02*
Y0101435D01*
X0056952Y00904D02*
Y0100152D01*
X0060499Y0103699*
X0091619*
X00942Y0101119*
X0080775Y0116495D02*
Y0117774D01*
X0098901Y01359*
X001296Y0044743D02*
Y0078306D01*
Y0044743D02*
X0027409Y0030294D01*
X0043176Y0048975D02*
Y0064428D01*
Y0048975D02*
X0067409Y0024743D01*
Y0011081D02*
Y0024743D01*
X0024574Y017555D02*
X0039279Y0160845D01*
Y0148579D02*
Y0160845D01*
X0008137Y016555D02*
X0018117Y0155569D01*
X0032842*
X0027409Y0011081D02*
Y0030294D01*
X0090913Y0079782D02*
X0097131Y0086D01*
X0090913Y0007187D02*
Y0079782D01*
Y0007187D02*
X00933Y00048D01*
X0097131Y0086D02*
X01015D01*
Y0135744D02*
Y0136D01*
X0098901Y01359D02*
X00997D01*
X0008137Y017555D02*
X0024574D01*
X0032546Y0167577D02*
X0093532Y0228563D01*
X0219297*
X02702Y01724D02*
X02712Y01734D01*
X02702Y0152782D02*
Y01724D01*
X02612Y0143782D02*
X02702Y0152782D01*
X02712Y01734D02*
X02822D01*
X02202Y00599D02*
X02427D01*
X02047Y00754D02*
X02202Y00599D01*
X02517Y00604D02*
Y00779D01*
X02522Y00784*
X02422Y00884D02*
X02522Y00784D01*
X02032Y00754D02*
X02047D01*
X02627Y0016396D02*
Y0068404D01*
X0236137Y0114337D02*
Y01234D01*
X0235Y01132D02*
X0236137Y0114337D01*
X0235Y01088D02*
Y01132D01*
Y01088D02*
X02557Y01295D01*
X0235637Y01264D02*
X02422Y0132963D01*
X0239287Y0146313D02*
X02422Y01434D01*
Y0132963D02*
Y01434D01*
X02377Y01689D02*
X0249487Y0157113D01*
X0235632Y01489D02*
X0238219Y0146313D01*
X0225382Y01489D02*
X0235632D01*
X0249487Y0137687D02*
Y0157113D01*
X02492Y01374D02*
X0249487Y0137687D01*
X0238219Y0146313D02*
X0239287D01*
X0225318Y0154018D02*
X022545Y015415D01*
X0223262Y0154018D02*
X0225318D01*
X0223144Y01539D02*
X0223262Y0154018D01*
X02187Y01539D02*
X0223144D01*
X0222541Y0146059D02*
X0225382Y01489D01*
X022545Y015415D02*
X02427D01*
X022545D02*
X02272Y01559D01*
X02322Y01689D02*
X02377D01*
X02612Y01434D02*
Y0143782D01*
X02817Y01459D02*
X02822Y01464D01*
Y01634*
X0217163Y0155437D02*
X02175Y01551D01*
X02187Y01539*
X0102Y0066D02*
X01043D01*
X02032Y00547D02*
Y00749D01*
Y00547D02*
X02064Y00515D01*
X0172Y0166D02*
X01941D01*
X0205Y01551*
X00771Y0176D02*
X01015D01*
X02106Y00115D02*
Y00247D01*
X019655Y003875D02*
X02106Y00247D01*
X00999Y0146D02*
X01015D01*
X0085Y0166D02*
X0102D01*
X02464Y00162D02*
X02602D01*
X02064Y00405D02*
X02221D01*
X02464Y00162*
X01825Y0156D02*
X0198488Y0140012D01*
X01715Y0156D02*
X01825D01*
X0198488Y01285D02*
Y0140012D01*
X02064Y00518D02*
X02082Y005D01*
X02064Y00515D02*
Y00518D01*
X0102Y0056D02*
X01058D01*
X01157Y00659*
X0108481Y0101119D02*
X01157Y00939D01*
Y00659D02*
Y00939D01*
X01043Y0066D02*
X010948Y007118D01*
Y0088446*
X01733Y01765D02*
X01842Y01874D01*
Y02229*
X01802Y02269D02*
X01842Y02229D01*
X02039Y00048D02*
X02106Y00115D01*
X00933Y00048D02*
X02039D01*
X02292Y01714D02*
X02322Y01684D01*
X02247Y01714D02*
X02292D01*
X02222Y01689D02*
X02247Y01714D01*
X02172Y01339D02*
X02247Y01264D01*
X0227763*
X0219297Y0228563D02*
X025488Y019298D01*
X02557Y01295D02*
Y019216D01*
X0261039Y0197498*
X0271129*
X02052Y0122908D02*
Y01549D01*
X0191602Y0109309D02*
X02052Y0122908D01*
X0191602Y0108522D02*
Y0109309D01*
X0205Y01551D02*
X02175D01*
X0205Y01088D02*
X0205578Y0108222D01*
Y0099959D02*
Y0108222D01*
Y0099959D02*
X020922Y0096317D01*
X0236582*
X027044Y0130176*
Y0141987*
X0274354Y01459*
X02817*
X0058334Y0128404D02*
Y0157234D01*
X00771Y0176*
X0028609Y0137909D02*
X0039279Y0148579D01*
X0028609Y0127321D02*
Y0137909D01*
X0026542Y0125254D02*
X0028609Y0127321D01*
X0067881Y0131258D02*
Y0148881D01*
X0085Y0166*
G54D40*
X0106613Y0091313D02*
X010948Y0088446D01*
G54D41*
X0191109Y01349D03*
G54D42*
X0076657Y0090695D03*
X0013928Y0089833D03*
G54D43*
X0056657Y0090695D03*
X0033928Y0089833D03*
G54D44*
X0028295Y0130372D03*
X0038295D03*
X0048294D03*
X0058294D03*
X0078294D03*
X0068295D03*
X0027409Y0011081D03*
X0037409D03*
X0047409D03*
X0057409D03*
X0077409D03*
X0067409D03*
G54D45*
X02817Y01359D03*
Y01459D03*
X02822Y01734D03*
Y01634D03*
X0008137Y016555D03*
Y017555D03*
G54D46*
X022Y02063D03*
X0010007Y022299D03*
X0280775D03*
X0010007Y0009998D03*
X02807Y00099D03*
G54D47*
X0235Y01088D03*
X0225D03*
X0215D03*
X0205D03*
G54D48*
X01697Y00559D03*
Y00659D03*
Y00759D03*
Y00859D03*
Y00959D03*
Y01059D03*
Y01159D03*
Y01259D03*
Y01359D03*
Y01459D03*
Y01559D03*
Y01659D03*
Y01759D03*
X00997Y00559D03*
Y00659D03*
Y00759D03*
Y01159D03*
Y01259D03*
Y01359D03*
Y01459D03*
Y01559D03*
Y01659D03*
Y01759D03*
X01697Y01859D03*
X0271031Y0205432D03*
G54D49*
X00997Y00859D03*
Y00959D03*
Y01059D03*
G54D50*
X00997Y01859D03*
G54D51*
X0271031Y0195431D03*
G54D52*
X0262665Y0019132D03*
Y007114D03*
G54D53*
X0080775Y0116495D03*
X0043176Y0064428D03*
X0032842Y0155569D03*
X02517Y00604D03*
X02437Y00599D03*
X02487Y01379D03*
X02052Y01549D03*
X02622Y01434D03*
X02322Y01324D03*
X0191602Y0109309D03*
G54D54*
X01962Y00394D03*
X02032Y00754D03*
X02064Y00405D03*
X0198488Y01285D03*
X02082Y005D03*
G54D55*
X02322Y0162625D03*
X02272D03*
X02222D03*
X02172D03*
Y0141175D03*
X02222D03*
X02272D03*
X02322D03*
G54D56*
X0079113Y0091313D02*
X0106613D01*
X00942Y0101119D02*
X0108481D01*
X0217163Y0155437D02*
Y0162625D01*
X02272Y01559D02*
Y0162625D01*
X02322Y01654D02*
Y01684D01*
X02222Y01644D02*
Y01689D01*
X023945Y014615D02*
X02432D01*
X02222Y0141175D02*
Y0145718D01*
X02172Y01339D02*
Y0141175D01*
X02322Y01324D02*
Y0141175D01*
M02*